%TF.GenerationSoftware,KiCad,Pcbnew,7.0.7*%
%TF.CreationDate,2023-11-25T23:50:18-06:00*%
%TF.ProjectId,DAC2DE0,44414332-4445-4302-9e6b-696361645f70,rev?*%
%TF.SameCoordinates,Original*%
%TF.FileFunction,Copper,L2,Inr*%
%TF.FilePolarity,Positive*%
%FSLAX46Y46*%
G04 Gerber Fmt 4.6, Leading zero omitted, Abs format (unit mm)*
G04 Created by KiCad (PCBNEW 7.0.7) date 2023-11-25 23:50:18*
%MOMM*%
%LPD*%
G01*
G04 APERTURE LIST*
%TA.AperFunction,ComponentPad*%
%ADD10R,1.700000X1.700000*%
%TD*%
%TA.AperFunction,ComponentPad*%
%ADD11O,1.700000X1.700000*%
%TD*%
%TA.AperFunction,ComponentPad*%
%ADD12C,4.800000*%
%TD*%
%TA.AperFunction,ComponentPad*%
%ADD13C,1.650000*%
%TD*%
%TA.AperFunction,ViaPad*%
%ADD14C,0.800000*%
%TD*%
%TA.AperFunction,Conductor*%
%ADD15C,1.000000*%
%TD*%
G04 APERTURE END LIST*
D10*
%TO.N,/R0*%
%TO.C,J3*%
X163474400Y-74117200D03*
D11*
%TO.N,/R1*%
X166014400Y-74117200D03*
%TO.N,/R2*%
X163474400Y-76657200D03*
%TO.N,/R3*%
X166014400Y-76657200D03*
%TO.N,/R4*%
X163474400Y-79197200D03*
%TO.N,/R5*%
X166014400Y-79197200D03*
%TO.N,/R6*%
X163474400Y-81737200D03*
%TO.N,/R7*%
X166014400Y-81737200D03*
%TO.N,/R8*%
X163474400Y-84277200D03*
%TO.N,/R9*%
X166014400Y-84277200D03*
%TO.N,unconnected-(J3-Pin_11-Pad11)*%
X163474400Y-86817200D03*
%TO.N,GND*%
X166014400Y-86817200D03*
%TO.N,/G0*%
X163474400Y-89357200D03*
%TO.N,/G1*%
X166014400Y-89357200D03*
%TO.N,/G2*%
X163474400Y-91897200D03*
%TO.N,/G3*%
X166014400Y-91897200D03*
%TO.N,/G4*%
X163474400Y-94437200D03*
%TO.N,/G5*%
X166014400Y-94437200D03*
%TO.N,/PCLK*%
X163474400Y-96977200D03*
%TO.N,/G6*%
X166014400Y-96977200D03*
%TO.N,/G7*%
X163474400Y-99517200D03*
%TO.N,/G8*%
X166014400Y-99517200D03*
%TO.N,/G9*%
X163474400Y-102057200D03*
%TO.N,/B0*%
X166014400Y-102057200D03*
%TO.N,/B1*%
X163474400Y-104597200D03*
%TO.N,/B2*%
X166014400Y-104597200D03*
%TO.N,/B3*%
X163474400Y-107137200D03*
%TO.N,/B4*%
X166014400Y-107137200D03*
%TO.N,+3.3V*%
X163474400Y-109677200D03*
%TO.N,GND*%
X166014400Y-109677200D03*
%TO.N,/B5*%
X163474400Y-112217200D03*
%TO.N,/B6*%
X166014400Y-112217200D03*
%TO.N,/B7*%
X163474400Y-114757200D03*
%TO.N,/B8*%
X166014400Y-114757200D03*
%TO.N,/B9*%
X163474400Y-117297200D03*
%TO.N,/BLK*%
X166014400Y-117297200D03*
%TO.N,unconnected-(J3-Pin_37-Pad37)*%
X163474400Y-119837200D03*
%TO.N,unconnected-(J3-Pin_38-Pad38)*%
X166014400Y-119837200D03*
%TO.N,/VSYNC*%
X163474400Y-122377200D03*
%TO.N,/HSYNC*%
X166014400Y-122377200D03*
%TD*%
D12*
%TO.N,GND*%
%TO.C,J1*%
X208280000Y-110214800D03*
X208280000Y-85224800D03*
D13*
%TO.N,unconnected-(J1-Pad15)*%
X210820000Y-102549800D03*
%TO.N,Net-(J1-Pad14)*%
X210820000Y-100259800D03*
%TO.N,Net-(J1-Pad13)*%
X210820000Y-97969800D03*
%TO.N,unconnected-(J1-Pad12)*%
X210820000Y-95679800D03*
%TO.N,unconnected-(J1-Pad11)*%
X210820000Y-93389800D03*
%TO.N,GND*%
X208280000Y-101404800D03*
%TO.N,unconnected-(J1-Pad9)*%
X208280000Y-99114800D03*
%TO.N,GND*%
X208280000Y-96824800D03*
X208280000Y-94534800D03*
X208280000Y-92244800D03*
X205740000Y-102549800D03*
%TO.N,unconnected-(J1-Pad4)*%
X205740000Y-100259800D03*
%TO.N,/BLUE*%
X205740000Y-97969800D03*
%TO.N,/GREEN*%
X205740000Y-95679800D03*
%TO.N,/RED*%
X205740000Y-93389800D03*
%TD*%
D14*
%TO.N,GND*%
X195072000Y-93421200D03*
X201828400Y-95910400D03*
X214223600Y-103022400D03*
X213766400Y-105968800D03*
X215392000Y-106730800D03*
X213512400Y-110439200D03*
X216865200Y-110642400D03*
X213614000Y-114300000D03*
X217220800Y-115976400D03*
X213918800Y-118364000D03*
X214528400Y-120497600D03*
X211683600Y-120243600D03*
X209042000Y-121412000D03*
X206146400Y-119735600D03*
X204774800Y-121107200D03*
X202336400Y-119532400D03*
X199999600Y-121208800D03*
X196850000Y-119583200D03*
X194970400Y-121462800D03*
X192938400Y-119380000D03*
X191566800Y-121208800D03*
X189280800Y-119481600D03*
X187655200Y-121412000D03*
X185318400Y-119684800D03*
X183692800Y-121310400D03*
X181660800Y-119888000D03*
X179374800Y-121310400D03*
X177342800Y-119837200D03*
X175310800Y-121513600D03*
X173177200Y-120091200D03*
X172466000Y-92405200D03*
X170078400Y-92303600D03*
X175056800Y-92303600D03*
X178257200Y-92252800D03*
X178765200Y-95554800D03*
X175717200Y-95504000D03*
X171704000Y-95402400D03*
X169062400Y-95351600D03*
X182575200Y-102108000D03*
X179374800Y-102158800D03*
X176479200Y-102209600D03*
%TO.N,/BLK*%
X187706000Y-99771200D03*
%TO.N,GND*%
X186182000Y-101205100D03*
%TO.N,+3.3V*%
X174904400Y-102006400D03*
%TO.N,/B9*%
X192872900Y-100076000D03*
%TO.N,/B8*%
X191719200Y-99060000D03*
%TO.N,/B7*%
X190957200Y-99872800D03*
%TO.N,/B6*%
X192836800Y-105206800D03*
%TO.N,/B5*%
X191770000Y-105508100D03*
%TO.N,/B4*%
X190784382Y-104861409D03*
%TO.N,/B3*%
X189890400Y-105308400D03*
%TO.N,/B2*%
X188823600Y-105460800D03*
%TO.N,/B1*%
X188214000Y-104394000D03*
%TO.N,/B0*%
X187706000Y-103378000D03*
%TO.N,/G9*%
X181254400Y-99872800D03*
X168402000Y-100685600D03*
%TO.N,/G8*%
X180441600Y-98958400D03*
%TO.N,/G7*%
X182524400Y-98196400D03*
%TO.N,GND*%
X192887600Y-97485200D03*
%TO.N,+3.3V*%
X196748400Y-98501200D03*
X198374000Y-92862400D03*
X196951600Y-91998800D03*
X193548000Y-89052400D03*
%TO.N,GND*%
X195529200Y-89204800D03*
X200710800Y-92862400D03*
X194919600Y-101396800D03*
X199186800Y-102362000D03*
X202031600Y-98653600D03*
%TD*%
D15*
%TO.N,GND*%
X166065200Y-86868000D02*
X168503600Y-86868000D01*
X166014400Y-86817200D02*
X166065200Y-86868000D01*
X167487600Y-88290400D02*
X167538400Y-88290400D01*
X166014400Y-86817200D02*
X167487600Y-88290400D01*
X167233600Y-85598000D02*
X167538400Y-85598000D01*
X166014400Y-86817200D02*
X167233600Y-85598000D01*
X168097200Y-109677200D02*
X168148000Y-109626400D01*
X166014400Y-109677200D02*
X168097200Y-109677200D01*
X166166800Y-109677200D02*
X166014400Y-109677200D01*
X166166800Y-109677200D02*
X167538400Y-108305600D01*
X166116000Y-109677200D02*
X166014400Y-109677200D01*
X166116000Y-109677200D02*
X167182800Y-110744000D01*
%TD*%
%TA.AperFunction,Conductor*%
%TO.N,GND*%
G36*
X206886110Y-101090741D02*
G01*
X206942044Y-101132612D01*
X206966461Y-101198076D01*
X206966305Y-101217730D01*
X206949939Y-101404797D01*
X206949939Y-101404800D01*
X206970145Y-101635758D01*
X206970147Y-101635770D01*
X206974322Y-101651351D01*
X206972657Y-101721201D01*
X206933492Y-101779062D01*
X206869263Y-101806564D01*
X206843739Y-101806968D01*
X206836974Y-101806376D01*
X206388517Y-102254834D01*
X206327194Y-102288319D01*
X206257502Y-102283335D01*
X206201569Y-102241463D01*
X206198486Y-102236550D01*
X206198451Y-102236575D01*
X206193558Y-102229643D01*
X206138661Y-102170864D01*
X206090362Y-102119148D01*
X206055300Y-102097826D01*
X206008248Y-102046174D01*
X205996591Y-101977284D01*
X206024029Y-101913027D01*
X206032048Y-101904197D01*
X206483423Y-101452823D01*
X206481795Y-101434213D01*
X206495561Y-101365713D01*
X206534197Y-101321832D01*
X206595269Y-101279070D01*
X206755099Y-101119239D01*
X206816418Y-101085757D01*
X206886110Y-101090741D01*
G37*
%TD.AperFunction*%
%TA.AperFunction,Conductor*%
G36*
X207250498Y-99962039D02*
G01*
X207265453Y-99974792D01*
X207424731Y-100134070D01*
X207485802Y-100176832D01*
X207529425Y-100231407D01*
X207538204Y-100289211D01*
X207536575Y-100307823D01*
X207986833Y-100758080D01*
X208020318Y-100819403D01*
X208015334Y-100889094D01*
X207977408Y-100941948D01*
X207874262Y-101025864D01*
X207874258Y-101025869D01*
X207823947Y-101097143D01*
X207769204Y-101140560D01*
X207699679Y-101147489D01*
X207637444Y-101115730D01*
X207634962Y-101113315D01*
X207183024Y-100661376D01*
X207176790Y-100661922D01*
X207108290Y-100648155D01*
X207058107Y-100599540D01*
X207042174Y-100531512D01*
X207046209Y-100506299D01*
X207050349Y-100490850D01*
X207070563Y-100259800D01*
X207054244Y-100073277D01*
X207068010Y-100004781D01*
X207116625Y-99954598D01*
X207184654Y-99938664D01*
X207250498Y-99962039D01*
G37*
%TD.AperFunction*%
%TA.AperFunction,Conductor*%
G36*
X209425560Y-99946291D02*
G01*
X209481494Y-99988162D01*
X209505911Y-100053626D01*
X209505755Y-100073280D01*
X209489437Y-100259797D01*
X209489437Y-100259801D01*
X209509650Y-100490844D01*
X209509651Y-100490851D01*
X209513791Y-100506299D01*
X209512128Y-100576149D01*
X209472966Y-100634012D01*
X209408738Y-100661516D01*
X209383210Y-100661921D01*
X209376975Y-100661375D01*
X208928517Y-101109834D01*
X208867194Y-101143319D01*
X208797502Y-101138335D01*
X208741569Y-101096463D01*
X208738486Y-101091550D01*
X208738451Y-101091575D01*
X208733558Y-101084643D01*
X208671975Y-101018705D01*
X208630362Y-100974148D01*
X208595300Y-100952826D01*
X208548248Y-100901174D01*
X208536591Y-100832284D01*
X208564029Y-100768027D01*
X208572048Y-100759197D01*
X209023423Y-100307823D01*
X209021795Y-100289213D01*
X209035561Y-100220713D01*
X209074197Y-100176832D01*
X209135269Y-100134070D01*
X209294549Y-99974789D01*
X209355868Y-99941307D01*
X209425560Y-99946291D01*
G37*
%TD.AperFunction*%
%TA.AperFunction,Conductor*%
G36*
X208922553Y-97113868D02*
G01*
X208925037Y-97116284D01*
X209376975Y-97568223D01*
X209383208Y-97567678D01*
X209451708Y-97581444D01*
X209501891Y-97630060D01*
X209517825Y-97698088D01*
X209513791Y-97723299D01*
X209509652Y-97738744D01*
X209509650Y-97738755D01*
X209489437Y-97969798D01*
X209489437Y-97969802D01*
X209505755Y-98156319D01*
X209491988Y-98224819D01*
X209443373Y-98275002D01*
X209375344Y-98290935D01*
X209309501Y-98267560D01*
X209294546Y-98254807D01*
X209135269Y-98095530D01*
X209074199Y-98052768D01*
X209030574Y-97998191D01*
X209021795Y-97940386D01*
X209023423Y-97921775D01*
X208573166Y-97471518D01*
X208539681Y-97410195D01*
X208544665Y-97340503D01*
X208582588Y-97287653D01*
X208685739Y-97203734D01*
X208736052Y-97132455D01*
X208790793Y-97089039D01*
X208860318Y-97082110D01*
X208922553Y-97113868D01*
G37*
%TD.AperFunction*%
%TA.AperFunction,Conductor*%
G36*
X207762496Y-97091263D02*
G01*
X207818430Y-97133134D01*
X207821514Y-97138049D01*
X207821549Y-97138025D01*
X207826441Y-97144956D01*
X207889629Y-97212613D01*
X207929638Y-97255452D01*
X207964698Y-97276773D01*
X208011749Y-97328423D01*
X208023407Y-97397313D01*
X207995970Y-97461570D01*
X207987950Y-97470401D01*
X207536575Y-97921775D01*
X207538204Y-97940386D01*
X207524438Y-98008886D01*
X207485801Y-98052768D01*
X207424731Y-98095530D01*
X207265453Y-98254808D01*
X207204130Y-98288292D01*
X207134438Y-98283308D01*
X207078505Y-98241436D01*
X207054088Y-98175972D01*
X207054243Y-98156330D01*
X207070563Y-97969800D01*
X207050349Y-97738750D01*
X207046209Y-97723299D01*
X207047870Y-97653452D01*
X207087031Y-97595588D01*
X207151259Y-97568082D01*
X207176793Y-97567677D01*
X207183024Y-97568222D01*
X207631482Y-97119764D01*
X207692805Y-97086279D01*
X207762496Y-97091263D01*
G37*
%TD.AperFunction*%
%TA.AperFunction,Conductor*%
G36*
X207762496Y-94801263D02*
G01*
X207818430Y-94843134D01*
X207821514Y-94848049D01*
X207821549Y-94848025D01*
X207826441Y-94854956D01*
X207929637Y-94965451D01*
X207929638Y-94965452D01*
X207964698Y-94986773D01*
X208011749Y-95038423D01*
X208023407Y-95107313D01*
X207995970Y-95171570D01*
X207987950Y-95180401D01*
X207536575Y-95631775D01*
X207539832Y-95668990D01*
X207539832Y-95690606D01*
X207536575Y-95727822D01*
X207986833Y-96178080D01*
X208020318Y-96239403D01*
X208015334Y-96309095D01*
X207977408Y-96361948D01*
X207874262Y-96445864D01*
X207874258Y-96445869D01*
X207823947Y-96517143D01*
X207769204Y-96560560D01*
X207699679Y-96567489D01*
X207637444Y-96535730D01*
X207634962Y-96533315D01*
X207183024Y-96081376D01*
X207176790Y-96081922D01*
X207108290Y-96068155D01*
X207058107Y-96019540D01*
X207042174Y-95951512D01*
X207046209Y-95926299D01*
X207050349Y-95910850D01*
X207070563Y-95679800D01*
X207069617Y-95668992D01*
X207064074Y-95605625D01*
X207050349Y-95448750D01*
X207046209Y-95433299D01*
X207047870Y-95363452D01*
X207087031Y-95305588D01*
X207151259Y-95278082D01*
X207176793Y-95277677D01*
X207183024Y-95278222D01*
X207631482Y-94829764D01*
X207692805Y-94796279D01*
X207762496Y-94801263D01*
G37*
%TD.AperFunction*%
%TA.AperFunction,Conductor*%
G36*
X208922553Y-94823868D02*
G01*
X208925037Y-94826284D01*
X209376975Y-95278223D01*
X209383208Y-95277678D01*
X209451708Y-95291444D01*
X209501891Y-95340060D01*
X209517825Y-95408088D01*
X209513791Y-95433299D01*
X209509652Y-95448744D01*
X209509650Y-95448755D01*
X209489437Y-95679798D01*
X209489437Y-95679801D01*
X209509650Y-95910844D01*
X209509651Y-95910851D01*
X209513791Y-95926299D01*
X209512128Y-95996149D01*
X209472966Y-96054012D01*
X209408738Y-96081516D01*
X209383210Y-96081921D01*
X209376975Y-96081375D01*
X208928517Y-96529834D01*
X208867194Y-96563319D01*
X208797502Y-96558335D01*
X208741569Y-96516463D01*
X208738486Y-96511550D01*
X208738451Y-96511575D01*
X208733558Y-96504643D01*
X208678661Y-96445864D01*
X208630362Y-96394148D01*
X208595300Y-96372826D01*
X208548248Y-96321174D01*
X208536591Y-96252284D01*
X208564029Y-96188027D01*
X208572048Y-96179197D01*
X209023423Y-95727823D01*
X209020167Y-95690608D01*
X209020167Y-95668992D01*
X209023423Y-95631775D01*
X208573166Y-95181518D01*
X208539681Y-95120195D01*
X208544665Y-95050503D01*
X208582588Y-94997653D01*
X208685739Y-94913734D01*
X208736052Y-94842455D01*
X208790793Y-94799039D01*
X208860318Y-94792110D01*
X208922553Y-94823868D01*
G37*
%TD.AperFunction*%
%TA.AperFunction,Conductor*%
G36*
X207762496Y-92511263D02*
G01*
X207818430Y-92553134D01*
X207821514Y-92558049D01*
X207821549Y-92558025D01*
X207826441Y-92564956D01*
X207926123Y-92671688D01*
X207929638Y-92675452D01*
X207964698Y-92696773D01*
X208011749Y-92748423D01*
X208023407Y-92817313D01*
X207995970Y-92881570D01*
X207987950Y-92890401D01*
X207536575Y-93341775D01*
X207539832Y-93378990D01*
X207539832Y-93400606D01*
X207536575Y-93437822D01*
X207986833Y-93888080D01*
X208020318Y-93949403D01*
X208015334Y-94019095D01*
X207977408Y-94071948D01*
X207874262Y-94155864D01*
X207874258Y-94155869D01*
X207823947Y-94227143D01*
X207769204Y-94270560D01*
X207699679Y-94277489D01*
X207637444Y-94245730D01*
X207634962Y-94243315D01*
X207183024Y-93791376D01*
X207176790Y-93791922D01*
X207108290Y-93778155D01*
X207058107Y-93729540D01*
X207042174Y-93661512D01*
X207046209Y-93636299D01*
X207050349Y-93620850D01*
X207070563Y-93389800D01*
X207050349Y-93158750D01*
X207046209Y-93143299D01*
X207047870Y-93073452D01*
X207087031Y-93015588D01*
X207151259Y-92988082D01*
X207176793Y-92987677D01*
X207183024Y-92988222D01*
X207631482Y-92539764D01*
X207692805Y-92506279D01*
X207762496Y-92511263D01*
G37*
%TD.AperFunction*%
%TA.AperFunction,Conductor*%
G36*
X208922553Y-92533868D02*
G01*
X208925037Y-92536284D01*
X209376975Y-92988223D01*
X209383208Y-92987678D01*
X209451708Y-93001444D01*
X209501891Y-93050060D01*
X209517825Y-93118088D01*
X209513791Y-93143299D01*
X209509652Y-93158744D01*
X209509650Y-93158755D01*
X209489437Y-93389798D01*
X209489437Y-93389801D01*
X209509650Y-93620844D01*
X209509651Y-93620851D01*
X209513791Y-93636299D01*
X209512128Y-93706149D01*
X209472966Y-93764012D01*
X209408738Y-93791516D01*
X209383210Y-93791921D01*
X209376975Y-93791375D01*
X208928517Y-94239834D01*
X208867194Y-94273319D01*
X208797502Y-94268335D01*
X208741569Y-94226463D01*
X208738486Y-94221550D01*
X208738451Y-94221575D01*
X208733558Y-94214643D01*
X208678661Y-94155864D01*
X208630362Y-94104148D01*
X208595300Y-94082826D01*
X208548248Y-94031174D01*
X208536591Y-93962284D01*
X208564029Y-93898027D01*
X208572048Y-93889197D01*
X209023422Y-93437823D01*
X209020166Y-93400600D01*
X209020166Y-93378985D01*
X209023421Y-93341774D01*
X208573165Y-92891518D01*
X208539680Y-92830195D01*
X208544664Y-92760503D01*
X208582588Y-92707653D01*
X208685739Y-92623734D01*
X208736052Y-92552455D01*
X208790793Y-92509039D01*
X208860318Y-92502110D01*
X208922553Y-92533868D01*
G37*
%TD.AperFunction*%
%TA.AperFunction,Conductor*%
G36*
X226815339Y-70936985D02*
G01*
X226861094Y-70989789D01*
X226872300Y-71041300D01*
X226872300Y-125300700D01*
X226852615Y-125367739D01*
X226799811Y-125413494D01*
X226748300Y-125424700D01*
X159788900Y-125424700D01*
X159721861Y-125405015D01*
X159676106Y-125352211D01*
X159664900Y-125300700D01*
X159664900Y-122377200D01*
X162118741Y-122377200D01*
X162139336Y-122612603D01*
X162139338Y-122612613D01*
X162200494Y-122840855D01*
X162200496Y-122840859D01*
X162200497Y-122840863D01*
X162204400Y-122849232D01*
X162300365Y-123055030D01*
X162300367Y-123055034D01*
X162408681Y-123209721D01*
X162435905Y-123248601D01*
X162602999Y-123415695D01*
X162699784Y-123483464D01*
X162796565Y-123551232D01*
X162796567Y-123551233D01*
X162796570Y-123551235D01*
X163010737Y-123651103D01*
X163238992Y-123712263D01*
X163427318Y-123728739D01*
X163474399Y-123732859D01*
X163474400Y-123732859D01*
X163474401Y-123732859D01*
X163513634Y-123729426D01*
X163709808Y-123712263D01*
X163938063Y-123651103D01*
X164152230Y-123551235D01*
X164345801Y-123415695D01*
X164512895Y-123248601D01*
X164642824Y-123063042D01*
X164697402Y-123019417D01*
X164766900Y-123012223D01*
X164829255Y-123043746D01*
X164845975Y-123063042D01*
X164975900Y-123248595D01*
X164975905Y-123248601D01*
X165142999Y-123415695D01*
X165239784Y-123483464D01*
X165336565Y-123551232D01*
X165336567Y-123551233D01*
X165336570Y-123551235D01*
X165550737Y-123651103D01*
X165778992Y-123712263D01*
X165967318Y-123728739D01*
X166014399Y-123732859D01*
X166014400Y-123732859D01*
X166014401Y-123732859D01*
X166053634Y-123729426D01*
X166249808Y-123712263D01*
X166478063Y-123651103D01*
X166692230Y-123551235D01*
X166885801Y-123415695D01*
X167052895Y-123248601D01*
X167188435Y-123055030D01*
X167288303Y-122840863D01*
X167349463Y-122612608D01*
X167370059Y-122377200D01*
X167349463Y-122141792D01*
X167288303Y-121913537D01*
X167188435Y-121699371D01*
X167182825Y-121691358D01*
X167052894Y-121505797D01*
X166885802Y-121338706D01*
X166885796Y-121338701D01*
X166700242Y-121208775D01*
X166656617Y-121154198D01*
X166649423Y-121084700D01*
X166680946Y-121022345D01*
X166700242Y-121005625D01*
X166722426Y-120990091D01*
X166885801Y-120875695D01*
X167052895Y-120708601D01*
X167188435Y-120515030D01*
X167288303Y-120300863D01*
X167349463Y-120072608D01*
X167370059Y-119837200D01*
X167349463Y-119601792D01*
X167288303Y-119373537D01*
X167188435Y-119159371D01*
X167182825Y-119151358D01*
X167052894Y-118965797D01*
X166885802Y-118798706D01*
X166885796Y-118798701D01*
X166700242Y-118668775D01*
X166656617Y-118614198D01*
X166649423Y-118544700D01*
X166680946Y-118482345D01*
X166700242Y-118465625D01*
X166722426Y-118450091D01*
X166885801Y-118335695D01*
X167052895Y-118168601D01*
X167188435Y-117975030D01*
X167288303Y-117760863D01*
X167349463Y-117532608D01*
X167370059Y-117297200D01*
X167349463Y-117061792D01*
X167288303Y-116833537D01*
X167188435Y-116619371D01*
X167182825Y-116611358D01*
X167052894Y-116425797D01*
X166885802Y-116258706D01*
X166885796Y-116258701D01*
X166700242Y-116128775D01*
X166656617Y-116074198D01*
X166649423Y-116004700D01*
X166680946Y-115942345D01*
X166700242Y-115925625D01*
X166722426Y-115910091D01*
X166885801Y-115795695D01*
X167052895Y-115628601D01*
X167188435Y-115435030D01*
X167288303Y-115220863D01*
X167349463Y-114992608D01*
X167370059Y-114757200D01*
X167349463Y-114521792D01*
X167288303Y-114293537D01*
X167188435Y-114079371D01*
X167182825Y-114071358D01*
X167052894Y-113885797D01*
X166885802Y-113718706D01*
X166885796Y-113718701D01*
X166700242Y-113588775D01*
X166656617Y-113534198D01*
X166649423Y-113464700D01*
X166680946Y-113402345D01*
X166700242Y-113385625D01*
X166722426Y-113370091D01*
X166885801Y-113255695D01*
X167052895Y-113088601D01*
X167188435Y-112895030D01*
X167288303Y-112680863D01*
X167349463Y-112452608D01*
X167370059Y-112217200D01*
X167349463Y-111981792D01*
X167288303Y-111753537D01*
X167188435Y-111539371D01*
X167182825Y-111531358D01*
X167052894Y-111345797D01*
X166885802Y-111178706D01*
X166885801Y-111178705D01*
X166699805Y-111048469D01*
X166656181Y-110993892D01*
X166648988Y-110924393D01*
X166680510Y-110862039D01*
X166699805Y-110845319D01*
X166885482Y-110715305D01*
X167052505Y-110548282D01*
X167188000Y-110354778D01*
X167253271Y-110214803D01*
X205375085Y-110214803D01*
X205394727Y-110552040D01*
X205394728Y-110552051D01*
X205453383Y-110884702D01*
X205453385Y-110884711D01*
X205550273Y-111208340D01*
X205684069Y-111518514D01*
X205684075Y-111518527D01*
X205852979Y-111811078D01*
X206054703Y-112082039D01*
X206056890Y-112084355D01*
X206887413Y-111253832D01*
X206948736Y-111220347D01*
X207018427Y-111225331D01*
X207069381Y-111260979D01*
X207145130Y-111349670D01*
X207208855Y-111404096D01*
X207233816Y-111425415D01*
X207272009Y-111483922D01*
X207272507Y-111553790D01*
X207240965Y-111607386D01*
X206413798Y-112434553D01*
X206413799Y-112434554D01*
X206545302Y-112544898D01*
X206827538Y-112730528D01*
X207129414Y-112882136D01*
X207129420Y-112882139D01*
X207446848Y-112997673D01*
X207446869Y-112997680D01*
X207775551Y-113075580D01*
X207775566Y-113075582D01*
X208111100Y-113114799D01*
X208111101Y-113114800D01*
X208448899Y-113114800D01*
X208448899Y-113114799D01*
X208784433Y-113075582D01*
X208784448Y-113075580D01*
X209113130Y-112997680D01*
X209113151Y-112997673D01*
X209430579Y-112882139D01*
X209430585Y-112882136D01*
X209732454Y-112730531D01*
X210014698Y-112544897D01*
X210146199Y-112434554D01*
X210146200Y-112434553D01*
X209319033Y-111607386D01*
X209285548Y-111546063D01*
X209290532Y-111476371D01*
X209326180Y-111425417D01*
X209414870Y-111349670D01*
X209490617Y-111260980D01*
X209549121Y-111222790D01*
X209618989Y-111222290D01*
X209672586Y-111253833D01*
X210503109Y-112084356D01*
X210505291Y-112082044D01*
X210505296Y-112082039D01*
X210707020Y-111811078D01*
X210875924Y-111518527D01*
X210875930Y-111518514D01*
X211009726Y-111208340D01*
X211106614Y-110884711D01*
X211106616Y-110884702D01*
X211165271Y-110552051D01*
X211165272Y-110552040D01*
X211184915Y-110214803D01*
X211184915Y-110214796D01*
X211165272Y-109877559D01*
X211165271Y-109877548D01*
X211106616Y-109544897D01*
X211106614Y-109544888D01*
X211009726Y-109221259D01*
X210875930Y-108911085D01*
X210875924Y-108911072D01*
X210707020Y-108618521D01*
X210505299Y-108347564D01*
X210503109Y-108345243D01*
X209672586Y-109175765D01*
X209611263Y-109209250D01*
X209541571Y-109204266D01*
X209490615Y-109168616D01*
X209469296Y-109143655D01*
X209414870Y-109079930D01*
X209326179Y-109004181D01*
X209287989Y-108945678D01*
X209287489Y-108875810D01*
X209319032Y-108822213D01*
X210146200Y-107995044D01*
X210014695Y-107884700D01*
X210014688Y-107884695D01*
X209732461Y-107699071D01*
X209430585Y-107547463D01*
X209430579Y-107547460D01*
X209113151Y-107431926D01*
X209113130Y-107431919D01*
X208784448Y-107354019D01*
X208784433Y-107354017D01*
X208448899Y-107314800D01*
X208111101Y-107314800D01*
X207775566Y-107354017D01*
X207775551Y-107354019D01*
X207446869Y-107431919D01*
X207446848Y-107431926D01*
X207129420Y-107547460D01*
X207129414Y-107547463D01*
X206827538Y-107699071D01*
X206545311Y-107884695D01*
X206545304Y-107884700D01*
X206413798Y-107995044D01*
X206413798Y-107995045D01*
X207240966Y-108822213D01*
X207274451Y-108883536D01*
X207269467Y-108953228D01*
X207233817Y-109004184D01*
X207145130Y-109079930D01*
X207069384Y-109168617D01*
X207010877Y-109206810D01*
X206941009Y-109207308D01*
X206887413Y-109175766D01*
X206056889Y-108345243D01*
X206054705Y-108347558D01*
X205852979Y-108618521D01*
X205684075Y-108911072D01*
X205684069Y-108911085D01*
X205550273Y-109221259D01*
X205453385Y-109544888D01*
X205453383Y-109544897D01*
X205394728Y-109877548D01*
X205394727Y-109877559D01*
X205375085Y-110214796D01*
X205375085Y-110214803D01*
X167253271Y-110214803D01*
X167287829Y-110140692D01*
X167287832Y-110140686D01*
X167345036Y-109927200D01*
X166627747Y-109927200D01*
X166560708Y-109907515D01*
X166514953Y-109854711D01*
X166505009Y-109785553D01*
X166508769Y-109768267D01*
X166514400Y-109749088D01*
X166514400Y-109605311D01*
X166508769Y-109586133D01*
X166508770Y-109516264D01*
X166546545Y-109457486D01*
X166610101Y-109428462D01*
X166627747Y-109427200D01*
X167345036Y-109427200D01*
X167345035Y-109427199D01*
X167287832Y-109213713D01*
X167287829Y-109213707D01*
X167188000Y-108999622D01*
X167187999Y-108999620D01*
X167052513Y-108806126D01*
X167052508Y-108806120D01*
X166885478Y-108639090D01*
X166699805Y-108509079D01*
X166656180Y-108454502D01*
X166648988Y-108385004D01*
X166680510Y-108322649D01*
X166699806Y-108305930D01*
X166700242Y-108305625D01*
X166885801Y-108175695D01*
X167052895Y-108008601D01*
X167188435Y-107815030D01*
X167288303Y-107600863D01*
X167349463Y-107372608D01*
X167370059Y-107137200D01*
X167349463Y-106901792D01*
X167288303Y-106673537D01*
X167188435Y-106459371D01*
X167182825Y-106451358D01*
X167052894Y-106265797D01*
X166885802Y-106098706D01*
X166885796Y-106098701D01*
X166700242Y-105968775D01*
X166656617Y-105914198D01*
X166649423Y-105844700D01*
X166680946Y-105782345D01*
X166700242Y-105765625D01*
X166866715Y-105649059D01*
X166885801Y-105635695D01*
X167052895Y-105468601D01*
X167188435Y-105275030D01*
X167288303Y-105060863D01*
X167349463Y-104832608D01*
X167370059Y-104597200D01*
X167349463Y-104361792D01*
X167288303Y-104133537D01*
X167188435Y-103919371D01*
X167182825Y-103911358D01*
X167052894Y-103725797D01*
X166885802Y-103558706D01*
X166885796Y-103558701D01*
X166700242Y-103428775D01*
X166659656Y-103378000D01*
X186800540Y-103378000D01*
X186820326Y-103566256D01*
X186820327Y-103566259D01*
X186878818Y-103746277D01*
X186878821Y-103746284D01*
X186973467Y-103910216D01*
X187100129Y-104050888D01*
X187253270Y-104162151D01*
X187253280Y-104162155D01*
X187258605Y-104165230D01*
X187306824Y-104215794D01*
X187320052Y-104284400D01*
X187319934Y-104285582D01*
X187308540Y-104393999D01*
X187308540Y-104394000D01*
X187328326Y-104582256D01*
X187328327Y-104582259D01*
X187386818Y-104762277D01*
X187386821Y-104762284D01*
X187481467Y-104926216D01*
X187564596Y-105018540D01*
X187608129Y-105066888D01*
X187761265Y-105178148D01*
X187761266Y-105178148D01*
X187761270Y-105178151D01*
X187857204Y-105220864D01*
X187910441Y-105266114D01*
X187930762Y-105332963D01*
X187930089Y-105347103D01*
X187925049Y-105395059D01*
X187918140Y-105460800D01*
X187937926Y-105649056D01*
X187937927Y-105649059D01*
X187996418Y-105829077D01*
X187996421Y-105829084D01*
X188091067Y-105993016D01*
X188186230Y-106098705D01*
X188217729Y-106133688D01*
X188370865Y-106244948D01*
X188370870Y-106244951D01*
X188543792Y-106321942D01*
X188543797Y-106321944D01*
X188728954Y-106361300D01*
X188728955Y-106361300D01*
X188918244Y-106361300D01*
X188918246Y-106361300D01*
X189103403Y-106321944D01*
X189276330Y-106244951D01*
X189409776Y-106147996D01*
X189475580Y-106124518D01*
X189533092Y-106135036D01*
X189610597Y-106169544D01*
X189795754Y-106208900D01*
X189795755Y-106208900D01*
X189985044Y-106208900D01*
X189985046Y-106208900D01*
X190170203Y-106169544D01*
X190343130Y-106092551D01*
X190496271Y-105981288D01*
X190622933Y-105840616D01*
X190632578Y-105823910D01*
X190683143Y-105775694D01*
X190739965Y-105761909D01*
X190815534Y-105761909D01*
X190882573Y-105781594D01*
X190928328Y-105834398D01*
X190933465Y-105847590D01*
X190942819Y-105876380D01*
X190942821Y-105876384D01*
X191037467Y-106040316D01*
X191134425Y-106147998D01*
X191164129Y-106180988D01*
X191317265Y-106292248D01*
X191317270Y-106292251D01*
X191490192Y-106369242D01*
X191490197Y-106369244D01*
X191675354Y-106408600D01*
X191675355Y-106408600D01*
X191864644Y-106408600D01*
X191864646Y-106408600D01*
X192049803Y-106369244D01*
X192222730Y-106292251D01*
X192375871Y-106180988D01*
X192442497Y-106106990D01*
X192501983Y-106070343D01*
X192560426Y-106068673D01*
X192742154Y-106107300D01*
X192742155Y-106107300D01*
X192931444Y-106107300D01*
X192931446Y-106107300D01*
X193116603Y-106067944D01*
X193289530Y-105990951D01*
X193442671Y-105879688D01*
X193569333Y-105739016D01*
X193663979Y-105575084D01*
X193722474Y-105395056D01*
X193742260Y-105206800D01*
X193722474Y-105018544D01*
X193663979Y-104838516D01*
X193569333Y-104674584D01*
X193442671Y-104533912D01*
X193429370Y-104524248D01*
X193289534Y-104422651D01*
X193289529Y-104422648D01*
X193116607Y-104345657D01*
X193116602Y-104345655D01*
X192970800Y-104314665D01*
X192931446Y-104306300D01*
X192742154Y-104306300D01*
X192709697Y-104313198D01*
X192556997Y-104345655D01*
X192556992Y-104345657D01*
X192384070Y-104422648D01*
X192384065Y-104422651D01*
X192230935Y-104533906D01*
X192230928Y-104533912D01*
X192164300Y-104607909D01*
X192104813Y-104644557D01*
X192046370Y-104646226D01*
X191889524Y-104612888D01*
X191864646Y-104607600D01*
X191738847Y-104607600D01*
X191671808Y-104587915D01*
X191626053Y-104535111D01*
X191620916Y-104521917D01*
X191611561Y-104493125D01*
X191611559Y-104493121D01*
X191516916Y-104329194D01*
X191390252Y-104188520D01*
X191237116Y-104077260D01*
X191237111Y-104077257D01*
X191064189Y-104000266D01*
X191064184Y-104000264D01*
X190918383Y-103969274D01*
X190879028Y-103960909D01*
X190689736Y-103960909D01*
X190657279Y-103967807D01*
X190504579Y-104000264D01*
X190504574Y-104000266D01*
X190331652Y-104077257D01*
X190331647Y-104077260D01*
X190178511Y-104188520D01*
X190051848Y-104329194D01*
X190042203Y-104345900D01*
X189991637Y-104394115D01*
X189934816Y-104407900D01*
X189795754Y-104407900D01*
X189763297Y-104414798D01*
X189610597Y-104447255D01*
X189610592Y-104447257D01*
X189437671Y-104524248D01*
X189304226Y-104621201D01*
X189238419Y-104644680D01*
X189180918Y-104634167D01*
X189180408Y-104633940D01*
X189127166Y-104588696D01*
X189106837Y-104521849D01*
X189107509Y-104507704D01*
X189119460Y-104394000D01*
X189099674Y-104205744D01*
X189041179Y-104025716D01*
X188946533Y-103861784D01*
X188819871Y-103721112D01*
X188819870Y-103721111D01*
X188666731Y-103609849D01*
X188661384Y-103606762D01*
X188613169Y-103556194D01*
X188599948Y-103487586D01*
X188600065Y-103486415D01*
X188606123Y-103428775D01*
X188611460Y-103378000D01*
X188591674Y-103189744D01*
X188533179Y-103009716D01*
X188438533Y-102845784D01*
X188311871Y-102705112D01*
X188311870Y-102705111D01*
X188158734Y-102593851D01*
X188158729Y-102593848D01*
X187985807Y-102516857D01*
X187985802Y-102516855D01*
X187840001Y-102485865D01*
X187800646Y-102477500D01*
X187611354Y-102477500D01*
X187578897Y-102484398D01*
X187426197Y-102516855D01*
X187426192Y-102516857D01*
X187253270Y-102593848D01*
X187253265Y-102593851D01*
X187100129Y-102705111D01*
X186973466Y-102845785D01*
X186878821Y-103009715D01*
X186878818Y-103009722D01*
X186838050Y-103135195D01*
X186820326Y-103189744D01*
X186800540Y-103378000D01*
X166659656Y-103378000D01*
X166656617Y-103374198D01*
X166649423Y-103304700D01*
X166680946Y-103242345D01*
X166700242Y-103225625D01*
X166829389Y-103135195D01*
X166885801Y-103095695D01*
X167052895Y-102928601D01*
X167188435Y-102735030D01*
X167288303Y-102520863D01*
X167349463Y-102292608D01*
X167370059Y-102057200D01*
X167365614Y-102006400D01*
X173998940Y-102006400D01*
X174018726Y-102194656D01*
X174018727Y-102194659D01*
X174077218Y-102374677D01*
X174077221Y-102374684D01*
X174171867Y-102538616D01*
X174221601Y-102593851D01*
X174298529Y-102679288D01*
X174451665Y-102790548D01*
X174451670Y-102790551D01*
X174624592Y-102867542D01*
X174624597Y-102867544D01*
X174809754Y-102906900D01*
X174809755Y-102906900D01*
X174999044Y-102906900D01*
X174999046Y-102906900D01*
X175184203Y-102867544D01*
X175357130Y-102790551D01*
X175510271Y-102679288D01*
X175636933Y-102538616D01*
X175731579Y-102374684D01*
X175790074Y-102194656D01*
X175809860Y-102006400D01*
X175790074Y-101818144D01*
X175731579Y-101638116D01*
X175636933Y-101474184D01*
X175510271Y-101333512D01*
X175510270Y-101333511D01*
X175357134Y-101222251D01*
X175357129Y-101222248D01*
X175184207Y-101145257D01*
X175184202Y-101145255D01*
X175017554Y-101109834D01*
X174999046Y-101105900D01*
X174809754Y-101105900D01*
X174791246Y-101109834D01*
X174624597Y-101145255D01*
X174624592Y-101145257D01*
X174451670Y-101222248D01*
X174451665Y-101222251D01*
X174298529Y-101333511D01*
X174171866Y-101474185D01*
X174077221Y-101638115D01*
X174077218Y-101638122D01*
X174022357Y-101806968D01*
X174018726Y-101818144D01*
X173998940Y-102006400D01*
X167365614Y-102006400D01*
X167349463Y-101821792D01*
X167300248Y-101638116D01*
X167288305Y-101593544D01*
X167288304Y-101593543D01*
X167288303Y-101593537D01*
X167188435Y-101379371D01*
X167182825Y-101371358D01*
X167052894Y-101185797D01*
X166885802Y-101018706D01*
X166885796Y-101018701D01*
X166700242Y-100888775D01*
X166656617Y-100834198D01*
X166649423Y-100764700D01*
X166680946Y-100702345D01*
X166700242Y-100685625D01*
X166700278Y-100685600D01*
X167496540Y-100685600D01*
X167516326Y-100873856D01*
X167516327Y-100873859D01*
X167574818Y-101053877D01*
X167574821Y-101053884D01*
X167669467Y-101217816D01*
X167795512Y-101357803D01*
X167796129Y-101358488D01*
X167949265Y-101469748D01*
X167949270Y-101469751D01*
X168122192Y-101546742D01*
X168122197Y-101546744D01*
X168307354Y-101586100D01*
X168307355Y-101586100D01*
X168496644Y-101586100D01*
X168496646Y-101586100D01*
X168681803Y-101546744D01*
X168854730Y-101469751D01*
X169007871Y-101358488D01*
X169134533Y-101217816D01*
X169229179Y-101053884D01*
X169287674Y-100873856D01*
X169307460Y-100685600D01*
X169287674Y-100497344D01*
X169229179Y-100317316D01*
X169134533Y-100153384D01*
X169007871Y-100012712D01*
X168996955Y-100004781D01*
X168854734Y-99901451D01*
X168854729Y-99901448D01*
X168681807Y-99824457D01*
X168681802Y-99824455D01*
X168536000Y-99793465D01*
X168496646Y-99785100D01*
X168307354Y-99785100D01*
X168274897Y-99791998D01*
X168122197Y-99824455D01*
X168122192Y-99824457D01*
X167949270Y-99901448D01*
X167949265Y-99901451D01*
X167796129Y-100012711D01*
X167669466Y-100153385D01*
X167574821Y-100317315D01*
X167574818Y-100317322D01*
X167516327Y-100497340D01*
X167516326Y-100497344D01*
X167496540Y-100685600D01*
X166700278Y-100685600D01*
X166734874Y-100661375D01*
X166885801Y-100555695D01*
X167052895Y-100388601D01*
X167188435Y-100195030D01*
X167288303Y-99980863D01*
X167349463Y-99752608D01*
X167370059Y-99517200D01*
X167349463Y-99281792D01*
X167292126Y-99067803D01*
X167288305Y-99053544D01*
X167288304Y-99053543D01*
X167288303Y-99053537D01*
X167243940Y-98958400D01*
X179536140Y-98958400D01*
X179555926Y-99146656D01*
X179555927Y-99146659D01*
X179614418Y-99326677D01*
X179614421Y-99326684D01*
X179709067Y-99490616D01*
X179802621Y-99594518D01*
X179835729Y-99631288D01*
X179988865Y-99742548D01*
X179988870Y-99742551D01*
X180161792Y-99819542D01*
X180161793Y-99819542D01*
X180161797Y-99819544D01*
X180252346Y-99838790D01*
X180259367Y-99840283D01*
X180320849Y-99873475D01*
X180354626Y-99934638D01*
X180356907Y-99948608D01*
X180368726Y-100061056D01*
X180368727Y-100061059D01*
X180427218Y-100241077D01*
X180427221Y-100241084D01*
X180521867Y-100405016D01*
X180604996Y-100497340D01*
X180648529Y-100545688D01*
X180801665Y-100656948D01*
X180801670Y-100656951D01*
X180974592Y-100733942D01*
X180974597Y-100733944D01*
X181159754Y-100773300D01*
X181159755Y-100773300D01*
X181349044Y-100773300D01*
X181349046Y-100773300D01*
X181534203Y-100733944D01*
X181707130Y-100656951D01*
X181860271Y-100545688D01*
X181986933Y-100405016D01*
X182081579Y-100241084D01*
X182140074Y-100061056D01*
X182159860Y-99872800D01*
X182149182Y-99771200D01*
X186800540Y-99771200D01*
X186820326Y-99959456D01*
X186820327Y-99959459D01*
X186878818Y-100139477D01*
X186878821Y-100139484D01*
X186973467Y-100303416D01*
X187083076Y-100425149D01*
X187100129Y-100444088D01*
X187253265Y-100555348D01*
X187253270Y-100555351D01*
X187426192Y-100632342D01*
X187426197Y-100632344D01*
X187611354Y-100671700D01*
X187611355Y-100671700D01*
X187800644Y-100671700D01*
X187800646Y-100671700D01*
X187985803Y-100632344D01*
X188158730Y-100555351D01*
X188311871Y-100444088D01*
X188438533Y-100303416D01*
X188533179Y-100139484D01*
X188591674Y-99959456D01*
X188600782Y-99872800D01*
X190051740Y-99872800D01*
X190071526Y-100061056D01*
X190071527Y-100061059D01*
X190130018Y-100241077D01*
X190130021Y-100241084D01*
X190224667Y-100405016D01*
X190307796Y-100497340D01*
X190351329Y-100545688D01*
X190504465Y-100656948D01*
X190504470Y-100656951D01*
X190677392Y-100733942D01*
X190677397Y-100733944D01*
X190862554Y-100773300D01*
X190862555Y-100773300D01*
X191051844Y-100773300D01*
X191051846Y-100773300D01*
X191237003Y-100733944D01*
X191409930Y-100656951D01*
X191563071Y-100545688D01*
X191689733Y-100405016D01*
X191770106Y-100265804D01*
X191820672Y-100217590D01*
X191889279Y-100204366D01*
X191954144Y-100230334D01*
X191994673Y-100287248D01*
X191995424Y-100289487D01*
X192045718Y-100444277D01*
X192045721Y-100444284D01*
X192140367Y-100608216D01*
X192236403Y-100714874D01*
X192267029Y-100748888D01*
X192420165Y-100860148D01*
X192420170Y-100860151D01*
X192593092Y-100937142D01*
X192593097Y-100937144D01*
X192778254Y-100976500D01*
X192778255Y-100976500D01*
X192967544Y-100976500D01*
X192967546Y-100976500D01*
X193152703Y-100937144D01*
X193325630Y-100860151D01*
X193478771Y-100748888D01*
X193605433Y-100608216D01*
X193700079Y-100444284D01*
X193758574Y-100264256D01*
X193759042Y-100259801D01*
X204409437Y-100259801D01*
X204429650Y-100490844D01*
X204429651Y-100490851D01*
X204489678Y-100714874D01*
X204489679Y-100714876D01*
X204489680Y-100714879D01*
X204587699Y-100925082D01*
X204720730Y-101115069D01*
X204884731Y-101279070D01*
X204945802Y-101321832D01*
X204989425Y-101376407D01*
X204998204Y-101434211D01*
X204996575Y-101452823D01*
X205446833Y-101903080D01*
X205480318Y-101964403D01*
X205475334Y-102034094D01*
X205437408Y-102086948D01*
X205334262Y-102170864D01*
X205334258Y-102170869D01*
X205283947Y-102242143D01*
X205229204Y-102285560D01*
X205159679Y-102292489D01*
X205097444Y-102260730D01*
X205094962Y-102258315D01*
X204643024Y-101806376D01*
X204643024Y-101806377D01*
X204588133Y-101884769D01*
X204588132Y-101884771D01*
X204490152Y-102094890D01*
X204490148Y-102094899D01*
X204430147Y-102318831D01*
X204430145Y-102318841D01*
X204409939Y-102549799D01*
X204409939Y-102549800D01*
X204430145Y-102780758D01*
X204430147Y-102780768D01*
X204490148Y-103004700D01*
X204490152Y-103004709D01*
X204588132Y-103214829D01*
X204588133Y-103214831D01*
X204643023Y-103293222D01*
X204643023Y-103293223D01*
X205091482Y-102844764D01*
X205152805Y-102811279D01*
X205222496Y-102816263D01*
X205278430Y-102858134D01*
X205281514Y-102863049D01*
X205281549Y-102863025D01*
X205286441Y-102869956D01*
X205389637Y-102980451D01*
X205389638Y-102980452D01*
X205424698Y-103001773D01*
X205471749Y-103053423D01*
X205483407Y-103122313D01*
X205455970Y-103186570D01*
X205447950Y-103195401D01*
X204996575Y-103646775D01*
X205074968Y-103701666D01*
X205074970Y-103701667D01*
X205285090Y-103799647D01*
X205285099Y-103799651D01*
X205509031Y-103859652D01*
X205509041Y-103859654D01*
X205739999Y-103879861D01*
X205740001Y-103879861D01*
X205970958Y-103859654D01*
X205970968Y-103859652D01*
X206194900Y-103799651D01*
X206194909Y-103799647D01*
X206405030Y-103701667D01*
X206483423Y-103646775D01*
X206033166Y-103196518D01*
X205999681Y-103135195D01*
X206004665Y-103065503D01*
X206042588Y-103012653D01*
X206145739Y-102928734D01*
X206196052Y-102857455D01*
X206250793Y-102814039D01*
X206320318Y-102807110D01*
X206382553Y-102838868D01*
X206385037Y-102841284D01*
X206836975Y-103293223D01*
X206891867Y-103214830D01*
X206989847Y-103004709D01*
X206989851Y-103004700D01*
X207049852Y-102780768D01*
X207049854Y-102780758D01*
X207070060Y-102549800D01*
X207070060Y-102549799D01*
X207049854Y-102318841D01*
X207049852Y-102318831D01*
X207045678Y-102303252D01*
X207047341Y-102233402D01*
X207086504Y-102175540D01*
X207150732Y-102148036D01*
X207176262Y-102147631D01*
X207183024Y-102148222D01*
X207631482Y-101699764D01*
X207692805Y-101666279D01*
X207762496Y-101671263D01*
X207818430Y-101713134D01*
X207821514Y-101718049D01*
X207821549Y-101718025D01*
X207826441Y-101724956D01*
X207903036Y-101806968D01*
X207929638Y-101835452D01*
X207964698Y-101856773D01*
X208011749Y-101908423D01*
X208023407Y-101977313D01*
X207995970Y-102041570D01*
X207987950Y-102050401D01*
X207536575Y-102501775D01*
X207614968Y-102556666D01*
X207614970Y-102556667D01*
X207825090Y-102654647D01*
X207825099Y-102654651D01*
X208049031Y-102714652D01*
X208049041Y-102714654D01*
X208279999Y-102734861D01*
X208280001Y-102734861D01*
X208510958Y-102714654D01*
X208510968Y-102714652D01*
X208734900Y-102654651D01*
X208734909Y-102654647D01*
X208945030Y-102556667D01*
X209023423Y-102501775D01*
X208573166Y-102051518D01*
X208539681Y-101990195D01*
X208544665Y-101920503D01*
X208582588Y-101867653D01*
X208685739Y-101783734D01*
X208736052Y-101712455D01*
X208790793Y-101669039D01*
X208860318Y-101662110D01*
X208922553Y-101693868D01*
X208925037Y-101696284D01*
X209376975Y-102148223D01*
X209383208Y-102147678D01*
X209451708Y-102161444D01*
X209501891Y-102210060D01*
X209517825Y-102278088D01*
X209513791Y-102303299D01*
X209509652Y-102318744D01*
X209509650Y-102318755D01*
X209489437Y-102549798D01*
X209489437Y-102549801D01*
X209509650Y-102780844D01*
X209509651Y-102780851D01*
X209569678Y-103004874D01*
X209569679Y-103004876D01*
X209569680Y-103004879D01*
X209667699Y-103215082D01*
X209800730Y-103405069D01*
X209964731Y-103569070D01*
X210154718Y-103702101D01*
X210364921Y-103800120D01*
X210588950Y-103860149D01*
X210753985Y-103874587D01*
X210819998Y-103880363D01*
X210820000Y-103880363D01*
X210820002Y-103880363D01*
X210877762Y-103875309D01*
X211051050Y-103860149D01*
X211275079Y-103800120D01*
X211485282Y-103702101D01*
X211675269Y-103569070D01*
X211839270Y-103405069D01*
X211972301Y-103215082D01*
X212070320Y-103004879D01*
X212130349Y-102780850D01*
X212150563Y-102549800D01*
X212149584Y-102538614D01*
X212140681Y-102436847D01*
X212130349Y-102318750D01*
X212070320Y-102094721D01*
X211972301Y-101884519D01*
X211972299Y-101884516D01*
X211972298Y-101884514D01*
X211839273Y-101694535D01*
X211839268Y-101694529D01*
X211675270Y-101530531D01*
X211675264Y-101530526D01*
X211640772Y-101506375D01*
X211597147Y-101451799D01*
X211589953Y-101382301D01*
X211621475Y-101319946D01*
X211640772Y-101303225D01*
X211675269Y-101279070D01*
X211839270Y-101115069D01*
X211972301Y-100925082D01*
X212070320Y-100714879D01*
X212130349Y-100490850D01*
X212150563Y-100259800D01*
X212130349Y-100028750D01*
X212070320Y-99804721D01*
X211972301Y-99594519D01*
X211972299Y-99594516D01*
X211972298Y-99594514D01*
X211839273Y-99404535D01*
X211839268Y-99404529D01*
X211675272Y-99240533D01*
X211675269Y-99240530D01*
X211640770Y-99216373D01*
X211597146Y-99161795D01*
X211589954Y-99092297D01*
X211621477Y-99029943D01*
X211640765Y-99013229D01*
X211675269Y-98989070D01*
X211839270Y-98825069D01*
X211972301Y-98635082D01*
X212070320Y-98424879D01*
X212130349Y-98200850D01*
X212150563Y-97969800D01*
X212130349Y-97738750D01*
X212070320Y-97514721D01*
X211972301Y-97304519D01*
X211972299Y-97304516D01*
X211972298Y-97304514D01*
X211839273Y-97114535D01*
X211839268Y-97114529D01*
X211675272Y-96950533D01*
X211675269Y-96950530D01*
X211640770Y-96926373D01*
X211597146Y-96871795D01*
X211589954Y-96802297D01*
X211621477Y-96739943D01*
X211640765Y-96723229D01*
X211675269Y-96699070D01*
X211839270Y-96535069D01*
X211972301Y-96345082D01*
X212070320Y-96134879D01*
X212130349Y-95910850D01*
X212150563Y-95679800D01*
X212149617Y-95668992D01*
X212144074Y-95605625D01*
X212130349Y-95448750D01*
X212070320Y-95224721D01*
X211972301Y-95014519D01*
X211972299Y-95014516D01*
X211972298Y-95014514D01*
X211839273Y-94824535D01*
X211839268Y-94824529D01*
X211675270Y-94660531D01*
X211675264Y-94660526D01*
X211640772Y-94636375D01*
X211597147Y-94581799D01*
X211589953Y-94512301D01*
X211621475Y-94449946D01*
X211640772Y-94433225D01*
X211640776Y-94433222D01*
X211675269Y-94409070D01*
X211839270Y-94245069D01*
X211972301Y-94055082D01*
X212070320Y-93844879D01*
X212130349Y-93620850D01*
X212150563Y-93389800D01*
X212130349Y-93158750D01*
X212070320Y-92934721D01*
X211972301Y-92724519D01*
X211972299Y-92724516D01*
X211972298Y-92724514D01*
X211839273Y-92534535D01*
X211839268Y-92534529D01*
X211675269Y-92370530D01*
X211657022Y-92357753D01*
X211485282Y-92237499D01*
X211275079Y-92139480D01*
X211275076Y-92139479D01*
X211275074Y-92139478D01*
X211051051Y-92079451D01*
X211051044Y-92079450D01*
X210820002Y-92059237D01*
X210819998Y-92059237D01*
X210588955Y-92079450D01*
X210588948Y-92079451D01*
X210364917Y-92139481D01*
X210154718Y-92237499D01*
X210154714Y-92237501D01*
X209964735Y-92370526D01*
X209804903Y-92530358D01*
X209743580Y-92563842D01*
X209673888Y-92558858D01*
X209617955Y-92516986D01*
X209593538Y-92451522D01*
X209593694Y-92431868D01*
X209610060Y-92244800D01*
X209610060Y-92244799D01*
X209589854Y-92013841D01*
X209589852Y-92013831D01*
X209529851Y-91789899D01*
X209529847Y-91789890D01*
X209431868Y-91579772D01*
X209376974Y-91501376D01*
X208928517Y-91949834D01*
X208867194Y-91983319D01*
X208797502Y-91978335D01*
X208741569Y-91936463D01*
X208738486Y-91931550D01*
X208738451Y-91931575D01*
X208733558Y-91924643D01*
X208678661Y-91865864D01*
X208630362Y-91814148D01*
X208595300Y-91792826D01*
X208548248Y-91741174D01*
X208536591Y-91672284D01*
X208564029Y-91608027D01*
X208572048Y-91599197D01*
X209023423Y-91147823D01*
X208945031Y-91092933D01*
X208945029Y-91092932D01*
X208734909Y-90994952D01*
X208734900Y-90994948D01*
X208510968Y-90934947D01*
X208510958Y-90934945D01*
X208280001Y-90914739D01*
X208279999Y-90914739D01*
X208049041Y-90934945D01*
X208049031Y-90934947D01*
X207825099Y-90994948D01*
X207825090Y-90994952D01*
X207614971Y-91092932D01*
X207614969Y-91092933D01*
X207536577Y-91147824D01*
X207536576Y-91147824D01*
X207986833Y-91598080D01*
X208020318Y-91659403D01*
X208015334Y-91729094D01*
X207977408Y-91781948D01*
X207874262Y-91865864D01*
X207874258Y-91865869D01*
X207823947Y-91937143D01*
X207769204Y-91980560D01*
X207699679Y-91987489D01*
X207637444Y-91955730D01*
X207634962Y-91953315D01*
X207183024Y-91501376D01*
X207183024Y-91501377D01*
X207128133Y-91579769D01*
X207128132Y-91579771D01*
X207030152Y-91789890D01*
X207030148Y-91789899D01*
X206970147Y-92013831D01*
X206970145Y-92013841D01*
X206949939Y-92244799D01*
X206949939Y-92244802D01*
X206966305Y-92431869D01*
X206952538Y-92500369D01*
X206903923Y-92550552D01*
X206835894Y-92566485D01*
X206770051Y-92543110D01*
X206755096Y-92530357D01*
X206595269Y-92370530D01*
X206577022Y-92357753D01*
X206405282Y-92237499D01*
X206195079Y-92139480D01*
X206195076Y-92139479D01*
X206195074Y-92139478D01*
X205971051Y-92079451D01*
X205971044Y-92079450D01*
X205740002Y-92059237D01*
X205739998Y-92059237D01*
X205508955Y-92079450D01*
X205508948Y-92079451D01*
X205284917Y-92139481D01*
X205074718Y-92237499D01*
X205074714Y-92237501D01*
X204884735Y-92370526D01*
X204884729Y-92370531D01*
X204720731Y-92534529D01*
X204720726Y-92534535D01*
X204587701Y-92724514D01*
X204587699Y-92724518D01*
X204489681Y-92934717D01*
X204429651Y-93158748D01*
X204429650Y-93158755D01*
X204409437Y-93389798D01*
X204409437Y-93389801D01*
X204429650Y-93620844D01*
X204429651Y-93620851D01*
X204489678Y-93844874D01*
X204489679Y-93844876D01*
X204489680Y-93844879D01*
X204587699Y-94055082D01*
X204720730Y-94245069D01*
X204884731Y-94409070D01*
X204884737Y-94409074D01*
X204884738Y-94409075D01*
X204919228Y-94433226D01*
X204962853Y-94487803D01*
X204970045Y-94557302D01*
X204938522Y-94619656D01*
X204919228Y-94636374D01*
X204884738Y-94660524D01*
X204884727Y-94660533D01*
X204720731Y-94824529D01*
X204720726Y-94824535D01*
X204587701Y-95014514D01*
X204587699Y-95014518D01*
X204489681Y-95224717D01*
X204429651Y-95448748D01*
X204429650Y-95448755D01*
X204409437Y-95679798D01*
X204409437Y-95679801D01*
X204429650Y-95910844D01*
X204429651Y-95910851D01*
X204489678Y-96134874D01*
X204489679Y-96134876D01*
X204489680Y-96134879D01*
X204587699Y-96345082D01*
X204720730Y-96535069D01*
X204884731Y-96699070D01*
X204884737Y-96699074D01*
X204884738Y-96699075D01*
X204919228Y-96723226D01*
X204962853Y-96777803D01*
X204970045Y-96847302D01*
X204938522Y-96909656D01*
X204919228Y-96926374D01*
X204884738Y-96950524D01*
X204884727Y-96950533D01*
X204720731Y-97114529D01*
X204720726Y-97114535D01*
X204587701Y-97304514D01*
X204587699Y-97304518D01*
X204489681Y-97514717D01*
X204429651Y-97738748D01*
X204429650Y-97738755D01*
X204409437Y-97969798D01*
X204409437Y-97969801D01*
X204429650Y-98200844D01*
X204429651Y-98200851D01*
X204489678Y-98424874D01*
X204489679Y-98424876D01*
X204489680Y-98424879D01*
X204587699Y-98635082D01*
X204720730Y-98825069D01*
X204884731Y-98989070D01*
X204884737Y-98989074D01*
X204884738Y-98989075D01*
X204919228Y-99013226D01*
X204962853Y-99067803D01*
X204970045Y-99137302D01*
X204938522Y-99199656D01*
X204919228Y-99216374D01*
X204884738Y-99240524D01*
X204884727Y-99240533D01*
X204720731Y-99404529D01*
X204720726Y-99404535D01*
X204587701Y-99594514D01*
X204587699Y-99594518D01*
X204489681Y-99804717D01*
X204429651Y-100028748D01*
X204429650Y-100028755D01*
X204409437Y-100259798D01*
X204409437Y-100259801D01*
X193759042Y-100259801D01*
X193778360Y-100076000D01*
X193758574Y-99887744D01*
X193700079Y-99707716D01*
X193605433Y-99543784D01*
X193478771Y-99403112D01*
X193478770Y-99403111D01*
X193325634Y-99291851D01*
X193325629Y-99291848D01*
X193152707Y-99214857D01*
X193152702Y-99214855D01*
X193006901Y-99183865D01*
X192967546Y-99175500D01*
X192778254Y-99175500D01*
X192774433Y-99176312D01*
X192772172Y-99176139D01*
X192771796Y-99176179D01*
X192771788Y-99176110D01*
X192704766Y-99170991D01*
X192649035Y-99128851D01*
X192626080Y-99066385D01*
X192625339Y-99066463D01*
X192625030Y-99063529D01*
X192624935Y-99063269D01*
X192624903Y-99062317D01*
X192624659Y-99060002D01*
X192624660Y-99060000D01*
X192604874Y-98871744D01*
X192546379Y-98691716D01*
X192451733Y-98527784D01*
X192427797Y-98501200D01*
X195842940Y-98501200D01*
X195862726Y-98689456D01*
X195862727Y-98689459D01*
X195921218Y-98869477D01*
X195921221Y-98869484D01*
X196015867Y-99033416D01*
X196109407Y-99137302D01*
X196142529Y-99174088D01*
X196295665Y-99285348D01*
X196295670Y-99285351D01*
X196468592Y-99362342D01*
X196468597Y-99362344D01*
X196653754Y-99401700D01*
X196653755Y-99401700D01*
X196843044Y-99401700D01*
X196843046Y-99401700D01*
X197028203Y-99362344D01*
X197201130Y-99285351D01*
X197354271Y-99174088D01*
X197480933Y-99033416D01*
X197575579Y-98869484D01*
X197634074Y-98689456D01*
X197653860Y-98501200D01*
X197634074Y-98312944D01*
X197575579Y-98132916D01*
X197480933Y-97968984D01*
X197354271Y-97828312D01*
X197354270Y-97828311D01*
X197201134Y-97717051D01*
X197201129Y-97717048D01*
X197028207Y-97640057D01*
X197028202Y-97640055D01*
X196882400Y-97609065D01*
X196843046Y-97600700D01*
X196653754Y-97600700D01*
X196621297Y-97607598D01*
X196468597Y-97640055D01*
X196468592Y-97640057D01*
X196295670Y-97717048D01*
X196295665Y-97717051D01*
X196142529Y-97828311D01*
X196015866Y-97968985D01*
X195921221Y-98132915D01*
X195921218Y-98132922D01*
X195871639Y-98285512D01*
X195862726Y-98312944D01*
X195842940Y-98501200D01*
X192427797Y-98501200D01*
X192325071Y-98387112D01*
X192321691Y-98384656D01*
X192171934Y-98275851D01*
X192171929Y-98275848D01*
X191999007Y-98198857D01*
X191999002Y-98198855D01*
X191853200Y-98167865D01*
X191813846Y-98159500D01*
X191624554Y-98159500D01*
X191592097Y-98166398D01*
X191439397Y-98198855D01*
X191439392Y-98198857D01*
X191266470Y-98275848D01*
X191266465Y-98275851D01*
X191113329Y-98387111D01*
X190986666Y-98527785D01*
X190892021Y-98691715D01*
X190892018Y-98691722D01*
X190833527Y-98871739D01*
X190833525Y-98871748D01*
X190831468Y-98891316D01*
X190804881Y-98955929D01*
X190747582Y-98995912D01*
X190733930Y-98999639D01*
X190677396Y-99011656D01*
X190677392Y-99011657D01*
X190504470Y-99088648D01*
X190504465Y-99088651D01*
X190351329Y-99199911D01*
X190224666Y-99340585D01*
X190130021Y-99504515D01*
X190130018Y-99504522D01*
X190088830Y-99631288D01*
X190071526Y-99684544D01*
X190051740Y-99872800D01*
X188600782Y-99872800D01*
X188611460Y-99771200D01*
X188591674Y-99582944D01*
X188533179Y-99402916D01*
X188438533Y-99238984D01*
X188311871Y-99098312D01*
X188269879Y-99067803D01*
X188158734Y-98987051D01*
X188158729Y-98987048D01*
X187985807Y-98910057D01*
X187985802Y-98910055D01*
X187840000Y-98879065D01*
X187800646Y-98870700D01*
X187611354Y-98870700D01*
X187578897Y-98877598D01*
X187426197Y-98910055D01*
X187426192Y-98910057D01*
X187253270Y-98987048D01*
X187253265Y-98987051D01*
X187100129Y-99098311D01*
X186973466Y-99238985D01*
X186878821Y-99402915D01*
X186878818Y-99402922D01*
X186824571Y-99569879D01*
X186820326Y-99582944D01*
X186800540Y-99771200D01*
X182149182Y-99771200D01*
X182140074Y-99684544D01*
X182081579Y-99504516D01*
X181986933Y-99340584D01*
X181860271Y-99199912D01*
X181859919Y-99199656D01*
X181707134Y-99088651D01*
X181707129Y-99088648D01*
X181534207Y-99011657D01*
X181534202Y-99011655D01*
X181436631Y-98990916D01*
X181375149Y-98957723D01*
X181341373Y-98896560D01*
X181339093Y-98882603D01*
X181327274Y-98770144D01*
X181268779Y-98590116D01*
X181174133Y-98426184D01*
X181047471Y-98285512D01*
X181047470Y-98285511D01*
X180924819Y-98196400D01*
X181618940Y-98196400D01*
X181638726Y-98384656D01*
X181638727Y-98384659D01*
X181697218Y-98564677D01*
X181697221Y-98564684D01*
X181791867Y-98728616D01*
X181891590Y-98839369D01*
X181918529Y-98869288D01*
X182071665Y-98980548D01*
X182071670Y-98980551D01*
X182244592Y-99057542D01*
X182244597Y-99057544D01*
X182429754Y-99096900D01*
X182429755Y-99096900D01*
X182619044Y-99096900D01*
X182619046Y-99096900D01*
X182804203Y-99057544D01*
X182977130Y-98980551D01*
X183130271Y-98869288D01*
X183256933Y-98728616D01*
X183351579Y-98564684D01*
X183410074Y-98384656D01*
X183429860Y-98196400D01*
X183410074Y-98008144D01*
X183351579Y-97828116D01*
X183256933Y-97664184D01*
X183130271Y-97523512D01*
X183130270Y-97523511D01*
X182977134Y-97412251D01*
X182977129Y-97412248D01*
X182804207Y-97335257D01*
X182804202Y-97335255D01*
X182634331Y-97299149D01*
X182619046Y-97295900D01*
X182429754Y-97295900D01*
X182414469Y-97299149D01*
X182244597Y-97335255D01*
X182244592Y-97335257D01*
X182071670Y-97412248D01*
X182071665Y-97412251D01*
X181918529Y-97523511D01*
X181791866Y-97664185D01*
X181697221Y-97828115D01*
X181697218Y-97828122D01*
X181651184Y-97969801D01*
X181638726Y-98008144D01*
X181618940Y-98196400D01*
X180924819Y-98196400D01*
X180894334Y-98174251D01*
X180894329Y-98174248D01*
X180721407Y-98097257D01*
X180721402Y-98097255D01*
X180575600Y-98066265D01*
X180536246Y-98057900D01*
X180346954Y-98057900D01*
X180314497Y-98064798D01*
X180161797Y-98097255D01*
X180161792Y-98097257D01*
X179988870Y-98174248D01*
X179988865Y-98174251D01*
X179835729Y-98285511D01*
X179709066Y-98426185D01*
X179614421Y-98590115D01*
X179614418Y-98590122D01*
X179569420Y-98728614D01*
X179555926Y-98770144D01*
X179536140Y-98958400D01*
X167243940Y-98958400D01*
X167188435Y-98839371D01*
X167182825Y-98831358D01*
X167052894Y-98645797D01*
X166885802Y-98478706D01*
X166885796Y-98478701D01*
X166700242Y-98348775D01*
X166656617Y-98294198D01*
X166649423Y-98224700D01*
X166680946Y-98162345D01*
X166700242Y-98145625D01*
X166722426Y-98130091D01*
X166885801Y-98015695D01*
X167052895Y-97848601D01*
X167188435Y-97655030D01*
X167288303Y-97440863D01*
X167349463Y-97212608D01*
X167370059Y-96977200D01*
X167349463Y-96741792D01*
X167294072Y-96535069D01*
X167288305Y-96513544D01*
X167288304Y-96513543D01*
X167288303Y-96513537D01*
X167188435Y-96299371D01*
X167182825Y-96291358D01*
X167052894Y-96105797D01*
X166885802Y-95938706D01*
X166885796Y-95938701D01*
X166700242Y-95808775D01*
X166656617Y-95754198D01*
X166649423Y-95684700D01*
X166680946Y-95622345D01*
X166700242Y-95605625D01*
X166722426Y-95590091D01*
X166885801Y-95475695D01*
X167052895Y-95308601D01*
X167188435Y-95115030D01*
X167288303Y-94900863D01*
X167349463Y-94672608D01*
X167370059Y-94437200D01*
X167349463Y-94201792D01*
X167288303Y-93973537D01*
X167188435Y-93759371D01*
X167182825Y-93751358D01*
X167052894Y-93565797D01*
X166885802Y-93398706D01*
X166885796Y-93398701D01*
X166700242Y-93268775D01*
X166656617Y-93214198D01*
X166649423Y-93144700D01*
X166680946Y-93082345D01*
X166700242Y-93065625D01*
X166771702Y-93015588D01*
X166885801Y-92935695D01*
X167052895Y-92768601D01*
X167188435Y-92575030D01*
X167288303Y-92360863D01*
X167349463Y-92132608D01*
X167361170Y-91998800D01*
X196046140Y-91998800D01*
X196065926Y-92187056D01*
X196065927Y-92187059D01*
X196124418Y-92367077D01*
X196124421Y-92367084D01*
X196219067Y-92531016D01*
X196265912Y-92583042D01*
X196345729Y-92671688D01*
X196498865Y-92782948D01*
X196498870Y-92782951D01*
X196671792Y-92859942D01*
X196671797Y-92859944D01*
X196856954Y-92899300D01*
X196856955Y-92899300D01*
X197046244Y-92899300D01*
X197046246Y-92899300D01*
X197231403Y-92859944D01*
X197301775Y-92828611D01*
X197371024Y-92819326D01*
X197434301Y-92848954D01*
X197471515Y-92908089D01*
X197475532Y-92928929D01*
X197479447Y-92966182D01*
X197488326Y-93050656D01*
X197488327Y-93050659D01*
X197546818Y-93230677D01*
X197546821Y-93230684D01*
X197641467Y-93394616D01*
X197680371Y-93437823D01*
X197768129Y-93535288D01*
X197921265Y-93646548D01*
X197921270Y-93646551D01*
X198094192Y-93723542D01*
X198094197Y-93723544D01*
X198279354Y-93762900D01*
X198279355Y-93762900D01*
X198468644Y-93762900D01*
X198468646Y-93762900D01*
X198653803Y-93723544D01*
X198826730Y-93646551D01*
X198979871Y-93535288D01*
X199106533Y-93394616D01*
X199201179Y-93230684D01*
X199259674Y-93050656D01*
X199279460Y-92862400D01*
X199259674Y-92674144D01*
X199201179Y-92494116D01*
X199106533Y-92330184D01*
X198979871Y-92189512D01*
X198976491Y-92187056D01*
X198826734Y-92078251D01*
X198826729Y-92078248D01*
X198653807Y-92001257D01*
X198653802Y-92001255D01*
X198508000Y-91970265D01*
X198468646Y-91961900D01*
X198279354Y-91961900D01*
X198246897Y-91968798D01*
X198094197Y-92001255D01*
X198094192Y-92001257D01*
X198023824Y-92032588D01*
X197954574Y-92041873D01*
X197891297Y-92012245D01*
X197854084Y-91953110D01*
X197850068Y-91932276D01*
X197837274Y-91810544D01*
X197778779Y-91630516D01*
X197684133Y-91466584D01*
X197557471Y-91325912D01*
X197557470Y-91325911D01*
X197404334Y-91214651D01*
X197404329Y-91214648D01*
X197231407Y-91137657D01*
X197231402Y-91137655D01*
X197085600Y-91106665D01*
X197046246Y-91098300D01*
X196856954Y-91098300D01*
X196824497Y-91105198D01*
X196671797Y-91137655D01*
X196671792Y-91137657D01*
X196498870Y-91214648D01*
X196498865Y-91214651D01*
X196345729Y-91325911D01*
X196219066Y-91466585D01*
X196124421Y-91630515D01*
X196124418Y-91630522D01*
X196078953Y-91770451D01*
X196065926Y-91810544D01*
X196052692Y-91936463D01*
X196047130Y-91989385D01*
X196046140Y-91998800D01*
X167361170Y-91998800D01*
X167370059Y-91897200D01*
X167349463Y-91661792D01*
X167288303Y-91433537D01*
X167188435Y-91219371D01*
X167182825Y-91211358D01*
X167052894Y-91025797D01*
X166885802Y-90858706D01*
X166885796Y-90858701D01*
X166700242Y-90728775D01*
X166656617Y-90674198D01*
X166649423Y-90604700D01*
X166680946Y-90542345D01*
X166700242Y-90525625D01*
X166722426Y-90510091D01*
X166885801Y-90395695D01*
X167052895Y-90228601D01*
X167188435Y-90035030D01*
X167288303Y-89820863D01*
X167349463Y-89592608D01*
X167370059Y-89357200D01*
X167349463Y-89121792D01*
X167330870Y-89052400D01*
X192642540Y-89052400D01*
X192662326Y-89240656D01*
X192662327Y-89240659D01*
X192720818Y-89420677D01*
X192720821Y-89420684D01*
X192815467Y-89584616D01*
X192822668Y-89592613D01*
X192942129Y-89725288D01*
X193095265Y-89836548D01*
X193095270Y-89836551D01*
X193268192Y-89913542D01*
X193268197Y-89913544D01*
X193453354Y-89952900D01*
X193453355Y-89952900D01*
X193642644Y-89952900D01*
X193642646Y-89952900D01*
X193827803Y-89913544D01*
X194000730Y-89836551D01*
X194153871Y-89725288D01*
X194280533Y-89584616D01*
X194375179Y-89420684D01*
X194433674Y-89240656D01*
X194453460Y-89052400D01*
X194433674Y-88864144D01*
X194375179Y-88684116D01*
X194280533Y-88520184D01*
X194153871Y-88379512D01*
X194153870Y-88379511D01*
X194000734Y-88268251D01*
X194000729Y-88268248D01*
X193827807Y-88191257D01*
X193827802Y-88191255D01*
X193682001Y-88160265D01*
X193642646Y-88151900D01*
X193453354Y-88151900D01*
X193420897Y-88158798D01*
X193268197Y-88191255D01*
X193268192Y-88191257D01*
X193095270Y-88268248D01*
X193095265Y-88268251D01*
X192942129Y-88379511D01*
X192815466Y-88520185D01*
X192720821Y-88684115D01*
X192720818Y-88684122D01*
X192662327Y-88864140D01*
X192662326Y-88864144D01*
X192642540Y-89052400D01*
X167330870Y-89052400D01*
X167288303Y-88893537D01*
X167188435Y-88679371D01*
X167182825Y-88671358D01*
X167052894Y-88485797D01*
X166885802Y-88318706D01*
X166885801Y-88318705D01*
X166699805Y-88188469D01*
X166656181Y-88133892D01*
X166648988Y-88064393D01*
X166680510Y-88002039D01*
X166699805Y-87985319D01*
X166885482Y-87855305D01*
X167052505Y-87688282D01*
X167188000Y-87494778D01*
X167287829Y-87280692D01*
X167287832Y-87280686D01*
X167345036Y-87067200D01*
X166627747Y-87067200D01*
X166560708Y-87047515D01*
X166514953Y-86994711D01*
X166505009Y-86925553D01*
X166508769Y-86908267D01*
X166514400Y-86889088D01*
X166514400Y-86745311D01*
X166508769Y-86726133D01*
X166508770Y-86656264D01*
X166546545Y-86597486D01*
X166610101Y-86568462D01*
X166627747Y-86567200D01*
X167345036Y-86567200D01*
X167345035Y-86567199D01*
X167287832Y-86353713D01*
X167287829Y-86353707D01*
X167188000Y-86139622D01*
X167187999Y-86139620D01*
X167052513Y-85946126D01*
X167052508Y-85946120D01*
X166885478Y-85779090D01*
X166699805Y-85649079D01*
X166656180Y-85594502D01*
X166648988Y-85525004D01*
X166680510Y-85462649D01*
X166699806Y-85445930D01*
X166700242Y-85445625D01*
X166885801Y-85315695D01*
X166976693Y-85224803D01*
X205375085Y-85224803D01*
X205394727Y-85562040D01*
X205394728Y-85562051D01*
X205453383Y-85894702D01*
X205453385Y-85894711D01*
X205550273Y-86218340D01*
X205684069Y-86528514D01*
X205684075Y-86528527D01*
X205852979Y-86821078D01*
X206054703Y-87092039D01*
X206056890Y-87094355D01*
X206887413Y-86263832D01*
X206948736Y-86230347D01*
X207018427Y-86235331D01*
X207069381Y-86270979D01*
X207145130Y-86359670D01*
X207208855Y-86414096D01*
X207233816Y-86435415D01*
X207272009Y-86493922D01*
X207272507Y-86563790D01*
X207240965Y-86617386D01*
X206413798Y-87444553D01*
X206413799Y-87444554D01*
X206545302Y-87554898D01*
X206827538Y-87740528D01*
X207129414Y-87892136D01*
X207129420Y-87892139D01*
X207446848Y-88007673D01*
X207446869Y-88007680D01*
X207775551Y-88085580D01*
X207775566Y-88085582D01*
X208111100Y-88124799D01*
X208111101Y-88124800D01*
X208448899Y-88124800D01*
X208448899Y-88124799D01*
X208784433Y-88085582D01*
X208784448Y-88085580D01*
X209113130Y-88007680D01*
X209113151Y-88007673D01*
X209430579Y-87892139D01*
X209430585Y-87892136D01*
X209732454Y-87740531D01*
X210014698Y-87554897D01*
X210146199Y-87444554D01*
X210146200Y-87444553D01*
X209319033Y-86617386D01*
X209285548Y-86556063D01*
X209290532Y-86486371D01*
X209326180Y-86435417D01*
X209414870Y-86359670D01*
X209490617Y-86270980D01*
X209549121Y-86232790D01*
X209618989Y-86232290D01*
X209672586Y-86263833D01*
X210503109Y-87094356D01*
X210505291Y-87092044D01*
X210505296Y-87092039D01*
X210707020Y-86821078D01*
X210875924Y-86528527D01*
X210875930Y-86528514D01*
X211009726Y-86218340D01*
X211106614Y-85894711D01*
X211106616Y-85894702D01*
X211165271Y-85562051D01*
X211165272Y-85562040D01*
X211184915Y-85224803D01*
X211184915Y-85224796D01*
X211165272Y-84887559D01*
X211165271Y-84887548D01*
X211106616Y-84554897D01*
X211106614Y-84554888D01*
X211009726Y-84231259D01*
X210875930Y-83921085D01*
X210875924Y-83921072D01*
X210707020Y-83628521D01*
X210505299Y-83357564D01*
X210503109Y-83355243D01*
X209672586Y-84185765D01*
X209611263Y-84219250D01*
X209541571Y-84214266D01*
X209490615Y-84178616D01*
X209469296Y-84153655D01*
X209414870Y-84089930D01*
X209326179Y-84014181D01*
X209287989Y-83955678D01*
X209287489Y-83885810D01*
X209319032Y-83832213D01*
X210146200Y-83005044D01*
X210014695Y-82894700D01*
X210014688Y-82894695D01*
X209732461Y-82709071D01*
X209430585Y-82557463D01*
X209430579Y-82557460D01*
X209113151Y-82441926D01*
X209113130Y-82441919D01*
X208784448Y-82364019D01*
X208784433Y-82364017D01*
X208448899Y-82324800D01*
X208111101Y-82324800D01*
X207775566Y-82364017D01*
X207775551Y-82364019D01*
X207446869Y-82441919D01*
X207446848Y-82441926D01*
X207129420Y-82557460D01*
X207129414Y-82557463D01*
X206827538Y-82709071D01*
X206545311Y-82894695D01*
X206545304Y-82894700D01*
X206413798Y-83005044D01*
X206413798Y-83005045D01*
X207240966Y-83832213D01*
X207274451Y-83893536D01*
X207269467Y-83963228D01*
X207233817Y-84014184D01*
X207145130Y-84089930D01*
X207069384Y-84178617D01*
X207010877Y-84216810D01*
X206941009Y-84217308D01*
X206887413Y-84185766D01*
X206056889Y-83355243D01*
X206054705Y-83357558D01*
X205852979Y-83628521D01*
X205684075Y-83921072D01*
X205684069Y-83921085D01*
X205550273Y-84231259D01*
X205453385Y-84554888D01*
X205453383Y-84554897D01*
X205394728Y-84887548D01*
X205394727Y-84887559D01*
X205375085Y-85224796D01*
X205375085Y-85224803D01*
X166976693Y-85224803D01*
X167052895Y-85148601D01*
X167188435Y-84955030D01*
X167288303Y-84740863D01*
X167349463Y-84512608D01*
X167370059Y-84277200D01*
X167349463Y-84041792D01*
X167288303Y-83813537D01*
X167188435Y-83599371D01*
X167182825Y-83591358D01*
X167052894Y-83405797D01*
X166885802Y-83238706D01*
X166885796Y-83238701D01*
X166700242Y-83108775D01*
X166656617Y-83054198D01*
X166649423Y-82984700D01*
X166680946Y-82922345D01*
X166700242Y-82905625D01*
X166722426Y-82890091D01*
X166885801Y-82775695D01*
X167052895Y-82608601D01*
X167188435Y-82415030D01*
X167288303Y-82200863D01*
X167349463Y-81972608D01*
X167370059Y-81737200D01*
X167349463Y-81501792D01*
X167288303Y-81273537D01*
X167188435Y-81059371D01*
X167182825Y-81051358D01*
X167052894Y-80865797D01*
X166885802Y-80698706D01*
X166885796Y-80698701D01*
X166700242Y-80568775D01*
X166656617Y-80514198D01*
X166649423Y-80444700D01*
X166680946Y-80382345D01*
X166700242Y-80365625D01*
X166722426Y-80350091D01*
X166885801Y-80235695D01*
X167052895Y-80068601D01*
X167188435Y-79875030D01*
X167288303Y-79660863D01*
X167349463Y-79432608D01*
X167370059Y-79197200D01*
X167349463Y-78961792D01*
X167288303Y-78733537D01*
X167188435Y-78519371D01*
X167182825Y-78511358D01*
X167052894Y-78325797D01*
X166885802Y-78158706D01*
X166885796Y-78158701D01*
X166700242Y-78028775D01*
X166656617Y-77974198D01*
X166649423Y-77904700D01*
X166680946Y-77842345D01*
X166700242Y-77825625D01*
X166722426Y-77810091D01*
X166885801Y-77695695D01*
X167052895Y-77528601D01*
X167188435Y-77335030D01*
X167288303Y-77120863D01*
X167349463Y-76892608D01*
X167370059Y-76657200D01*
X167349463Y-76421792D01*
X167288303Y-76193537D01*
X167188435Y-75979371D01*
X167182825Y-75971358D01*
X167052894Y-75785797D01*
X166885802Y-75618706D01*
X166885801Y-75618705D01*
X166763200Y-75532859D01*
X166700241Y-75488774D01*
X166656616Y-75434197D01*
X166649424Y-75364698D01*
X166680946Y-75302344D01*
X166700236Y-75285628D01*
X166885801Y-75155695D01*
X167052895Y-74988601D01*
X167188435Y-74795030D01*
X167288303Y-74580863D01*
X167349463Y-74352608D01*
X167370059Y-74117200D01*
X167349463Y-73881792D01*
X167288303Y-73653537D01*
X167188435Y-73439371D01*
X167052895Y-73245799D01*
X167052894Y-73245797D01*
X166885802Y-73078706D01*
X166885795Y-73078701D01*
X166692234Y-72943167D01*
X166692230Y-72943165D01*
X166692228Y-72943164D01*
X166478063Y-72843297D01*
X166478059Y-72843296D01*
X166478055Y-72843294D01*
X166249813Y-72782138D01*
X166249803Y-72782136D01*
X166014401Y-72761541D01*
X166014399Y-72761541D01*
X165778996Y-72782136D01*
X165778986Y-72782138D01*
X165550744Y-72843294D01*
X165550735Y-72843298D01*
X165336571Y-72943164D01*
X165336569Y-72943165D01*
X165143000Y-73078703D01*
X165021073Y-73200630D01*
X164959750Y-73234114D01*
X164890058Y-73229130D01*
X164834125Y-73187258D01*
X164817210Y-73156281D01*
X164768197Y-73024871D01*
X164768193Y-73024864D01*
X164681947Y-72909655D01*
X164681944Y-72909652D01*
X164566735Y-72823406D01*
X164566728Y-72823402D01*
X164431882Y-72773108D01*
X164431883Y-72773108D01*
X164372283Y-72766701D01*
X164372281Y-72766700D01*
X164372273Y-72766700D01*
X164372264Y-72766700D01*
X162576529Y-72766700D01*
X162576523Y-72766701D01*
X162516916Y-72773108D01*
X162382071Y-72823402D01*
X162382064Y-72823406D01*
X162266855Y-72909652D01*
X162266852Y-72909655D01*
X162180606Y-73024864D01*
X162180602Y-73024871D01*
X162130308Y-73159717D01*
X162123901Y-73219316D01*
X162123900Y-73219335D01*
X162123900Y-75015070D01*
X162123901Y-75015076D01*
X162130308Y-75074683D01*
X162180602Y-75209528D01*
X162180606Y-75209535D01*
X162266852Y-75324744D01*
X162266855Y-75324747D01*
X162382064Y-75410993D01*
X162382071Y-75410997D01*
X162513481Y-75460010D01*
X162569415Y-75501881D01*
X162593832Y-75567345D01*
X162578980Y-75635618D01*
X162557830Y-75663873D01*
X162435903Y-75785800D01*
X162300365Y-75979369D01*
X162300364Y-75979371D01*
X162200498Y-76193535D01*
X162200494Y-76193544D01*
X162139338Y-76421786D01*
X162139336Y-76421796D01*
X162118741Y-76657199D01*
X162118741Y-76657200D01*
X162139336Y-76892603D01*
X162139338Y-76892613D01*
X162200494Y-77120855D01*
X162200496Y-77120859D01*
X162200497Y-77120863D01*
X162204400Y-77129232D01*
X162300365Y-77335030D01*
X162300367Y-77335034D01*
X162408681Y-77489721D01*
X162435901Y-77528596D01*
X162435906Y-77528602D01*
X162602997Y-77695693D01*
X162603003Y-77695698D01*
X162788558Y-77825625D01*
X162832183Y-77880202D01*
X162839377Y-77949700D01*
X162807854Y-78012055D01*
X162788558Y-78028775D01*
X162602997Y-78158705D01*
X162435905Y-78325797D01*
X162300365Y-78519369D01*
X162300364Y-78519371D01*
X162200498Y-78733535D01*
X162200494Y-78733544D01*
X162139338Y-78961786D01*
X162139336Y-78961796D01*
X162118741Y-79197199D01*
X162118741Y-79197200D01*
X162139336Y-79432603D01*
X162139338Y-79432613D01*
X162200494Y-79660855D01*
X162200496Y-79660859D01*
X162200497Y-79660863D01*
X162204400Y-79669232D01*
X162300365Y-79875030D01*
X162300367Y-79875034D01*
X162408681Y-80029721D01*
X162435901Y-80068596D01*
X162435906Y-80068602D01*
X162602997Y-80235693D01*
X162603003Y-80235698D01*
X162788558Y-80365625D01*
X162832183Y-80420202D01*
X162839377Y-80489700D01*
X162807854Y-80552055D01*
X162788558Y-80568775D01*
X162602997Y-80698705D01*
X162435905Y-80865797D01*
X162300365Y-81059369D01*
X162300364Y-81059371D01*
X162200498Y-81273535D01*
X162200494Y-81273544D01*
X162139338Y-81501786D01*
X162139336Y-81501796D01*
X162118741Y-81737199D01*
X162118741Y-81737200D01*
X162139336Y-81972603D01*
X162139338Y-81972613D01*
X162200494Y-82200855D01*
X162200496Y-82200859D01*
X162200497Y-82200863D01*
X162204400Y-82209232D01*
X162300365Y-82415030D01*
X162300367Y-82415034D01*
X162400096Y-82557460D01*
X162435901Y-82608596D01*
X162435906Y-82608602D01*
X162602997Y-82775693D01*
X162603003Y-82775698D01*
X162788558Y-82905625D01*
X162832183Y-82960202D01*
X162839377Y-83029700D01*
X162807854Y-83092055D01*
X162788558Y-83108775D01*
X162602997Y-83238705D01*
X162435905Y-83405797D01*
X162300365Y-83599369D01*
X162300364Y-83599371D01*
X162200498Y-83813535D01*
X162200494Y-83813544D01*
X162139338Y-84041786D01*
X162139336Y-84041796D01*
X162118741Y-84277199D01*
X162118741Y-84277200D01*
X162139336Y-84512603D01*
X162139338Y-84512613D01*
X162200494Y-84740855D01*
X162200496Y-84740859D01*
X162200497Y-84740863D01*
X162204400Y-84749232D01*
X162300365Y-84955030D01*
X162300367Y-84955034D01*
X162408681Y-85109721D01*
X162435901Y-85148596D01*
X162435906Y-85148602D01*
X162602997Y-85315693D01*
X162603003Y-85315698D01*
X162788558Y-85445625D01*
X162832183Y-85500202D01*
X162839377Y-85569700D01*
X162807854Y-85632055D01*
X162788558Y-85648775D01*
X162602997Y-85778705D01*
X162435905Y-85945797D01*
X162300365Y-86139369D01*
X162300364Y-86139371D01*
X162200498Y-86353535D01*
X162200494Y-86353544D01*
X162139338Y-86581786D01*
X162139336Y-86581796D01*
X162118741Y-86817199D01*
X162118741Y-86817200D01*
X162139336Y-87052603D01*
X162139338Y-87052613D01*
X162200494Y-87280855D01*
X162200496Y-87280859D01*
X162200497Y-87280863D01*
X162283555Y-87458981D01*
X162300365Y-87495030D01*
X162300367Y-87495034D01*
X162342284Y-87554897D01*
X162435901Y-87688596D01*
X162435906Y-87688602D01*
X162602997Y-87855693D01*
X162603003Y-87855698D01*
X162788558Y-87985625D01*
X162832183Y-88040202D01*
X162839377Y-88109700D01*
X162807854Y-88172055D01*
X162788558Y-88188775D01*
X162602997Y-88318705D01*
X162435905Y-88485797D01*
X162300365Y-88679369D01*
X162300364Y-88679371D01*
X162200498Y-88893535D01*
X162200494Y-88893544D01*
X162139338Y-89121786D01*
X162139336Y-89121796D01*
X162118741Y-89357199D01*
X162118741Y-89357200D01*
X162139336Y-89592603D01*
X162139338Y-89592613D01*
X162200494Y-89820855D01*
X162200496Y-89820859D01*
X162200497Y-89820863D01*
X162243714Y-89913542D01*
X162300365Y-90035030D01*
X162300367Y-90035034D01*
X162408681Y-90189721D01*
X162435901Y-90228596D01*
X162435906Y-90228602D01*
X162602997Y-90395693D01*
X162603003Y-90395698D01*
X162788558Y-90525625D01*
X162832183Y-90580202D01*
X162839377Y-90649700D01*
X162807854Y-90712055D01*
X162788558Y-90728775D01*
X162602997Y-90858705D01*
X162435905Y-91025797D01*
X162300365Y-91219369D01*
X162300364Y-91219371D01*
X162200498Y-91433535D01*
X162200494Y-91433544D01*
X162139338Y-91661786D01*
X162139336Y-91661796D01*
X162118741Y-91897199D01*
X162118741Y-91897200D01*
X162139336Y-92132603D01*
X162139338Y-92132613D01*
X162200494Y-92360855D01*
X162200496Y-92360859D01*
X162200497Y-92360863D01*
X162233608Y-92431869D01*
X162300365Y-92575030D01*
X162300367Y-92575034D01*
X162370681Y-92675452D01*
X162435901Y-92768596D01*
X162435906Y-92768602D01*
X162602997Y-92935693D01*
X162603003Y-92935698D01*
X162788558Y-93065625D01*
X162832183Y-93120202D01*
X162839377Y-93189700D01*
X162807854Y-93252055D01*
X162788558Y-93268775D01*
X162602997Y-93398705D01*
X162435905Y-93565797D01*
X162300365Y-93759369D01*
X162300364Y-93759371D01*
X162200498Y-93973535D01*
X162200494Y-93973544D01*
X162139338Y-94201786D01*
X162139336Y-94201796D01*
X162118741Y-94437199D01*
X162118741Y-94437200D01*
X162139336Y-94672603D01*
X162139338Y-94672613D01*
X162200494Y-94900855D01*
X162200496Y-94900859D01*
X162200497Y-94900863D01*
X162300365Y-95115030D01*
X162300367Y-95115034D01*
X162408681Y-95269721D01*
X162435901Y-95308596D01*
X162435906Y-95308602D01*
X162602997Y-95475693D01*
X162603003Y-95475698D01*
X162788558Y-95605625D01*
X162832183Y-95660202D01*
X162839377Y-95729700D01*
X162807854Y-95792055D01*
X162788558Y-95808775D01*
X162602997Y-95938705D01*
X162435905Y-96105797D01*
X162300365Y-96299369D01*
X162300364Y-96299371D01*
X162200498Y-96513535D01*
X162200494Y-96513544D01*
X162139338Y-96741786D01*
X162139336Y-96741796D01*
X162118741Y-96977199D01*
X162118741Y-96977200D01*
X162139336Y-97212603D01*
X162139338Y-97212613D01*
X162200494Y-97440855D01*
X162200496Y-97440859D01*
X162200497Y-97440863D01*
X162293383Y-97640057D01*
X162300365Y-97655030D01*
X162300367Y-97655034D01*
X162358982Y-97738744D01*
X162435901Y-97848596D01*
X162435906Y-97848602D01*
X162602997Y-98015693D01*
X162603003Y-98015698D01*
X162788558Y-98145625D01*
X162832183Y-98200202D01*
X162839377Y-98269700D01*
X162807854Y-98332055D01*
X162788558Y-98348775D01*
X162602997Y-98478705D01*
X162435905Y-98645797D01*
X162300365Y-98839369D01*
X162300364Y-98839371D01*
X162200498Y-99053535D01*
X162200494Y-99053544D01*
X162139338Y-99281786D01*
X162139336Y-99281796D01*
X162118741Y-99517199D01*
X162118741Y-99517200D01*
X162139336Y-99752603D01*
X162139338Y-99752613D01*
X162200494Y-99980855D01*
X162200496Y-99980859D01*
X162200497Y-99980863D01*
X162280404Y-100152223D01*
X162300365Y-100195030D01*
X162300367Y-100195034D01*
X162385995Y-100317322D01*
X162435901Y-100388596D01*
X162435906Y-100388602D01*
X162602997Y-100555693D01*
X162603003Y-100555698D01*
X162788558Y-100685625D01*
X162832183Y-100740202D01*
X162839377Y-100809700D01*
X162807854Y-100872055D01*
X162788558Y-100888775D01*
X162602997Y-101018705D01*
X162435905Y-101185797D01*
X162300365Y-101379369D01*
X162300364Y-101379371D01*
X162200498Y-101593535D01*
X162200494Y-101593544D01*
X162139338Y-101821786D01*
X162139336Y-101821796D01*
X162118741Y-102057199D01*
X162118741Y-102057200D01*
X162139336Y-102292603D01*
X162139338Y-102292613D01*
X162200494Y-102520855D01*
X162200496Y-102520859D01*
X162200497Y-102520863D01*
X162295103Y-102723746D01*
X162300365Y-102735030D01*
X162300367Y-102735034D01*
X162386089Y-102857457D01*
X162435901Y-102928596D01*
X162435906Y-102928602D01*
X162602997Y-103095693D01*
X162603003Y-103095698D01*
X162788558Y-103225625D01*
X162832183Y-103280202D01*
X162839377Y-103349700D01*
X162807854Y-103412055D01*
X162788558Y-103428775D01*
X162602997Y-103558705D01*
X162435905Y-103725797D01*
X162300365Y-103919369D01*
X162300364Y-103919371D01*
X162200498Y-104133535D01*
X162200494Y-104133544D01*
X162139338Y-104361786D01*
X162139336Y-104361796D01*
X162118741Y-104597199D01*
X162118741Y-104597200D01*
X162139336Y-104832603D01*
X162139338Y-104832613D01*
X162200494Y-105060855D01*
X162200496Y-105060859D01*
X162200497Y-105060863D01*
X162268548Y-105206799D01*
X162300365Y-105275030D01*
X162300367Y-105275034D01*
X162340930Y-105332963D01*
X162435901Y-105468596D01*
X162435906Y-105468602D01*
X162602997Y-105635693D01*
X162603003Y-105635698D01*
X162788558Y-105765625D01*
X162832183Y-105820202D01*
X162839377Y-105889700D01*
X162807854Y-105952055D01*
X162788558Y-105968775D01*
X162602997Y-106098705D01*
X162435905Y-106265797D01*
X162300365Y-106459369D01*
X162300364Y-106459371D01*
X162200498Y-106673535D01*
X162200494Y-106673544D01*
X162139338Y-106901786D01*
X162139336Y-106901796D01*
X162118741Y-107137199D01*
X162118741Y-107137200D01*
X162139336Y-107372603D01*
X162139338Y-107372613D01*
X162200494Y-107600855D01*
X162200496Y-107600859D01*
X162200497Y-107600863D01*
X162280404Y-107772223D01*
X162300365Y-107815030D01*
X162300367Y-107815034D01*
X162408681Y-107969721D01*
X162435901Y-108008596D01*
X162435906Y-108008602D01*
X162602997Y-108175693D01*
X162603003Y-108175698D01*
X162788558Y-108305625D01*
X162832183Y-108360202D01*
X162839377Y-108429700D01*
X162807854Y-108492055D01*
X162788558Y-108508775D01*
X162602997Y-108638705D01*
X162435905Y-108805797D01*
X162300365Y-108999369D01*
X162300364Y-108999371D01*
X162200498Y-109213535D01*
X162200494Y-109213544D01*
X162139338Y-109441786D01*
X162139336Y-109441796D01*
X162118741Y-109677199D01*
X162118741Y-109677200D01*
X162139336Y-109912603D01*
X162139338Y-109912613D01*
X162200494Y-110140855D01*
X162200496Y-110140859D01*
X162200497Y-110140863D01*
X162283555Y-110318981D01*
X162300365Y-110355030D01*
X162300367Y-110355034D01*
X162377975Y-110465869D01*
X162435901Y-110548596D01*
X162435906Y-110548602D01*
X162602997Y-110715693D01*
X162603003Y-110715698D01*
X162788558Y-110845625D01*
X162832183Y-110900202D01*
X162839377Y-110969700D01*
X162807854Y-111032055D01*
X162788558Y-111048775D01*
X162602997Y-111178705D01*
X162435905Y-111345797D01*
X162300365Y-111539369D01*
X162300364Y-111539371D01*
X162200498Y-111753535D01*
X162200494Y-111753544D01*
X162139338Y-111981786D01*
X162139336Y-111981796D01*
X162118741Y-112217199D01*
X162118741Y-112217200D01*
X162139336Y-112452603D01*
X162139338Y-112452613D01*
X162200494Y-112680855D01*
X162200496Y-112680859D01*
X162200497Y-112680863D01*
X162223658Y-112730531D01*
X162300365Y-112895030D01*
X162300367Y-112895034D01*
X162372236Y-112997673D01*
X162435901Y-113088596D01*
X162435906Y-113088602D01*
X162602997Y-113255693D01*
X162603003Y-113255698D01*
X162788558Y-113385625D01*
X162832183Y-113440202D01*
X162839377Y-113509700D01*
X162807854Y-113572055D01*
X162788558Y-113588775D01*
X162602997Y-113718705D01*
X162435905Y-113885797D01*
X162300365Y-114079369D01*
X162300364Y-114079371D01*
X162200498Y-114293535D01*
X162200494Y-114293544D01*
X162139338Y-114521786D01*
X162139336Y-114521796D01*
X162118741Y-114757199D01*
X162118741Y-114757200D01*
X162139336Y-114992603D01*
X162139338Y-114992613D01*
X162200494Y-115220855D01*
X162200496Y-115220859D01*
X162200497Y-115220863D01*
X162204400Y-115229232D01*
X162300365Y-115435030D01*
X162300367Y-115435034D01*
X162408681Y-115589721D01*
X162435901Y-115628596D01*
X162435906Y-115628602D01*
X162602997Y-115795693D01*
X162603003Y-115795698D01*
X162788558Y-115925625D01*
X162832183Y-115980202D01*
X162839377Y-116049700D01*
X162807854Y-116112055D01*
X162788558Y-116128775D01*
X162602997Y-116258705D01*
X162435905Y-116425797D01*
X162300365Y-116619369D01*
X162300364Y-116619371D01*
X162200498Y-116833535D01*
X162200494Y-116833544D01*
X162139338Y-117061786D01*
X162139336Y-117061796D01*
X162118741Y-117297199D01*
X162118741Y-117297200D01*
X162139336Y-117532603D01*
X162139338Y-117532613D01*
X162200494Y-117760855D01*
X162200496Y-117760859D01*
X162200497Y-117760863D01*
X162204400Y-117769232D01*
X162300365Y-117975030D01*
X162300367Y-117975034D01*
X162408681Y-118129721D01*
X162435901Y-118168596D01*
X162435906Y-118168602D01*
X162602997Y-118335693D01*
X162603003Y-118335698D01*
X162788558Y-118465625D01*
X162832183Y-118520202D01*
X162839377Y-118589700D01*
X162807854Y-118652055D01*
X162788558Y-118668775D01*
X162602997Y-118798705D01*
X162435905Y-118965797D01*
X162300365Y-119159369D01*
X162300364Y-119159371D01*
X162200498Y-119373535D01*
X162200494Y-119373544D01*
X162139338Y-119601786D01*
X162139336Y-119601796D01*
X162118741Y-119837199D01*
X162118741Y-119837200D01*
X162139336Y-120072603D01*
X162139338Y-120072613D01*
X162200494Y-120300855D01*
X162200496Y-120300859D01*
X162200497Y-120300863D01*
X162204400Y-120309232D01*
X162300365Y-120515030D01*
X162300367Y-120515034D01*
X162408681Y-120669721D01*
X162435901Y-120708596D01*
X162435906Y-120708602D01*
X162602997Y-120875693D01*
X162603003Y-120875698D01*
X162788558Y-121005625D01*
X162832183Y-121060202D01*
X162839377Y-121129700D01*
X162807854Y-121192055D01*
X162788558Y-121208775D01*
X162602997Y-121338705D01*
X162435905Y-121505797D01*
X162300365Y-121699369D01*
X162300364Y-121699371D01*
X162200498Y-121913535D01*
X162200494Y-121913544D01*
X162139338Y-122141786D01*
X162139336Y-122141796D01*
X162118741Y-122377199D01*
X162118741Y-122377200D01*
X159664900Y-122377200D01*
X159664900Y-71041300D01*
X159684585Y-70974261D01*
X159737389Y-70928506D01*
X159788900Y-70917300D01*
X226748300Y-70917300D01*
X226815339Y-70936985D01*
G37*
%TD.AperFunction*%
%TD*%
M02*
