%TF.GenerationSoftware,KiCad,Pcbnew,7.0.7*%
%TF.CreationDate,2023-11-25T23:50:18-06:00*%
%TF.ProjectId,DAC2DE0,44414332-4445-4302-9e6b-696361645f70,rev?*%
%TF.SameCoordinates,Original*%
%TF.FileFunction,Legend,Bot*%
%TF.FilePolarity,Positive*%
%FSLAX46Y46*%
G04 Gerber Fmt 4.6, Leading zero omitted, Abs format (unit mm)*
G04 Created by KiCad (PCBNEW 7.0.7) date 2023-11-25 23:50:18*
%MOMM*%
%LPD*%
G01*
G04 APERTURE LIST*
%ADD10C,0.150000*%
%ADD11C,0.120000*%
G04 APERTURE END LIST*
D10*
X165077733Y-70802019D02*
X165077733Y-71516304D01*
X165077733Y-71516304D02*
X165125352Y-71659161D01*
X165125352Y-71659161D02*
X165220590Y-71754400D01*
X165220590Y-71754400D02*
X165363447Y-71802019D01*
X165363447Y-71802019D02*
X165458685Y-71802019D01*
X164696780Y-70802019D02*
X164077733Y-70802019D01*
X164077733Y-70802019D02*
X164411066Y-71182971D01*
X164411066Y-71182971D02*
X164268209Y-71182971D01*
X164268209Y-71182971D02*
X164172971Y-71230590D01*
X164172971Y-71230590D02*
X164125352Y-71278209D01*
X164125352Y-71278209D02*
X164077733Y-71373447D01*
X164077733Y-71373447D02*
X164077733Y-71611542D01*
X164077733Y-71611542D02*
X164125352Y-71706780D01*
X164125352Y-71706780D02*
X164172971Y-71754400D01*
X164172971Y-71754400D02*
X164268209Y-71802019D01*
X164268209Y-71802019D02*
X164553923Y-71802019D01*
X164553923Y-71802019D02*
X164649161Y-71754400D01*
X164649161Y-71754400D02*
X164696780Y-71706780D01*
D11*
%TO.C,J3*%
X167344400Y-72787200D02*
X167344400Y-123707200D01*
X162144400Y-75387200D02*
X162144400Y-123707200D01*
X167344400Y-72787200D02*
X164744400Y-72787200D01*
X167344400Y-123707200D02*
X162144400Y-123707200D01*
X164744400Y-72787200D02*
X164744400Y-75387200D01*
X164744400Y-75387200D02*
X162144400Y-75387200D01*
X163474400Y-72787200D02*
X162144400Y-72787200D01*
X162144400Y-72787200D02*
X162144400Y-74117200D01*
%TD*%
M02*
