%TF.GenerationSoftware,KiCad,Pcbnew,7.0.7*%
%TF.CreationDate,2023-11-25T23:50:18-06:00*%
%TF.ProjectId,DAC2DE0,44414332-4445-4302-9e6b-696361645f70,rev?*%
%TF.SameCoordinates,Original*%
%TF.FileFunction,Legend,Top*%
%TF.FilePolarity,Positive*%
%FSLAX46Y46*%
G04 Gerber Fmt 4.6, Leading zero omitted, Abs format (unit mm)*
G04 Created by KiCad (PCBNEW 7.0.7) date 2023-11-25 23:50:18*
%MOMM*%
%LPD*%
G01*
G04 APERTURE LIST*
%ADD10C,0.150000*%
%ADD11C,0.254000*%
%ADD12C,0.120000*%
%ADD13C,0.250000*%
%ADD14C,0.200000*%
G04 APERTURE END LIST*
D10*
X193040169Y-77247457D02*
X193040169Y-74247457D01*
X193040169Y-74247457D02*
X193754455Y-74247457D01*
X193754455Y-74247457D02*
X194183026Y-74390314D01*
X194183026Y-74390314D02*
X194468741Y-74676028D01*
X194468741Y-74676028D02*
X194611598Y-74961742D01*
X194611598Y-74961742D02*
X194754455Y-75533171D01*
X194754455Y-75533171D02*
X194754455Y-75961742D01*
X194754455Y-75961742D02*
X194611598Y-76533171D01*
X194611598Y-76533171D02*
X194468741Y-76818885D01*
X194468741Y-76818885D02*
X194183026Y-77104600D01*
X194183026Y-77104600D02*
X193754455Y-77247457D01*
X193754455Y-77247457D02*
X193040169Y-77247457D01*
X196040169Y-75676028D02*
X197040169Y-75676028D01*
X197468741Y-77247457D02*
X196040169Y-77247457D01*
X196040169Y-77247457D02*
X196040169Y-74247457D01*
X196040169Y-74247457D02*
X197468741Y-74247457D01*
X199325884Y-74247457D02*
X199611598Y-74247457D01*
X199611598Y-74247457D02*
X199897312Y-74390314D01*
X199897312Y-74390314D02*
X200040170Y-74533171D01*
X200040170Y-74533171D02*
X200183027Y-74818885D01*
X200183027Y-74818885D02*
X200325884Y-75390314D01*
X200325884Y-75390314D02*
X200325884Y-76104600D01*
X200325884Y-76104600D02*
X200183027Y-76676028D01*
X200183027Y-76676028D02*
X200040170Y-76961742D01*
X200040170Y-76961742D02*
X199897312Y-77104600D01*
X199897312Y-77104600D02*
X199611598Y-77247457D01*
X199611598Y-77247457D02*
X199325884Y-77247457D01*
X199325884Y-77247457D02*
X199040170Y-77104600D01*
X199040170Y-77104600D02*
X198897312Y-76961742D01*
X198897312Y-76961742D02*
X198754455Y-76676028D01*
X198754455Y-76676028D02*
X198611598Y-76104600D01*
X198611598Y-76104600D02*
X198611598Y-75390314D01*
X198611598Y-75390314D02*
X198754455Y-74818885D01*
X198754455Y-74818885D02*
X198897312Y-74533171D01*
X198897312Y-74533171D02*
X199040170Y-74390314D01*
X199040170Y-74390314D02*
X199325884Y-74247457D01*
X201468741Y-74533171D02*
X201611598Y-74390314D01*
X201611598Y-74390314D02*
X201897313Y-74247457D01*
X201897313Y-74247457D02*
X202611598Y-74247457D01*
X202611598Y-74247457D02*
X202897313Y-74390314D01*
X202897313Y-74390314D02*
X203040170Y-74533171D01*
X203040170Y-74533171D02*
X203183027Y-74818885D01*
X203183027Y-74818885D02*
X203183027Y-75104600D01*
X203183027Y-75104600D02*
X203040170Y-75533171D01*
X203040170Y-75533171D02*
X201325884Y-77247457D01*
X201325884Y-77247457D02*
X203183027Y-77247457D01*
X204040170Y-74247457D02*
X205040170Y-77247457D01*
X205040170Y-77247457D02*
X206040170Y-74247457D01*
X208611599Y-74390314D02*
X208325885Y-74247457D01*
X208325885Y-74247457D02*
X207897313Y-74247457D01*
X207897313Y-74247457D02*
X207468742Y-74390314D01*
X207468742Y-74390314D02*
X207183027Y-74676028D01*
X207183027Y-74676028D02*
X207040170Y-74961742D01*
X207040170Y-74961742D02*
X206897313Y-75533171D01*
X206897313Y-75533171D02*
X206897313Y-75961742D01*
X206897313Y-75961742D02*
X207040170Y-76533171D01*
X207040170Y-76533171D02*
X207183027Y-76818885D01*
X207183027Y-76818885D02*
X207468742Y-77104600D01*
X207468742Y-77104600D02*
X207897313Y-77247457D01*
X207897313Y-77247457D02*
X208183027Y-77247457D01*
X208183027Y-77247457D02*
X208611599Y-77104600D01*
X208611599Y-77104600D02*
X208754456Y-76961742D01*
X208754456Y-76961742D02*
X208754456Y-75961742D01*
X208754456Y-75961742D02*
X208183027Y-75961742D01*
X209897313Y-76390314D02*
X211325885Y-76390314D01*
X209611599Y-77247457D02*
X210611599Y-74247457D01*
X210611599Y-74247457D02*
X211611599Y-77247457D01*
X212105069Y-119122771D02*
X211532650Y-119021756D01*
X211701008Y-119526832D02*
X210993902Y-118819725D01*
X210993902Y-118819725D02*
X211263276Y-118550351D01*
X211263276Y-118550351D02*
X211364291Y-118516679D01*
X211364291Y-118516679D02*
X211431634Y-118516679D01*
X211431634Y-118516679D02*
X211532650Y-118550351D01*
X211532650Y-118550351D02*
X211633665Y-118651366D01*
X211633665Y-118651366D02*
X211667337Y-118752382D01*
X211667337Y-118752382D02*
X211667337Y-118819725D01*
X211667337Y-118819725D02*
X211633665Y-118920740D01*
X211633665Y-118920740D02*
X211364291Y-119190114D01*
X212105069Y-118314649D02*
X212004054Y-118348321D01*
X212004054Y-118348321D02*
X211936711Y-118348321D01*
X211936711Y-118348321D02*
X211835695Y-118314649D01*
X211835695Y-118314649D02*
X211802024Y-118280977D01*
X211802024Y-118280977D02*
X211768352Y-118179962D01*
X211768352Y-118179962D02*
X211768352Y-118112618D01*
X211768352Y-118112618D02*
X211802024Y-118011603D01*
X211802024Y-118011603D02*
X211936711Y-117876916D01*
X211936711Y-117876916D02*
X212037726Y-117843244D01*
X212037726Y-117843244D02*
X212105069Y-117843244D01*
X212105069Y-117843244D02*
X212206085Y-117876916D01*
X212206085Y-117876916D02*
X212239756Y-117910588D01*
X212239756Y-117910588D02*
X212273428Y-118011603D01*
X212273428Y-118011603D02*
X212273428Y-118078947D01*
X212273428Y-118078947D02*
X212239756Y-118179962D01*
X212239756Y-118179962D02*
X212105069Y-118314649D01*
X212105069Y-118314649D02*
X212071398Y-118415664D01*
X212071398Y-118415664D02*
X212071398Y-118483008D01*
X212071398Y-118483008D02*
X212105069Y-118584023D01*
X212105069Y-118584023D02*
X212239756Y-118718710D01*
X212239756Y-118718710D02*
X212340772Y-118752382D01*
X212340772Y-118752382D02*
X212408115Y-118752382D01*
X212408115Y-118752382D02*
X212509130Y-118718710D01*
X212509130Y-118718710D02*
X212643817Y-118584023D01*
X212643817Y-118584023D02*
X212677489Y-118483008D01*
X212677489Y-118483008D02*
X212677489Y-118415664D01*
X212677489Y-118415664D02*
X212643817Y-118314649D01*
X212643817Y-118314649D02*
X212509130Y-118179962D01*
X212509130Y-118179962D02*
X212408115Y-118146290D01*
X212408115Y-118146290D02*
X212340772Y-118146290D01*
X212340772Y-118146290D02*
X212239756Y-118179962D01*
X220318819Y-119140266D02*
X219842628Y-119473599D01*
X220318819Y-119711694D02*
X219318819Y-119711694D01*
X219318819Y-119711694D02*
X219318819Y-119330742D01*
X219318819Y-119330742D02*
X219366438Y-119235504D01*
X219366438Y-119235504D02*
X219414057Y-119187885D01*
X219414057Y-119187885D02*
X219509295Y-119140266D01*
X219509295Y-119140266D02*
X219652152Y-119140266D01*
X219652152Y-119140266D02*
X219747390Y-119187885D01*
X219747390Y-119187885D02*
X219795009Y-119235504D01*
X219795009Y-119235504D02*
X219842628Y-119330742D01*
X219842628Y-119330742D02*
X219842628Y-119711694D01*
X219318819Y-118806932D02*
X219318819Y-118140266D01*
X219318819Y-118140266D02*
X220318819Y-118568837D01*
X195630019Y-105424266D02*
X195153828Y-105757599D01*
X195630019Y-105995694D02*
X194630019Y-105995694D01*
X194630019Y-105995694D02*
X194630019Y-105614742D01*
X194630019Y-105614742D02*
X194677638Y-105519504D01*
X194677638Y-105519504D02*
X194725257Y-105471885D01*
X194725257Y-105471885D02*
X194820495Y-105424266D01*
X194820495Y-105424266D02*
X194963352Y-105424266D01*
X194963352Y-105424266D02*
X195058590Y-105471885D01*
X195058590Y-105471885D02*
X195106209Y-105519504D01*
X195106209Y-105519504D02*
X195153828Y-105614742D01*
X195153828Y-105614742D02*
X195153828Y-105995694D01*
X194630019Y-104567123D02*
X194630019Y-104757599D01*
X194630019Y-104757599D02*
X194677638Y-104852837D01*
X194677638Y-104852837D02*
X194725257Y-104900456D01*
X194725257Y-104900456D02*
X194868114Y-104995694D01*
X194868114Y-104995694D02*
X195058590Y-105043313D01*
X195058590Y-105043313D02*
X195439542Y-105043313D01*
X195439542Y-105043313D02*
X195534780Y-104995694D01*
X195534780Y-104995694D02*
X195582400Y-104948075D01*
X195582400Y-104948075D02*
X195630019Y-104852837D01*
X195630019Y-104852837D02*
X195630019Y-104662361D01*
X195630019Y-104662361D02*
X195582400Y-104567123D01*
X195582400Y-104567123D02*
X195534780Y-104519504D01*
X195534780Y-104519504D02*
X195439542Y-104471885D01*
X195439542Y-104471885D02*
X195201447Y-104471885D01*
X195201447Y-104471885D02*
X195106209Y-104519504D01*
X195106209Y-104519504D02*
X195058590Y-104567123D01*
X195058590Y-104567123D02*
X195010971Y-104662361D01*
X195010971Y-104662361D02*
X195010971Y-104852837D01*
X195010971Y-104852837D02*
X195058590Y-104948075D01*
X195058590Y-104948075D02*
X195106209Y-104995694D01*
X195106209Y-104995694D02*
X195201447Y-105043313D01*
X194712419Y-90997066D02*
X194236228Y-91330399D01*
X194712419Y-91568494D02*
X193712419Y-91568494D01*
X193712419Y-91568494D02*
X193712419Y-91187542D01*
X193712419Y-91187542D02*
X193760038Y-91092304D01*
X193760038Y-91092304D02*
X193807657Y-91044685D01*
X193807657Y-91044685D02*
X193902895Y-90997066D01*
X193902895Y-90997066D02*
X194045752Y-90997066D01*
X194045752Y-90997066D02*
X194140990Y-91044685D01*
X194140990Y-91044685D02*
X194188609Y-91092304D01*
X194188609Y-91092304D02*
X194236228Y-91187542D01*
X194236228Y-91187542D02*
X194236228Y-91568494D01*
X193712419Y-90092304D02*
X193712419Y-90568494D01*
X193712419Y-90568494D02*
X194188609Y-90616113D01*
X194188609Y-90616113D02*
X194140990Y-90568494D01*
X194140990Y-90568494D02*
X194093371Y-90473256D01*
X194093371Y-90473256D02*
X194093371Y-90235161D01*
X194093371Y-90235161D02*
X194140990Y-90139923D01*
X194140990Y-90139923D02*
X194188609Y-90092304D01*
X194188609Y-90092304D02*
X194283847Y-90044685D01*
X194283847Y-90044685D02*
X194521942Y-90044685D01*
X194521942Y-90044685D02*
X194617180Y-90092304D01*
X194617180Y-90092304D02*
X194664800Y-90139923D01*
X194664800Y-90139923D02*
X194712419Y-90235161D01*
X194712419Y-90235161D02*
X194712419Y-90473256D01*
X194712419Y-90473256D02*
X194664800Y-90568494D01*
X194664800Y-90568494D02*
X194617180Y-90616113D01*
X195122019Y-90946266D02*
X194645828Y-91279599D01*
X195122019Y-91517694D02*
X194122019Y-91517694D01*
X194122019Y-91517694D02*
X194122019Y-91136742D01*
X194122019Y-91136742D02*
X194169638Y-91041504D01*
X194169638Y-91041504D02*
X194217257Y-90993885D01*
X194217257Y-90993885D02*
X194312495Y-90946266D01*
X194312495Y-90946266D02*
X194455352Y-90946266D01*
X194455352Y-90946266D02*
X194550590Y-90993885D01*
X194550590Y-90993885D02*
X194598209Y-91041504D01*
X194598209Y-91041504D02*
X194645828Y-91136742D01*
X194645828Y-91136742D02*
X194645828Y-91517694D01*
X194455352Y-90089123D02*
X195122019Y-90089123D01*
X194074400Y-90327218D02*
X194788685Y-90565313D01*
X194788685Y-90565313D02*
X194788685Y-89946266D01*
X199690819Y-94603866D02*
X199214628Y-94937199D01*
X199690819Y-95175294D02*
X198690819Y-95175294D01*
X198690819Y-95175294D02*
X198690819Y-94794342D01*
X198690819Y-94794342D02*
X198738438Y-94699104D01*
X198738438Y-94699104D02*
X198786057Y-94651485D01*
X198786057Y-94651485D02*
X198881295Y-94603866D01*
X198881295Y-94603866D02*
X199024152Y-94603866D01*
X199024152Y-94603866D02*
X199119390Y-94651485D01*
X199119390Y-94651485D02*
X199167009Y-94699104D01*
X199167009Y-94699104D02*
X199214628Y-94794342D01*
X199214628Y-94794342D02*
X199214628Y-95175294D01*
X198690819Y-94270532D02*
X198690819Y-93651485D01*
X198690819Y-93651485D02*
X199071771Y-93984818D01*
X199071771Y-93984818D02*
X199071771Y-93841961D01*
X199071771Y-93841961D02*
X199119390Y-93746723D01*
X199119390Y-93746723D02*
X199167009Y-93699104D01*
X199167009Y-93699104D02*
X199262247Y-93651485D01*
X199262247Y-93651485D02*
X199500342Y-93651485D01*
X199500342Y-93651485D02*
X199595580Y-93699104D01*
X199595580Y-93699104D02*
X199643200Y-93746723D01*
X199643200Y-93746723D02*
X199690819Y-93841961D01*
X199690819Y-93841961D02*
X199690819Y-94127675D01*
X199690819Y-94127675D02*
X199643200Y-94222913D01*
X199643200Y-94222913D02*
X199595580Y-94270532D01*
X201624419Y-97855066D02*
X201148228Y-98188399D01*
X201624419Y-98426494D02*
X200624419Y-98426494D01*
X200624419Y-98426494D02*
X200624419Y-98045542D01*
X200624419Y-98045542D02*
X200672038Y-97950304D01*
X200672038Y-97950304D02*
X200719657Y-97902685D01*
X200719657Y-97902685D02*
X200814895Y-97855066D01*
X200814895Y-97855066D02*
X200957752Y-97855066D01*
X200957752Y-97855066D02*
X201052990Y-97902685D01*
X201052990Y-97902685D02*
X201100609Y-97950304D01*
X201100609Y-97950304D02*
X201148228Y-98045542D01*
X201148228Y-98045542D02*
X201148228Y-98426494D01*
X200719657Y-97474113D02*
X200672038Y-97426494D01*
X200672038Y-97426494D02*
X200624419Y-97331256D01*
X200624419Y-97331256D02*
X200624419Y-97093161D01*
X200624419Y-97093161D02*
X200672038Y-96997923D01*
X200672038Y-96997923D02*
X200719657Y-96950304D01*
X200719657Y-96950304D02*
X200814895Y-96902685D01*
X200814895Y-96902685D02*
X200910133Y-96902685D01*
X200910133Y-96902685D02*
X201052990Y-96950304D01*
X201052990Y-96950304D02*
X201624419Y-97521732D01*
X201624419Y-97521732D02*
X201624419Y-96902685D01*
X199541619Y-101207866D02*
X199065428Y-101541199D01*
X199541619Y-101779294D02*
X198541619Y-101779294D01*
X198541619Y-101779294D02*
X198541619Y-101398342D01*
X198541619Y-101398342D02*
X198589238Y-101303104D01*
X198589238Y-101303104D02*
X198636857Y-101255485D01*
X198636857Y-101255485D02*
X198732095Y-101207866D01*
X198732095Y-101207866D02*
X198874952Y-101207866D01*
X198874952Y-101207866D02*
X198970190Y-101255485D01*
X198970190Y-101255485D02*
X199017809Y-101303104D01*
X199017809Y-101303104D02*
X199065428Y-101398342D01*
X199065428Y-101398342D02*
X199065428Y-101779294D01*
X199541619Y-100255485D02*
X199541619Y-100826913D01*
X199541619Y-100541199D02*
X198541619Y-100541199D01*
X198541619Y-100541199D02*
X198684476Y-100636437D01*
X198684476Y-100636437D02*
X198779714Y-100731675D01*
X198779714Y-100731675D02*
X198827333Y-100826913D01*
X178963980Y-101817466D02*
X179011600Y-101865085D01*
X179011600Y-101865085D02*
X179059219Y-102007942D01*
X179059219Y-102007942D02*
X179059219Y-102103180D01*
X179059219Y-102103180D02*
X179011600Y-102246037D01*
X179011600Y-102246037D02*
X178916361Y-102341275D01*
X178916361Y-102341275D02*
X178821123Y-102388894D01*
X178821123Y-102388894D02*
X178630647Y-102436513D01*
X178630647Y-102436513D02*
X178487790Y-102436513D01*
X178487790Y-102436513D02*
X178297314Y-102388894D01*
X178297314Y-102388894D02*
X178202076Y-102341275D01*
X178202076Y-102341275D02*
X178106838Y-102246037D01*
X178106838Y-102246037D02*
X178059219Y-102103180D01*
X178059219Y-102103180D02*
X178059219Y-102007942D01*
X178059219Y-102007942D02*
X178106838Y-101865085D01*
X178106838Y-101865085D02*
X178154457Y-101817466D01*
X178059219Y-100912704D02*
X178059219Y-101388894D01*
X178059219Y-101388894D02*
X178535409Y-101436513D01*
X178535409Y-101436513D02*
X178487790Y-101388894D01*
X178487790Y-101388894D02*
X178440171Y-101293656D01*
X178440171Y-101293656D02*
X178440171Y-101055561D01*
X178440171Y-101055561D02*
X178487790Y-100960323D01*
X178487790Y-100960323D02*
X178535409Y-100912704D01*
X178535409Y-100912704D02*
X178630647Y-100865085D01*
X178630647Y-100865085D02*
X178868742Y-100865085D01*
X178868742Y-100865085D02*
X178963980Y-100912704D01*
X178963980Y-100912704D02*
X179011600Y-100960323D01*
X179011600Y-100960323D02*
X179059219Y-101055561D01*
X179059219Y-101055561D02*
X179059219Y-101293656D01*
X179059219Y-101293656D02*
X179011600Y-101388894D01*
X179011600Y-101388894D02*
X178963980Y-101436513D01*
X182215180Y-101715866D02*
X182262800Y-101763485D01*
X182262800Y-101763485D02*
X182310419Y-101906342D01*
X182310419Y-101906342D02*
X182310419Y-102001580D01*
X182310419Y-102001580D02*
X182262800Y-102144437D01*
X182262800Y-102144437D02*
X182167561Y-102239675D01*
X182167561Y-102239675D02*
X182072323Y-102287294D01*
X182072323Y-102287294D02*
X181881847Y-102334913D01*
X181881847Y-102334913D02*
X181738990Y-102334913D01*
X181738990Y-102334913D02*
X181548514Y-102287294D01*
X181548514Y-102287294D02*
X181453276Y-102239675D01*
X181453276Y-102239675D02*
X181358038Y-102144437D01*
X181358038Y-102144437D02*
X181310419Y-102001580D01*
X181310419Y-102001580D02*
X181310419Y-101906342D01*
X181310419Y-101906342D02*
X181358038Y-101763485D01*
X181358038Y-101763485D02*
X181405657Y-101715866D01*
X181643752Y-100858723D02*
X182310419Y-100858723D01*
X181262800Y-101096818D02*
X181977085Y-101334913D01*
X181977085Y-101334913D02*
X181977085Y-100715866D01*
X185313980Y-101694366D02*
X185361600Y-101741985D01*
X185361600Y-101741985D02*
X185409219Y-101884842D01*
X185409219Y-101884842D02*
X185409219Y-101980080D01*
X185409219Y-101980080D02*
X185361600Y-102122937D01*
X185361600Y-102122937D02*
X185266361Y-102218175D01*
X185266361Y-102218175D02*
X185171123Y-102265794D01*
X185171123Y-102265794D02*
X184980647Y-102313413D01*
X184980647Y-102313413D02*
X184837790Y-102313413D01*
X184837790Y-102313413D02*
X184647314Y-102265794D01*
X184647314Y-102265794D02*
X184552076Y-102218175D01*
X184552076Y-102218175D02*
X184456838Y-102122937D01*
X184456838Y-102122937D02*
X184409219Y-101980080D01*
X184409219Y-101980080D02*
X184409219Y-101884842D01*
X184409219Y-101884842D02*
X184456838Y-101741985D01*
X184456838Y-101741985D02*
X184504457Y-101694366D01*
X184409219Y-101361032D02*
X184409219Y-100741985D01*
X184409219Y-100741985D02*
X184790171Y-101075318D01*
X184790171Y-101075318D02*
X184790171Y-100932461D01*
X184790171Y-100932461D02*
X184837790Y-100837223D01*
X184837790Y-100837223D02*
X184885409Y-100789604D01*
X184885409Y-100789604D02*
X184980647Y-100741985D01*
X184980647Y-100741985D02*
X185218742Y-100741985D01*
X185218742Y-100741985D02*
X185313980Y-100789604D01*
X185313980Y-100789604D02*
X185361600Y-100837223D01*
X185361600Y-100837223D02*
X185409219Y-100932461D01*
X185409219Y-100932461D02*
X185409219Y-101218175D01*
X185409219Y-101218175D02*
X185361600Y-101313413D01*
X185361600Y-101313413D02*
X185313980Y-101361032D01*
X199944380Y-94756266D02*
X199992000Y-94803885D01*
X199992000Y-94803885D02*
X200039619Y-94946742D01*
X200039619Y-94946742D02*
X200039619Y-95041980D01*
X200039619Y-95041980D02*
X199992000Y-95184837D01*
X199992000Y-95184837D02*
X199896761Y-95280075D01*
X199896761Y-95280075D02*
X199801523Y-95327694D01*
X199801523Y-95327694D02*
X199611047Y-95375313D01*
X199611047Y-95375313D02*
X199468190Y-95375313D01*
X199468190Y-95375313D02*
X199277714Y-95327694D01*
X199277714Y-95327694D02*
X199182476Y-95280075D01*
X199182476Y-95280075D02*
X199087238Y-95184837D01*
X199087238Y-95184837D02*
X199039619Y-95041980D01*
X199039619Y-95041980D02*
X199039619Y-94946742D01*
X199039619Y-94946742D02*
X199087238Y-94803885D01*
X199087238Y-94803885D02*
X199134857Y-94756266D01*
X199134857Y-94375313D02*
X199087238Y-94327694D01*
X199087238Y-94327694D02*
X199039619Y-94232456D01*
X199039619Y-94232456D02*
X199039619Y-93994361D01*
X199039619Y-93994361D02*
X199087238Y-93899123D01*
X199087238Y-93899123D02*
X199134857Y-93851504D01*
X199134857Y-93851504D02*
X199230095Y-93803885D01*
X199230095Y-93803885D02*
X199325333Y-93803885D01*
X199325333Y-93803885D02*
X199468190Y-93851504D01*
X199468190Y-93851504D02*
X200039619Y-94422932D01*
X200039619Y-94422932D02*
X200039619Y-93803885D01*
X198369580Y-93892666D02*
X198417200Y-93940285D01*
X198417200Y-93940285D02*
X198464819Y-94083142D01*
X198464819Y-94083142D02*
X198464819Y-94178380D01*
X198464819Y-94178380D02*
X198417200Y-94321237D01*
X198417200Y-94321237D02*
X198321961Y-94416475D01*
X198321961Y-94416475D02*
X198226723Y-94464094D01*
X198226723Y-94464094D02*
X198036247Y-94511713D01*
X198036247Y-94511713D02*
X197893390Y-94511713D01*
X197893390Y-94511713D02*
X197702914Y-94464094D01*
X197702914Y-94464094D02*
X197607676Y-94416475D01*
X197607676Y-94416475D02*
X197512438Y-94321237D01*
X197512438Y-94321237D02*
X197464819Y-94178380D01*
X197464819Y-94178380D02*
X197464819Y-94083142D01*
X197464819Y-94083142D02*
X197512438Y-93940285D01*
X197512438Y-93940285D02*
X197560057Y-93892666D01*
X198464819Y-92940285D02*
X198464819Y-93511713D01*
X198464819Y-93225999D02*
X197464819Y-93225999D01*
X197464819Y-93225999D02*
X197607676Y-93321237D01*
X197607676Y-93321237D02*
X197702914Y-93416475D01*
X197702914Y-93416475D02*
X197750533Y-93511713D01*
D11*
X189158637Y-98340918D02*
X189158637Y-97070918D01*
X190489114Y-98219965D02*
X190428638Y-98280442D01*
X190428638Y-98280442D02*
X190247209Y-98340918D01*
X190247209Y-98340918D02*
X190126257Y-98340918D01*
X190126257Y-98340918D02*
X189944828Y-98280442D01*
X189944828Y-98280442D02*
X189823876Y-98159489D01*
X189823876Y-98159489D02*
X189763399Y-98038537D01*
X189763399Y-98038537D02*
X189702923Y-97796632D01*
X189702923Y-97796632D02*
X189702923Y-97615203D01*
X189702923Y-97615203D02*
X189763399Y-97373299D01*
X189763399Y-97373299D02*
X189823876Y-97252346D01*
X189823876Y-97252346D02*
X189944828Y-97131394D01*
X189944828Y-97131394D02*
X190126257Y-97070918D01*
X190126257Y-97070918D02*
X190247209Y-97070918D01*
X190247209Y-97070918D02*
X190428638Y-97131394D01*
X190428638Y-97131394D02*
X190489114Y-97191870D01*
X191698638Y-98340918D02*
X190972923Y-98340918D01*
X191335780Y-98340918D02*
X191335780Y-97070918D01*
X191335780Y-97070918D02*
X191214828Y-97252346D01*
X191214828Y-97252346D02*
X191093876Y-97373299D01*
X191093876Y-97373299D02*
X190972923Y-97433775D01*
X213964318Y-98143132D02*
X214871461Y-98143132D01*
X214871461Y-98143132D02*
X215052889Y-98203609D01*
X215052889Y-98203609D02*
X215173842Y-98324561D01*
X215173842Y-98324561D02*
X215234318Y-98505990D01*
X215234318Y-98505990D02*
X215234318Y-98626942D01*
X215234318Y-96873132D02*
X215234318Y-97598847D01*
X215234318Y-97235990D02*
X213964318Y-97235990D01*
X213964318Y-97235990D02*
X214145746Y-97356942D01*
X214145746Y-97356942D02*
X214266699Y-97477894D01*
X214266699Y-97477894D02*
X214327175Y-97598847D01*
D12*
%TO.C,R8*%
X211461227Y-118006175D02*
X211224175Y-118243227D01*
X210923825Y-117468773D02*
X210686773Y-117705825D01*
%TO.C,R7*%
X219074000Y-118805979D02*
X219074000Y-119141221D01*
X218314000Y-118805979D02*
X218314000Y-119141221D01*
%TO.C,R6*%
X194385200Y-105089979D02*
X194385200Y-105425221D01*
X193625200Y-105089979D02*
X193625200Y-105425221D01*
%TO.C,R5*%
X195047600Y-90998021D02*
X195047600Y-90662779D01*
X195807600Y-90998021D02*
X195807600Y-90662779D01*
%TO.C,R4*%
X193877200Y-90611979D02*
X193877200Y-90947221D01*
X193117200Y-90611979D02*
X193117200Y-90947221D01*
%TO.C,R3*%
X200026000Y-94604821D02*
X200026000Y-94269579D01*
X200786000Y-94604821D02*
X200786000Y-94269579D01*
%TO.C,R2*%
X200379600Y-97520779D02*
X200379600Y-97856021D01*
X199619600Y-97520779D02*
X199619600Y-97856021D01*
%TO.C,R1*%
X198296800Y-100873579D02*
X198296800Y-101208821D01*
X197536800Y-100873579D02*
X197536800Y-101208821D01*
%TO.C,C5*%
X177804400Y-101534965D02*
X177804400Y-101766635D01*
X177084400Y-101534965D02*
X177084400Y-101766635D01*
%TO.C,C4*%
X181055600Y-101433365D02*
X181055600Y-101665035D01*
X180335600Y-101433365D02*
X180335600Y-101665035D01*
%TO.C,C3*%
X184154400Y-101411865D02*
X184154400Y-101643535D01*
X183434400Y-101411865D02*
X183434400Y-101643535D01*
%TO.C,C2*%
X198784800Y-94473765D02*
X198784800Y-94705435D01*
X198064800Y-94473765D02*
X198064800Y-94705435D01*
%TO.C,C1*%
X197210000Y-93610165D02*
X197210000Y-93841835D01*
X196490000Y-93610165D02*
X196490000Y-93841835D01*
D13*
%TO.C,IC1*%
X185798400Y-94266600D02*
G75*
G03*
X185798400Y-94266600I-125000J0D01*
G01*
D14*
X193548400Y-100916600D02*
X187248400Y-100916600D01*
X193548400Y-94616600D02*
X193548400Y-100916600D01*
X187248400Y-100916600D02*
X187248400Y-94616600D01*
X187248400Y-94616600D02*
X193548400Y-94616600D01*
%TO.C,J1*%
X202940000Y-93389800D02*
G75*
G03*
X203040000Y-93389800I50000J0D01*
G01*
X202940000Y-93389800D02*
G75*
G03*
X203040000Y-93389800I50000J0D01*
G01*
X203040000Y-93389800D02*
G75*
G03*
X202940000Y-93389800I-50000J0D01*
G01*
X219710000Y-82314800D02*
X219710000Y-113124800D01*
X203610000Y-82314800D02*
X219710000Y-82314800D01*
X225510000Y-83224800D02*
X225510000Y-87224800D01*
X219710000Y-83224800D02*
X225510000Y-83224800D01*
X225510000Y-87224800D02*
X219710000Y-87224800D01*
X219710000Y-87224800D02*
X219710000Y-83224800D01*
X225710000Y-89554800D02*
X225710000Y-105884800D01*
X219710000Y-89554800D02*
X225710000Y-89554800D01*
X203040000Y-93389800D02*
X203040000Y-93389800D01*
X202940000Y-93389800D02*
X202940000Y-93389800D01*
X202940000Y-93389800D02*
X202940000Y-93389800D01*
X225710000Y-105884800D02*
X219710000Y-105884800D01*
X225510000Y-108214800D02*
X225510000Y-112214800D01*
X219710000Y-108214800D02*
X225510000Y-108214800D01*
X225510000Y-112214800D02*
X219710000Y-112214800D01*
X219710000Y-112214800D02*
X219710000Y-108214800D01*
X219710000Y-113124800D02*
X203610000Y-113124800D01*
X203610000Y-113124800D02*
X203610000Y-82314800D01*
%TD*%
M02*
