M48
; DRILL file {KiCad 7.0.7} date Sat Nov 25 23:50:16 2023
; FORMAT={-:-/ absolute / inch / decimal}
; #@! TF.CreationDate,2023-11-25T23:50:16-06:00
; #@! TF.GenerationSoftware,Kicad,Pcbnew,7.0.7
; #@! TF.FileFunction,Plated,1,4,PTH
FMAT,2
INCH
; #@! TA.AperFunction,Plated,PTH,ViaDrill
T1C0.0157
; #@! TA.AperFunction,Plated,PTH,ComponentDrill
T2C0.0394
; #@! TA.AperFunction,Plated,PTH,ComponentDrill
T3C0.0433
; #@! TA.AperFunction,Plated,PTH,ComponentDrill
T4C0.1260
%
G90
G05
T1
X6.63Y-3.964
X6.656Y-3.754
X6.696Y-3.634
X6.76Y-3.756
X6.79Y-3.638
X6.818Y-4.728
X6.886Y-4.016
X6.892Y-3.634
X6.902Y-4.784
X6.918Y-3.76
X6.948Y-4.024
X6.982Y-4.718
X7.018Y-3.632
X7.038Y-3.762
X7.062Y-4.022
X7.062Y-4.776
X7.104Y-3.896
X7.136Y-3.932
X7.152Y-4.72
X7.186Y-3.866
X7.188Y-4.02
X7.232Y-4.776
X7.296Y-4.712
X7.33Y-3.9845
X7.388Y-4.78
X7.39Y-3.928
X7.39Y-4.07
X7.41Y-4.11
X7.434Y-4.152
X7.452Y-4.704
X7.476Y-4.146
X7.5112Y-4.1284
X7.518Y-3.932
X7.542Y-4.772
X7.548Y-3.9
X7.55Y-4.1539
X7.592Y-4.142
X7.5934Y-3.94
X7.594Y-3.838
X7.596Y-4.7
X7.62Y-3.506
X7.674Y-3.992
X7.676Y-4.782
X7.68Y-3.678
X7.698Y-3.512
X7.746Y-3.878
X7.75Y-4.708
X7.754Y-3.622
X7.81Y-3.656
X7.842Y-4.03
X7.874Y-4.772
X7.902Y-3.656
X7.946Y-3.776
X7.954Y-3.884
X7.966Y-4.706
X8.062Y-4.768
X8.116Y-4.714
X8.23Y-4.78
X8.334Y-4.734
X8.406Y-4.348
X8.41Y-4.5
X8.416Y-4.172
X8.422Y-4.66
X8.434Y-4.056
X8.446Y-4.744
X8.48Y-4.202
X8.538Y-4.356
X8.552Y-4.566
T2
X6.436Y-2.918
X6.436Y-3.018
X6.436Y-3.118
X6.436Y-3.218
X6.436Y-3.318
X6.436Y-3.418
X6.436Y-3.518
X6.436Y-3.618
X6.436Y-3.718
X6.436Y-3.818
X6.436Y-3.918
X6.436Y-4.018
X6.436Y-4.118
X6.436Y-4.218
X6.436Y-4.318
X6.436Y-4.418
X6.436Y-4.518
X6.436Y-4.618
X6.436Y-4.718
X6.436Y-4.818
X6.536Y-2.918
X6.536Y-3.018
X6.536Y-3.118
X6.536Y-3.218
X6.536Y-3.318
X6.536Y-3.418
X6.536Y-3.518
X6.536Y-3.618
X6.536Y-3.718
X6.536Y-3.818
X6.536Y-3.918
X6.536Y-4.018
X6.536Y-4.118
X6.536Y-4.218
X6.536Y-4.318
X6.536Y-4.418
X6.536Y-4.518
X6.536Y-4.618
X6.536Y-4.718
X6.536Y-4.818
T3
X8.1Y-3.6768
X8.1Y-3.7669
X8.1Y-3.8571
X8.1Y-3.9472
X8.1Y-4.0374
X8.2Y-3.6317
X8.2Y-3.7218
X8.2Y-3.812
X8.2Y-3.9022
X8.2Y-3.9923
X8.3Y-3.6768
X8.3Y-3.7669
X8.3Y-3.8571
X8.3Y-3.9472
X8.3Y-4.0374
T4
X8.2Y-3.3553
X8.2Y-4.3392
T0
M30
