%TF.GenerationSoftware,KiCad,Pcbnew,7.0.7*%
%TF.CreationDate,2023-11-25T23:50:16-06:00*%
%TF.ProjectId,DAC2DE0,44414332-4445-4302-9e6b-696361645f70,rev?*%
%TF.SameCoordinates,Original*%
%TF.FileFunction,Drillmap*%
%TF.FilePolarity,Positive*%
%FSLAX45Y45*%
G04 Gerber Fmt 4.5, Leading zero omitted, Abs format (unit mm)*
G04 Created by KiCad (PCBNEW 7.0.7) date 2023-11-25 23:50:16*
%MOMM*%
%LPD*%
G01*
G04 APERTURE LIST*
%ADD10C,0.100000*%
%ADD11C,0.200000*%
G04 APERTURE END LIST*
D10*
X22687280Y-12542520D02*
X15966440Y-12542520D01*
X15966440Y-7091680D01*
X22687280Y-7091680D01*
X22687280Y-12542520D01*
D11*
X16222217Y-12859004D02*
X16222217Y-12659004D01*
X16222217Y-12659004D02*
X16269836Y-12659004D01*
X16269836Y-12659004D02*
X16298407Y-12668528D01*
X16298407Y-12668528D02*
X16317455Y-12687575D01*
X16317455Y-12687575D02*
X16326979Y-12706623D01*
X16326979Y-12706623D02*
X16336502Y-12744718D01*
X16336502Y-12744718D02*
X16336502Y-12773289D01*
X16336502Y-12773289D02*
X16326979Y-12811385D01*
X16326979Y-12811385D02*
X16317455Y-12830432D01*
X16317455Y-12830432D02*
X16298407Y-12849480D01*
X16298407Y-12849480D02*
X16269836Y-12859004D01*
X16269836Y-12859004D02*
X16222217Y-12859004D01*
X16422217Y-12859004D02*
X16422217Y-12725670D01*
X16422217Y-12763766D02*
X16431741Y-12744718D01*
X16431741Y-12744718D02*
X16441264Y-12735194D01*
X16441264Y-12735194D02*
X16460312Y-12725670D01*
X16460312Y-12725670D02*
X16479360Y-12725670D01*
X16546026Y-12859004D02*
X16546026Y-12725670D01*
X16546026Y-12659004D02*
X16536502Y-12668528D01*
X16536502Y-12668528D02*
X16546026Y-12678051D01*
X16546026Y-12678051D02*
X16555550Y-12668528D01*
X16555550Y-12668528D02*
X16546026Y-12659004D01*
X16546026Y-12659004D02*
X16546026Y-12678051D01*
X16669836Y-12859004D02*
X16650788Y-12849480D01*
X16650788Y-12849480D02*
X16641264Y-12830432D01*
X16641264Y-12830432D02*
X16641264Y-12659004D01*
X16774598Y-12859004D02*
X16755550Y-12849480D01*
X16755550Y-12849480D02*
X16746026Y-12830432D01*
X16746026Y-12830432D02*
X16746026Y-12659004D01*
X17003169Y-12859004D02*
X17003169Y-12659004D01*
X17003169Y-12659004D02*
X17069836Y-12801861D01*
X17069836Y-12801861D02*
X17136503Y-12659004D01*
X17136503Y-12659004D02*
X17136503Y-12859004D01*
X17317455Y-12859004D02*
X17317455Y-12754242D01*
X17317455Y-12754242D02*
X17307931Y-12735194D01*
X17307931Y-12735194D02*
X17288884Y-12725670D01*
X17288884Y-12725670D02*
X17250788Y-12725670D01*
X17250788Y-12725670D02*
X17231741Y-12735194D01*
X17317455Y-12849480D02*
X17298407Y-12859004D01*
X17298407Y-12859004D02*
X17250788Y-12859004D01*
X17250788Y-12859004D02*
X17231741Y-12849480D01*
X17231741Y-12849480D02*
X17222217Y-12830432D01*
X17222217Y-12830432D02*
X17222217Y-12811385D01*
X17222217Y-12811385D02*
X17231741Y-12792337D01*
X17231741Y-12792337D02*
X17250788Y-12782813D01*
X17250788Y-12782813D02*
X17298407Y-12782813D01*
X17298407Y-12782813D02*
X17317455Y-12773289D01*
X17412693Y-12725670D02*
X17412693Y-12925670D01*
X17412693Y-12735194D02*
X17431741Y-12725670D01*
X17431741Y-12725670D02*
X17469836Y-12725670D01*
X17469836Y-12725670D02*
X17488884Y-12735194D01*
X17488884Y-12735194D02*
X17498407Y-12744718D01*
X17498407Y-12744718D02*
X17507931Y-12763766D01*
X17507931Y-12763766D02*
X17507931Y-12820908D01*
X17507931Y-12820908D02*
X17498407Y-12839956D01*
X17498407Y-12839956D02*
X17488884Y-12849480D01*
X17488884Y-12849480D02*
X17469836Y-12859004D01*
X17469836Y-12859004D02*
X17431741Y-12859004D01*
X17431741Y-12859004D02*
X17412693Y-12849480D01*
X17593645Y-12839956D02*
X17603169Y-12849480D01*
X17603169Y-12849480D02*
X17593645Y-12859004D01*
X17593645Y-12859004D02*
X17584122Y-12849480D01*
X17584122Y-12849480D02*
X17593645Y-12839956D01*
X17593645Y-12839956D02*
X17593645Y-12859004D01*
X17593645Y-12735194D02*
X17603169Y-12744718D01*
X17603169Y-12744718D02*
X17593645Y-12754242D01*
X17593645Y-12754242D02*
X17584122Y-12744718D01*
X17584122Y-12744718D02*
X17593645Y-12735194D01*
X17593645Y-12735194D02*
X17593645Y-12754242D01*
M02*
