%TF.GenerationSoftware,KiCad,Pcbnew,7.0.7*%
%TF.CreationDate,2023-11-25T23:50:18-06:00*%
%TF.ProjectId,DAC2DE0,44414332-4445-4302-9e6b-696361645f70,rev?*%
%TF.SameCoordinates,Original*%
%TF.FileFunction,Paste,Top*%
%TF.FilePolarity,Positive*%
%FSLAX46Y46*%
G04 Gerber Fmt 4.6, Leading zero omitted, Abs format (unit mm)*
G04 Created by KiCad (PCBNEW 7.0.7) date 2023-11-25 23:50:18*
%MOMM*%
%LPD*%
G01*
G04 APERTURE LIST*
G04 Aperture macros list*
%AMRoundRect*
0 Rectangle with rounded corners*
0 $1 Rounding radius*
0 $2 $3 $4 $5 $6 $7 $8 $9 X,Y pos of 4 corners*
0 Add a 4 corners polygon primitive as box body*
4,1,4,$2,$3,$4,$5,$6,$7,$8,$9,$2,$3,0*
0 Add four circle primitives for the rounded corners*
1,1,$1+$1,$2,$3*
1,1,$1+$1,$4,$5*
1,1,$1+$1,$6,$7*
1,1,$1+$1,$8,$9*
0 Add four rect primitives between the rounded corners*
20,1,$1+$1,$2,$3,$4,$5,0*
20,1,$1+$1,$4,$5,$6,$7,0*
20,1,$1+$1,$6,$7,$8,$9,0*
20,1,$1+$1,$8,$9,$2,$3,0*%
G04 Aperture macros list end*
%ADD10RoundRect,0.160000X0.026517X0.252791X-0.252791X-0.026517X-0.026517X-0.252791X0.252791X0.026517X0*%
%ADD11RoundRect,0.160000X-0.160000X0.197500X-0.160000X-0.197500X0.160000X-0.197500X0.160000X0.197500X0*%
%ADD12RoundRect,0.160000X0.160000X-0.197500X0.160000X0.197500X-0.160000X0.197500X-0.160000X-0.197500X0*%
%ADD13RoundRect,0.155000X-0.155000X0.212500X-0.155000X-0.212500X0.155000X-0.212500X0.155000X0.212500X0*%
%ADD14R,0.300000X1.475000*%
%ADD15R,1.475000X0.300000*%
G04 APERTURE END LIST*
D10*
%TO.C,R8*%
X211496496Y-117433504D03*
X210651504Y-118278496D03*
%TD*%
D11*
%TO.C,R7*%
X218694000Y-118376100D03*
X218694000Y-119571100D03*
%TD*%
%TO.C,R6*%
X194005200Y-104660100D03*
X194005200Y-105855100D03*
%TD*%
D12*
%TO.C,R5*%
X195427600Y-91427900D03*
X195427600Y-90232900D03*
%TD*%
D11*
%TO.C,R4*%
X193497200Y-90182100D03*
X193497200Y-91377100D03*
%TD*%
D12*
%TO.C,R3*%
X200406000Y-95034700D03*
X200406000Y-93839700D03*
%TD*%
D11*
%TO.C,R2*%
X199999600Y-97090900D03*
X199999600Y-98285900D03*
%TD*%
%TO.C,R1*%
X197916800Y-100443700D03*
X197916800Y-101638700D03*
%TD*%
D13*
%TO.C,C5*%
X177444400Y-101083300D03*
X177444400Y-102218300D03*
%TD*%
%TO.C,C4*%
X180695600Y-100981700D03*
X180695600Y-102116700D03*
%TD*%
%TO.C,C3*%
X183794400Y-100960200D03*
X183794400Y-102095200D03*
%TD*%
%TO.C,C2*%
X198424800Y-94022100D03*
X198424800Y-95157100D03*
%TD*%
%TO.C,C1*%
X196850000Y-93158500D03*
X196850000Y-94293500D03*
%TD*%
D14*
%TO.C,IC1*%
X187648400Y-93528600D03*
X188148400Y-93528600D03*
X188648400Y-93528600D03*
X189148400Y-93528600D03*
X189648400Y-93528600D03*
X190148400Y-93528600D03*
X190648400Y-93528600D03*
X191148400Y-93528600D03*
X191648400Y-93528600D03*
X192148400Y-93528600D03*
X192648400Y-93528600D03*
X193148400Y-93528600D03*
D15*
X194636400Y-95016600D03*
X194636400Y-95516600D03*
X194636400Y-96016600D03*
X194636400Y-96516600D03*
X194636400Y-97016600D03*
X194636400Y-97516600D03*
X194636400Y-98016600D03*
X194636400Y-98516600D03*
X194636400Y-99016600D03*
X194636400Y-99516600D03*
X194636400Y-100016600D03*
X194636400Y-100516600D03*
D14*
X193148400Y-102004600D03*
X192648400Y-102004600D03*
X192148400Y-102004600D03*
X191648400Y-102004600D03*
X191148400Y-102004600D03*
X190648400Y-102004600D03*
X190148400Y-102004600D03*
X189648400Y-102004600D03*
X189148400Y-102004600D03*
X188648400Y-102004600D03*
X188148400Y-102004600D03*
X187648400Y-102004600D03*
D15*
X186160400Y-100516600D03*
X186160400Y-100016600D03*
X186160400Y-99516600D03*
X186160400Y-99016600D03*
X186160400Y-98516600D03*
X186160400Y-98016600D03*
X186160400Y-97516600D03*
X186160400Y-97016600D03*
X186160400Y-96516600D03*
X186160400Y-96016600D03*
X186160400Y-95516600D03*
X186160400Y-95016600D03*
%TD*%
M02*
