%TF.GenerationSoftware,KiCad,Pcbnew,7.0.7*%
%TF.CreationDate,2023-11-25T23:50:18-06:00*%
%TF.ProjectId,DAC2DE0,44414332-4445-4302-9e6b-696361645f70,rev?*%
%TF.SameCoordinates,Original*%
%TF.FileFunction,Soldermask,Bot*%
%TF.FilePolarity,Negative*%
%FSLAX46Y46*%
G04 Gerber Fmt 4.6, Leading zero omitted, Abs format (unit mm)*
G04 Created by KiCad (PCBNEW 7.0.7) date 2023-11-25 23:50:18*
%MOMM*%
%LPD*%
G01*
G04 APERTURE LIST*
%ADD10R,1.700000X1.700000*%
%ADD11O,1.700000X1.700000*%
%ADD12C,4.800000*%
%ADD13C,1.650000*%
G04 APERTURE END LIST*
D10*
%TO.C,J3*%
X163474400Y-74117200D03*
D11*
X166014400Y-74117200D03*
X163474400Y-76657200D03*
X166014400Y-76657200D03*
X163474400Y-79197200D03*
X166014400Y-79197200D03*
X163474400Y-81737200D03*
X166014400Y-81737200D03*
X163474400Y-84277200D03*
X166014400Y-84277200D03*
X163474400Y-86817200D03*
X166014400Y-86817200D03*
X163474400Y-89357200D03*
X166014400Y-89357200D03*
X163474400Y-91897200D03*
X166014400Y-91897200D03*
X163474400Y-94437200D03*
X166014400Y-94437200D03*
X163474400Y-96977200D03*
X166014400Y-96977200D03*
X163474400Y-99517200D03*
X166014400Y-99517200D03*
X163474400Y-102057200D03*
X166014400Y-102057200D03*
X163474400Y-104597200D03*
X166014400Y-104597200D03*
X163474400Y-107137200D03*
X166014400Y-107137200D03*
X163474400Y-109677200D03*
X166014400Y-109677200D03*
X163474400Y-112217200D03*
X166014400Y-112217200D03*
X163474400Y-114757200D03*
X166014400Y-114757200D03*
X163474400Y-117297200D03*
X166014400Y-117297200D03*
X163474400Y-119837200D03*
X166014400Y-119837200D03*
X163474400Y-122377200D03*
X166014400Y-122377200D03*
%TD*%
D12*
%TO.C,J1*%
X208280000Y-110214800D03*
X208280000Y-85224800D03*
D13*
X210820000Y-102549800D03*
X210820000Y-100259800D03*
X210820000Y-97969800D03*
X210820000Y-95679800D03*
X210820000Y-93389800D03*
X208280000Y-101404800D03*
X208280000Y-99114800D03*
X208280000Y-96824800D03*
X208280000Y-94534800D03*
X208280000Y-92244800D03*
X205740000Y-102549800D03*
X205740000Y-100259800D03*
X205740000Y-97969800D03*
X205740000Y-95679800D03*
X205740000Y-93389800D03*
%TD*%
M02*
