%TF.GenerationSoftware,KiCad,Pcbnew,7.0.7*%
%TF.CreationDate,2023-11-25T23:50:16-06:00*%
%TF.ProjectId,DAC2DE0,44414332-4445-4302-9e6b-696361645f70,rev?*%
%TF.SameCoordinates,Original*%
%TF.FileFunction,Drillmap*%
%TF.FilePolarity,Positive*%
%FSLAX45Y45*%
G04 Gerber Fmt 4.5, Leading zero omitted, Abs format (unit mm)*
G04 Created by KiCad (PCBNEW 7.0.7) date 2023-11-25 23:50:16*
%MOMM*%
%LPD*%
G01*
G04 APERTURE LIST*
%ADD10C,0.100000*%
%ADD11C,0.200000*%
%ADD12C,0.040000*%
%ADD13C,0.110000*%
%ADD14C,0.320000*%
G04 APERTURE END LIST*
D10*
X22687280Y-12542520D02*
X15966440Y-12542520D01*
X15966440Y-7091680D01*
X22687280Y-7091680D01*
X22687280Y-12542520D01*
D11*
D12*
X16820200Y-10048560D02*
X16860200Y-10088560D01*
X16860200Y-10048560D02*
X16820200Y-10088560D01*
X16886240Y-9515160D02*
X16926240Y-9555160D01*
X16926240Y-9515160D02*
X16886240Y-9555160D01*
X16987840Y-9210360D02*
X17027840Y-9250360D01*
X17027840Y-9210360D02*
X16987840Y-9250360D01*
X17150400Y-9520240D02*
X17190400Y-9560240D01*
X17190400Y-9520240D02*
X17150400Y-9560240D01*
X17226600Y-9220520D02*
X17266600Y-9260520D01*
X17266600Y-9220520D02*
X17226600Y-9260520D01*
X17297720Y-11989120D02*
X17337720Y-12029120D01*
X17337720Y-11989120D02*
X17297720Y-12029120D01*
X17470440Y-10180640D02*
X17510440Y-10220640D01*
X17510440Y-10180640D02*
X17470440Y-10220640D01*
X17485680Y-9210360D02*
X17525680Y-9250360D01*
X17525680Y-9210360D02*
X17485680Y-9250360D01*
X17511080Y-12131360D02*
X17551080Y-12171360D01*
X17551080Y-12131360D02*
X17511080Y-12171360D01*
X17551720Y-9530400D02*
X17591720Y-9570400D01*
X17591720Y-9530400D02*
X17551720Y-9570400D01*
X17627920Y-10200960D02*
X17667920Y-10240960D01*
X17667920Y-10200960D02*
X17627920Y-10240960D01*
X17714280Y-11963720D02*
X17754280Y-12003720D01*
X17754280Y-11963720D02*
X17714280Y-12003720D01*
X17805720Y-9205280D02*
X17845720Y-9245280D01*
X17845720Y-9205280D02*
X17805720Y-9245280D01*
X17856520Y-9535480D02*
X17896520Y-9575480D01*
X17896520Y-9535480D02*
X17856520Y-9575480D01*
X17917480Y-10195880D02*
X17957480Y-10235880D01*
X17957480Y-10195880D02*
X17917480Y-10235880D01*
X17917480Y-12111040D02*
X17957480Y-12151040D01*
X17957480Y-12111040D02*
X17917480Y-12151040D01*
X18024160Y-9875840D02*
X18064160Y-9915840D01*
X18064160Y-9875840D02*
X18024160Y-9915840D01*
X18105440Y-9967280D02*
X18145440Y-10007280D01*
X18145440Y-9967280D02*
X18105440Y-10007280D01*
X18146080Y-11968800D02*
X18186080Y-12008800D01*
X18186080Y-11968800D02*
X18146080Y-12008800D01*
X18232440Y-9799640D02*
X18272440Y-9839640D01*
X18272440Y-9799640D02*
X18232440Y-9839640D01*
X18237520Y-10190800D02*
X18277520Y-10230800D01*
X18277520Y-10190800D02*
X18237520Y-10230800D01*
X18349280Y-12111040D02*
X18389280Y-12151040D01*
X18389280Y-12111040D02*
X18349280Y-12151040D01*
X18511840Y-11948480D02*
X18551840Y-11988480D01*
X18551840Y-11948480D02*
X18511840Y-11988480D01*
X18598200Y-10100510D02*
X18638200Y-10140510D01*
X18638200Y-10100510D02*
X18598200Y-10140510D01*
X18745520Y-12121200D02*
X18785520Y-12161200D01*
X18785520Y-12121200D02*
X18745520Y-12161200D01*
X18750600Y-9957120D02*
X18790600Y-9997120D01*
X18790600Y-9957120D02*
X18750600Y-9997120D01*
X18750600Y-10317800D02*
X18790600Y-10357800D01*
X18790600Y-10317800D02*
X18750600Y-10357800D01*
X18801400Y-10419400D02*
X18841400Y-10459400D01*
X18841400Y-10419400D02*
X18801400Y-10459400D01*
X18862360Y-10526080D02*
X18902360Y-10566080D01*
X18902360Y-10526080D02*
X18862360Y-10566080D01*
X18908080Y-11928160D02*
X18948080Y-11968160D01*
X18948080Y-11928160D02*
X18908080Y-11968160D01*
X18969040Y-10510840D02*
X19009040Y-10550840D01*
X19009040Y-10510840D02*
X18969040Y-10550840D01*
X19058438Y-10466141D02*
X19098438Y-10506141D01*
X19098438Y-10466141D02*
X19058438Y-10506141D01*
X19075720Y-9967280D02*
X19115720Y-10007280D01*
X19115720Y-9967280D02*
X19075720Y-10007280D01*
X19136680Y-12100880D02*
X19176680Y-12140880D01*
X19176680Y-12100880D02*
X19136680Y-12140880D01*
X19151920Y-9886000D02*
X19191920Y-9926000D01*
X19191920Y-9886000D02*
X19151920Y-9926000D01*
X19157000Y-10530810D02*
X19197000Y-10570810D01*
X19197000Y-10530810D02*
X19157000Y-10570810D01*
X19263680Y-10500680D02*
X19303680Y-10540680D01*
X19303680Y-10500680D02*
X19263680Y-10540680D01*
X19267290Y-9987600D02*
X19307290Y-10027600D01*
X19307290Y-9987600D02*
X19267290Y-10027600D01*
X19268760Y-9728520D02*
X19308760Y-9768520D01*
X19308760Y-9728520D02*
X19268760Y-9768520D01*
X19273840Y-11918000D02*
X19313840Y-11958000D01*
X19313840Y-11918000D02*
X19273840Y-11958000D01*
X19334800Y-8885240D02*
X19374800Y-8925240D01*
X19374800Y-8885240D02*
X19334800Y-8925240D01*
X19471960Y-10119680D02*
X19511960Y-10159680D01*
X19511960Y-10119680D02*
X19471960Y-10159680D01*
X19477040Y-12126280D02*
X19517040Y-12166280D01*
X19517040Y-12126280D02*
X19477040Y-12166280D01*
X19487200Y-9322120D02*
X19527200Y-9362120D01*
X19527200Y-9322120D02*
X19487200Y-9362120D01*
X19532920Y-8900480D02*
X19572920Y-8940480D01*
X19572920Y-8900480D02*
X19532920Y-8940480D01*
X19654840Y-9830120D02*
X19694840Y-9870120D01*
X19694840Y-9830120D02*
X19654840Y-9870120D01*
X19665000Y-11938320D02*
X19705000Y-11978320D01*
X19705000Y-11938320D02*
X19665000Y-11978320D01*
X19675160Y-9179880D02*
X19715160Y-9219880D01*
X19715160Y-9179880D02*
X19675160Y-9219880D01*
X19817400Y-9266240D02*
X19857400Y-9306240D01*
X19857400Y-9266240D02*
X19817400Y-9306240D01*
X19898680Y-10216200D02*
X19938680Y-10256200D01*
X19938680Y-10216200D02*
X19898680Y-10256200D01*
X19979960Y-12100880D02*
X20019960Y-12140880D01*
X20019960Y-12100880D02*
X19979960Y-12140880D01*
X20051080Y-9266240D02*
X20091080Y-9306240D01*
X20091080Y-9266240D02*
X20051080Y-9306240D01*
X20162840Y-9571040D02*
X20202840Y-9611040D01*
X20202840Y-9571040D02*
X20162840Y-9611040D01*
X20183160Y-9845360D02*
X20223160Y-9885360D01*
X20223160Y-9845360D02*
X20183160Y-9885360D01*
X20213640Y-11933240D02*
X20253640Y-11973240D01*
X20253640Y-11933240D02*
X20213640Y-11973240D01*
X20457480Y-12090720D02*
X20497480Y-12130720D01*
X20497480Y-12090720D02*
X20457480Y-12130720D01*
X20594640Y-11953560D02*
X20634640Y-11993560D01*
X20634640Y-11953560D02*
X20594640Y-11993560D01*
X20884200Y-12121200D02*
X20924200Y-12161200D01*
X20924200Y-12121200D02*
X20884200Y-12161200D01*
X21148360Y-12004360D02*
X21188360Y-12044360D01*
X21188360Y-12004360D02*
X21148360Y-12044360D01*
X21331240Y-11023920D02*
X21371240Y-11063920D01*
X21371240Y-11023920D02*
X21331240Y-11063920D01*
X21341400Y-11410000D02*
X21381400Y-11450000D01*
X21381400Y-11410000D02*
X21341400Y-11450000D01*
X21356640Y-10576880D02*
X21396640Y-10616880D01*
X21396640Y-10576880D02*
X21356640Y-10616880D01*
X21371880Y-11816400D02*
X21411880Y-11856400D01*
X21411880Y-11816400D02*
X21371880Y-11856400D01*
X21402360Y-10282240D02*
X21442360Y-10322240D01*
X21442360Y-10282240D02*
X21402360Y-10322240D01*
X21432840Y-12029760D02*
X21472840Y-12069760D01*
X21472840Y-12029760D02*
X21432840Y-12069760D01*
X21519200Y-10653080D02*
X21559200Y-10693080D01*
X21559200Y-10653080D02*
X21519200Y-10693080D01*
X21666520Y-11044240D02*
X21706520Y-11084240D01*
X21706520Y-11044240D02*
X21666520Y-11084240D01*
X21702080Y-11577640D02*
X21742080Y-11617640D01*
X21742080Y-11577640D02*
X21702080Y-11617640D01*
D10*
X16397440Y-7411720D02*
G75*
G03*
X16397440Y-7411720I-50000J0D01*
G01*
X16397440Y-7665720D02*
G75*
G03*
X16397440Y-7665720I-50000J0D01*
G01*
X16397440Y-7919720D02*
G75*
G03*
X16397440Y-7919720I-50000J0D01*
G01*
X16397440Y-8173720D02*
G75*
G03*
X16397440Y-8173720I-50000J0D01*
G01*
X16397440Y-8427720D02*
G75*
G03*
X16397440Y-8427720I-50000J0D01*
G01*
X16397440Y-8681720D02*
G75*
G03*
X16397440Y-8681720I-50000J0D01*
G01*
X16397440Y-8935720D02*
G75*
G03*
X16397440Y-8935720I-50000J0D01*
G01*
X16397440Y-9189720D02*
G75*
G03*
X16397440Y-9189720I-50000J0D01*
G01*
X16397440Y-9443720D02*
G75*
G03*
X16397440Y-9443720I-50000J0D01*
G01*
X16397440Y-9697720D02*
G75*
G03*
X16397440Y-9697720I-50000J0D01*
G01*
X16397440Y-9951720D02*
G75*
G03*
X16397440Y-9951720I-50000J0D01*
G01*
X16397440Y-10205720D02*
G75*
G03*
X16397440Y-10205720I-50000J0D01*
G01*
X16397440Y-10459720D02*
G75*
G03*
X16397440Y-10459720I-50000J0D01*
G01*
X16397440Y-10713720D02*
G75*
G03*
X16397440Y-10713720I-50000J0D01*
G01*
X16397440Y-10967720D02*
G75*
G03*
X16397440Y-10967720I-50000J0D01*
G01*
X16397440Y-11221720D02*
G75*
G03*
X16397440Y-11221720I-50000J0D01*
G01*
X16397440Y-11475720D02*
G75*
G03*
X16397440Y-11475720I-50000J0D01*
G01*
X16397440Y-11729720D02*
G75*
G03*
X16397440Y-11729720I-50000J0D01*
G01*
X16397440Y-11983720D02*
G75*
G03*
X16397440Y-11983720I-50000J0D01*
G01*
X16397440Y-12237720D02*
G75*
G03*
X16397440Y-12237720I-50000J0D01*
G01*
X16651440Y-7411720D02*
G75*
G03*
X16651440Y-7411720I-50000J0D01*
G01*
X16651440Y-7665720D02*
G75*
G03*
X16651440Y-7665720I-50000J0D01*
G01*
X16651440Y-7919720D02*
G75*
G03*
X16651440Y-7919720I-50000J0D01*
G01*
X16651440Y-8173720D02*
G75*
G03*
X16651440Y-8173720I-50000J0D01*
G01*
X16651440Y-8427720D02*
G75*
G03*
X16651440Y-8427720I-50000J0D01*
G01*
X16651440Y-8681720D02*
G75*
G03*
X16651440Y-8681720I-50000J0D01*
G01*
X16651440Y-8935720D02*
G75*
G03*
X16651440Y-8935720I-50000J0D01*
G01*
X16651440Y-9189720D02*
G75*
G03*
X16651440Y-9189720I-50000J0D01*
G01*
X16651440Y-9443720D02*
G75*
G03*
X16651440Y-9443720I-50000J0D01*
G01*
X16651440Y-9697720D02*
G75*
G03*
X16651440Y-9697720I-50000J0D01*
G01*
X16651440Y-9951720D02*
G75*
G03*
X16651440Y-9951720I-50000J0D01*
G01*
X16651440Y-10205720D02*
G75*
G03*
X16651440Y-10205720I-50000J0D01*
G01*
X16651440Y-10459720D02*
G75*
G03*
X16651440Y-10459720I-50000J0D01*
G01*
X16651440Y-10713720D02*
G75*
G03*
X16651440Y-10713720I-50000J0D01*
G01*
X16651440Y-10967720D02*
G75*
G03*
X16651440Y-10967720I-50000J0D01*
G01*
X16651440Y-11221720D02*
G75*
G03*
X16651440Y-11221720I-50000J0D01*
G01*
X16651440Y-11475720D02*
G75*
G03*
X16651440Y-11475720I-50000J0D01*
G01*
X16651440Y-11729720D02*
G75*
G03*
X16651440Y-11729720I-50000J0D01*
G01*
X16651440Y-11983720D02*
G75*
G03*
X16651440Y-11983720I-50000J0D01*
G01*
X16651440Y-12237720D02*
G75*
G03*
X16651440Y-12237720I-50000J0D01*
G01*
D13*
X20574000Y-9283980D02*
X20574000Y-9393980D01*
X20519000Y-9338980D02*
X20629000Y-9338980D01*
X20574000Y-9512980D02*
X20574000Y-9622980D01*
X20519000Y-9567980D02*
X20629000Y-9567980D01*
X20574000Y-9741980D02*
X20574000Y-9851980D01*
X20519000Y-9796980D02*
X20629000Y-9796980D01*
X20574000Y-9970980D02*
X20574000Y-10080980D01*
X20519000Y-10025980D02*
X20629000Y-10025980D01*
X20574000Y-10199980D02*
X20574000Y-10309980D01*
X20519000Y-10254980D02*
X20629000Y-10254980D01*
X20828000Y-9169480D02*
X20828000Y-9279480D01*
X20773000Y-9224480D02*
X20883000Y-9224480D01*
X20828000Y-9398480D02*
X20828000Y-9508480D01*
X20773000Y-9453480D02*
X20883000Y-9453480D01*
X20828000Y-9627480D02*
X20828000Y-9737480D01*
X20773000Y-9682480D02*
X20883000Y-9682480D01*
X20828000Y-9856480D02*
X20828000Y-9966480D01*
X20773000Y-9911480D02*
X20883000Y-9911480D01*
X20828000Y-10085480D02*
X20828000Y-10195480D01*
X20773000Y-10140480D02*
X20883000Y-10140480D01*
X21082000Y-9283980D02*
X21082000Y-9393980D01*
X21027000Y-9338980D02*
X21137000Y-9338980D01*
X21082000Y-9512980D02*
X21082000Y-9622980D01*
X21027000Y-9567980D02*
X21137000Y-9567980D01*
X21082000Y-9741980D02*
X21082000Y-9851980D01*
X21027000Y-9796980D02*
X21137000Y-9796980D01*
X21082000Y-9970980D02*
X21082000Y-10080980D01*
X21027000Y-10025980D02*
X21137000Y-10025980D01*
X21082000Y-10199980D02*
X21082000Y-10309980D01*
X21027000Y-10254980D02*
X21137000Y-10254980D01*
D14*
X20941138Y-8635618D02*
X20941138Y-8409342D01*
X20714862Y-8409342D01*
X20714862Y-8635618D01*
X20941138Y-8635618D01*
X20941138Y-11134618D02*
X20941138Y-10908342D01*
X20714862Y-10908342D01*
X20714862Y-11134618D01*
X20941138Y-11134618D01*
D11*
X16222217Y-12859004D02*
X16222217Y-12659004D01*
X16222217Y-12659004D02*
X16269836Y-12659004D01*
X16269836Y-12659004D02*
X16298407Y-12668528D01*
X16298407Y-12668528D02*
X16317455Y-12687575D01*
X16317455Y-12687575D02*
X16326979Y-12706623D01*
X16326979Y-12706623D02*
X16336502Y-12744718D01*
X16336502Y-12744718D02*
X16336502Y-12773289D01*
X16336502Y-12773289D02*
X16326979Y-12811385D01*
X16326979Y-12811385D02*
X16317455Y-12830432D01*
X16317455Y-12830432D02*
X16298407Y-12849480D01*
X16298407Y-12849480D02*
X16269836Y-12859004D01*
X16269836Y-12859004D02*
X16222217Y-12859004D01*
X16422217Y-12859004D02*
X16422217Y-12725670D01*
X16422217Y-12763766D02*
X16431741Y-12744718D01*
X16431741Y-12744718D02*
X16441264Y-12735194D01*
X16441264Y-12735194D02*
X16460312Y-12725670D01*
X16460312Y-12725670D02*
X16479360Y-12725670D01*
X16546026Y-12859004D02*
X16546026Y-12725670D01*
X16546026Y-12659004D02*
X16536502Y-12668528D01*
X16536502Y-12668528D02*
X16546026Y-12678051D01*
X16546026Y-12678051D02*
X16555550Y-12668528D01*
X16555550Y-12668528D02*
X16546026Y-12659004D01*
X16546026Y-12659004D02*
X16546026Y-12678051D01*
X16669836Y-12859004D02*
X16650788Y-12849480D01*
X16650788Y-12849480D02*
X16641264Y-12830432D01*
X16641264Y-12830432D02*
X16641264Y-12659004D01*
X16774598Y-12859004D02*
X16755550Y-12849480D01*
X16755550Y-12849480D02*
X16746026Y-12830432D01*
X16746026Y-12830432D02*
X16746026Y-12659004D01*
X17003169Y-12859004D02*
X17003169Y-12659004D01*
X17003169Y-12659004D02*
X17069836Y-12801861D01*
X17069836Y-12801861D02*
X17136503Y-12659004D01*
X17136503Y-12659004D02*
X17136503Y-12859004D01*
X17317455Y-12859004D02*
X17317455Y-12754242D01*
X17317455Y-12754242D02*
X17307931Y-12735194D01*
X17307931Y-12735194D02*
X17288884Y-12725670D01*
X17288884Y-12725670D02*
X17250788Y-12725670D01*
X17250788Y-12725670D02*
X17231741Y-12735194D01*
X17317455Y-12849480D02*
X17298407Y-12859004D01*
X17298407Y-12859004D02*
X17250788Y-12859004D01*
X17250788Y-12859004D02*
X17231741Y-12849480D01*
X17231741Y-12849480D02*
X17222217Y-12830432D01*
X17222217Y-12830432D02*
X17222217Y-12811385D01*
X17222217Y-12811385D02*
X17231741Y-12792337D01*
X17231741Y-12792337D02*
X17250788Y-12782813D01*
X17250788Y-12782813D02*
X17298407Y-12782813D01*
X17298407Y-12782813D02*
X17317455Y-12773289D01*
X17412693Y-12725670D02*
X17412693Y-12925670D01*
X17412693Y-12735194D02*
X17431741Y-12725670D01*
X17431741Y-12725670D02*
X17469836Y-12725670D01*
X17469836Y-12725670D02*
X17488884Y-12735194D01*
X17488884Y-12735194D02*
X17498407Y-12744718D01*
X17498407Y-12744718D02*
X17507931Y-12763766D01*
X17507931Y-12763766D02*
X17507931Y-12820908D01*
X17507931Y-12820908D02*
X17498407Y-12839956D01*
X17498407Y-12839956D02*
X17488884Y-12849480D01*
X17488884Y-12849480D02*
X17469836Y-12859004D01*
X17469836Y-12859004D02*
X17431741Y-12859004D01*
X17431741Y-12859004D02*
X17412693Y-12849480D01*
X17593645Y-12839956D02*
X17603169Y-12849480D01*
X17603169Y-12849480D02*
X17593645Y-12859004D01*
X17593645Y-12859004D02*
X17584122Y-12849480D01*
X17584122Y-12849480D02*
X17593645Y-12839956D01*
X17593645Y-12839956D02*
X17593645Y-12859004D01*
X17593645Y-12735194D02*
X17603169Y-12744718D01*
X17603169Y-12744718D02*
X17593645Y-12754242D01*
X17593645Y-12754242D02*
X17584122Y-12744718D01*
X17584122Y-12744718D02*
X17593645Y-12735194D01*
X17593645Y-12735194D02*
X17593645Y-12754242D01*
D12*
X15921440Y-13167520D02*
X15961440Y-13207520D01*
X15961440Y-13167520D02*
X15921440Y-13207520D01*
D11*
X16260312Y-13079004D02*
X16279360Y-13079004D01*
X16279360Y-13079004D02*
X16298407Y-13088528D01*
X16298407Y-13088528D02*
X16307931Y-13098051D01*
X16307931Y-13098051D02*
X16317455Y-13117099D01*
X16317455Y-13117099D02*
X16326979Y-13155194D01*
X16326979Y-13155194D02*
X16326979Y-13202813D01*
X16326979Y-13202813D02*
X16317455Y-13240908D01*
X16317455Y-13240908D02*
X16307931Y-13259956D01*
X16307931Y-13259956D02*
X16298407Y-13269480D01*
X16298407Y-13269480D02*
X16279360Y-13279004D01*
X16279360Y-13279004D02*
X16260312Y-13279004D01*
X16260312Y-13279004D02*
X16241264Y-13269480D01*
X16241264Y-13269480D02*
X16231741Y-13259956D01*
X16231741Y-13259956D02*
X16222217Y-13240908D01*
X16222217Y-13240908D02*
X16212693Y-13202813D01*
X16212693Y-13202813D02*
X16212693Y-13155194D01*
X16212693Y-13155194D02*
X16222217Y-13117099D01*
X16222217Y-13117099D02*
X16231741Y-13098051D01*
X16231741Y-13098051D02*
X16241264Y-13088528D01*
X16241264Y-13088528D02*
X16260312Y-13079004D01*
X16412693Y-13259956D02*
X16422217Y-13269480D01*
X16422217Y-13269480D02*
X16412693Y-13279004D01*
X16412693Y-13279004D02*
X16403169Y-13269480D01*
X16403169Y-13269480D02*
X16412693Y-13259956D01*
X16412693Y-13259956D02*
X16412693Y-13279004D01*
X16593645Y-13145670D02*
X16593645Y-13279004D01*
X16546026Y-13069480D02*
X16498407Y-13212337D01*
X16498407Y-13212337D02*
X16622217Y-13212337D01*
X16736502Y-13079004D02*
X16755550Y-13079004D01*
X16755550Y-13079004D02*
X16774598Y-13088528D01*
X16774598Y-13088528D02*
X16784122Y-13098051D01*
X16784122Y-13098051D02*
X16793645Y-13117099D01*
X16793645Y-13117099D02*
X16803169Y-13155194D01*
X16803169Y-13155194D02*
X16803169Y-13202813D01*
X16803169Y-13202813D02*
X16793645Y-13240908D01*
X16793645Y-13240908D02*
X16784122Y-13259956D01*
X16784122Y-13259956D02*
X16774598Y-13269480D01*
X16774598Y-13269480D02*
X16755550Y-13279004D01*
X16755550Y-13279004D02*
X16736502Y-13279004D01*
X16736502Y-13279004D02*
X16717455Y-13269480D01*
X16717455Y-13269480D02*
X16707931Y-13259956D01*
X16707931Y-13259956D02*
X16698407Y-13240908D01*
X16698407Y-13240908D02*
X16688883Y-13202813D01*
X16688883Y-13202813D02*
X16688883Y-13155194D01*
X16688883Y-13155194D02*
X16698407Y-13117099D01*
X16698407Y-13117099D02*
X16707931Y-13098051D01*
X16707931Y-13098051D02*
X16717455Y-13088528D01*
X16717455Y-13088528D02*
X16736502Y-13079004D01*
X16926979Y-13079004D02*
X16946026Y-13079004D01*
X16946026Y-13079004D02*
X16965074Y-13088528D01*
X16965074Y-13088528D02*
X16974598Y-13098051D01*
X16974598Y-13098051D02*
X16984122Y-13117099D01*
X16984122Y-13117099D02*
X16993645Y-13155194D01*
X16993645Y-13155194D02*
X16993645Y-13202813D01*
X16993645Y-13202813D02*
X16984122Y-13240908D01*
X16984122Y-13240908D02*
X16974598Y-13259956D01*
X16974598Y-13259956D02*
X16965074Y-13269480D01*
X16965074Y-13269480D02*
X16946026Y-13279004D01*
X16946026Y-13279004D02*
X16926979Y-13279004D01*
X16926979Y-13279004D02*
X16907931Y-13269480D01*
X16907931Y-13269480D02*
X16898407Y-13259956D01*
X16898407Y-13259956D02*
X16888884Y-13240908D01*
X16888884Y-13240908D02*
X16879360Y-13202813D01*
X16879360Y-13202813D02*
X16879360Y-13155194D01*
X16879360Y-13155194D02*
X16888884Y-13117099D01*
X16888884Y-13117099D02*
X16898407Y-13098051D01*
X16898407Y-13098051D02*
X16907931Y-13088528D01*
X16907931Y-13088528D02*
X16926979Y-13079004D01*
X17079360Y-13279004D02*
X17079360Y-13145670D01*
X17079360Y-13164718D02*
X17088884Y-13155194D01*
X17088884Y-13155194D02*
X17107931Y-13145670D01*
X17107931Y-13145670D02*
X17136503Y-13145670D01*
X17136503Y-13145670D02*
X17155550Y-13155194D01*
X17155550Y-13155194D02*
X17165074Y-13174242D01*
X17165074Y-13174242D02*
X17165074Y-13279004D01*
X17165074Y-13174242D02*
X17174598Y-13155194D01*
X17174598Y-13155194D02*
X17193645Y-13145670D01*
X17193645Y-13145670D02*
X17222217Y-13145670D01*
X17222217Y-13145670D02*
X17241265Y-13155194D01*
X17241265Y-13155194D02*
X17250788Y-13174242D01*
X17250788Y-13174242D02*
X17250788Y-13279004D01*
X17346026Y-13279004D02*
X17346026Y-13145670D01*
X17346026Y-13164718D02*
X17355550Y-13155194D01*
X17355550Y-13155194D02*
X17374598Y-13145670D01*
X17374598Y-13145670D02*
X17403169Y-13145670D01*
X17403169Y-13145670D02*
X17422217Y-13155194D01*
X17422217Y-13155194D02*
X17431741Y-13174242D01*
X17431741Y-13174242D02*
X17431741Y-13279004D01*
X17431741Y-13174242D02*
X17441265Y-13155194D01*
X17441265Y-13155194D02*
X17460312Y-13145670D01*
X17460312Y-13145670D02*
X17488884Y-13145670D01*
X17488884Y-13145670D02*
X17507931Y-13155194D01*
X17507931Y-13155194D02*
X17517455Y-13174242D01*
X17517455Y-13174242D02*
X17517455Y-13279004D01*
X17907931Y-13069480D02*
X17736503Y-13326623D01*
X18165074Y-13079004D02*
X18184122Y-13079004D01*
X18184122Y-13079004D02*
X18203169Y-13088528D01*
X18203169Y-13088528D02*
X18212693Y-13098051D01*
X18212693Y-13098051D02*
X18222217Y-13117099D01*
X18222217Y-13117099D02*
X18231741Y-13155194D01*
X18231741Y-13155194D02*
X18231741Y-13202813D01*
X18231741Y-13202813D02*
X18222217Y-13240908D01*
X18222217Y-13240908D02*
X18212693Y-13259956D01*
X18212693Y-13259956D02*
X18203169Y-13269480D01*
X18203169Y-13269480D02*
X18184122Y-13279004D01*
X18184122Y-13279004D02*
X18165074Y-13279004D01*
X18165074Y-13279004D02*
X18146027Y-13269480D01*
X18146027Y-13269480D02*
X18136503Y-13259956D01*
X18136503Y-13259956D02*
X18126979Y-13240908D01*
X18126979Y-13240908D02*
X18117455Y-13202813D01*
X18117455Y-13202813D02*
X18117455Y-13155194D01*
X18117455Y-13155194D02*
X18126979Y-13117099D01*
X18126979Y-13117099D02*
X18136503Y-13098051D01*
X18136503Y-13098051D02*
X18146027Y-13088528D01*
X18146027Y-13088528D02*
X18165074Y-13079004D01*
X18317455Y-13259956D02*
X18326979Y-13269480D01*
X18326979Y-13269480D02*
X18317455Y-13279004D01*
X18317455Y-13279004D02*
X18307931Y-13269480D01*
X18307931Y-13269480D02*
X18317455Y-13259956D01*
X18317455Y-13259956D02*
X18317455Y-13279004D01*
X18450788Y-13079004D02*
X18469836Y-13079004D01*
X18469836Y-13079004D02*
X18488884Y-13088528D01*
X18488884Y-13088528D02*
X18498408Y-13098051D01*
X18498408Y-13098051D02*
X18507931Y-13117099D01*
X18507931Y-13117099D02*
X18517455Y-13155194D01*
X18517455Y-13155194D02*
X18517455Y-13202813D01*
X18517455Y-13202813D02*
X18507931Y-13240908D01*
X18507931Y-13240908D02*
X18498408Y-13259956D01*
X18498408Y-13259956D02*
X18488884Y-13269480D01*
X18488884Y-13269480D02*
X18469836Y-13279004D01*
X18469836Y-13279004D02*
X18450788Y-13279004D01*
X18450788Y-13279004D02*
X18431741Y-13269480D01*
X18431741Y-13269480D02*
X18422217Y-13259956D01*
X18422217Y-13259956D02*
X18412693Y-13240908D01*
X18412693Y-13240908D02*
X18403169Y-13202813D01*
X18403169Y-13202813D02*
X18403169Y-13155194D01*
X18403169Y-13155194D02*
X18412693Y-13117099D01*
X18412693Y-13117099D02*
X18422217Y-13098051D01*
X18422217Y-13098051D02*
X18431741Y-13088528D01*
X18431741Y-13088528D02*
X18450788Y-13079004D01*
X18707931Y-13279004D02*
X18593646Y-13279004D01*
X18650788Y-13279004D02*
X18650788Y-13079004D01*
X18650788Y-13079004D02*
X18631741Y-13107575D01*
X18631741Y-13107575D02*
X18612693Y-13126623D01*
X18612693Y-13126623D02*
X18593646Y-13136147D01*
X18888884Y-13079004D02*
X18793646Y-13079004D01*
X18793646Y-13079004D02*
X18784122Y-13174242D01*
X18784122Y-13174242D02*
X18793646Y-13164718D01*
X18793646Y-13164718D02*
X18812693Y-13155194D01*
X18812693Y-13155194D02*
X18860312Y-13155194D01*
X18860312Y-13155194D02*
X18879360Y-13164718D01*
X18879360Y-13164718D02*
X18888884Y-13174242D01*
X18888884Y-13174242D02*
X18898408Y-13193289D01*
X18898408Y-13193289D02*
X18898408Y-13240908D01*
X18898408Y-13240908D02*
X18888884Y-13259956D01*
X18888884Y-13259956D02*
X18879360Y-13269480D01*
X18879360Y-13269480D02*
X18860312Y-13279004D01*
X18860312Y-13279004D02*
X18812693Y-13279004D01*
X18812693Y-13279004D02*
X18793646Y-13269480D01*
X18793646Y-13269480D02*
X18784122Y-13259956D01*
X18965074Y-13079004D02*
X19098408Y-13079004D01*
X19098408Y-13079004D02*
X19012693Y-13279004D01*
X19165074Y-13079004D02*
X19165074Y-13117099D01*
X19241265Y-13079004D02*
X19241265Y-13117099D01*
X19536503Y-13355194D02*
X19526979Y-13345670D01*
X19526979Y-13345670D02*
X19507931Y-13317099D01*
X19507931Y-13317099D02*
X19498408Y-13298051D01*
X19498408Y-13298051D02*
X19488884Y-13269480D01*
X19488884Y-13269480D02*
X19479360Y-13221861D01*
X19479360Y-13221861D02*
X19479360Y-13183766D01*
X19479360Y-13183766D02*
X19488884Y-13136147D01*
X19488884Y-13136147D02*
X19498408Y-13107575D01*
X19498408Y-13107575D02*
X19507931Y-13088528D01*
X19507931Y-13088528D02*
X19526979Y-13059956D01*
X19526979Y-13059956D02*
X19536503Y-13050432D01*
X19698408Y-13079004D02*
X19660312Y-13079004D01*
X19660312Y-13079004D02*
X19641265Y-13088528D01*
X19641265Y-13088528D02*
X19631741Y-13098051D01*
X19631741Y-13098051D02*
X19612693Y-13126623D01*
X19612693Y-13126623D02*
X19603170Y-13164718D01*
X19603170Y-13164718D02*
X19603170Y-13240908D01*
X19603170Y-13240908D02*
X19612693Y-13259956D01*
X19612693Y-13259956D02*
X19622217Y-13269480D01*
X19622217Y-13269480D02*
X19641265Y-13279004D01*
X19641265Y-13279004D02*
X19679360Y-13279004D01*
X19679360Y-13279004D02*
X19698408Y-13269480D01*
X19698408Y-13269480D02*
X19707931Y-13259956D01*
X19707931Y-13259956D02*
X19717455Y-13240908D01*
X19717455Y-13240908D02*
X19717455Y-13193289D01*
X19717455Y-13193289D02*
X19707931Y-13174242D01*
X19707931Y-13174242D02*
X19698408Y-13164718D01*
X19698408Y-13164718D02*
X19679360Y-13155194D01*
X19679360Y-13155194D02*
X19641265Y-13155194D01*
X19641265Y-13155194D02*
X19622217Y-13164718D01*
X19622217Y-13164718D02*
X19612693Y-13174242D01*
X19612693Y-13174242D02*
X19603170Y-13193289D01*
X19831741Y-13164718D02*
X19812693Y-13155194D01*
X19812693Y-13155194D02*
X19803170Y-13145670D01*
X19803170Y-13145670D02*
X19793646Y-13126623D01*
X19793646Y-13126623D02*
X19793646Y-13117099D01*
X19793646Y-13117099D02*
X19803170Y-13098051D01*
X19803170Y-13098051D02*
X19812693Y-13088528D01*
X19812693Y-13088528D02*
X19831741Y-13079004D01*
X19831741Y-13079004D02*
X19869836Y-13079004D01*
X19869836Y-13079004D02*
X19888884Y-13088528D01*
X19888884Y-13088528D02*
X19898408Y-13098051D01*
X19898408Y-13098051D02*
X19907931Y-13117099D01*
X19907931Y-13117099D02*
X19907931Y-13126623D01*
X19907931Y-13126623D02*
X19898408Y-13145670D01*
X19898408Y-13145670D02*
X19888884Y-13155194D01*
X19888884Y-13155194D02*
X19869836Y-13164718D01*
X19869836Y-13164718D02*
X19831741Y-13164718D01*
X19831741Y-13164718D02*
X19812693Y-13174242D01*
X19812693Y-13174242D02*
X19803170Y-13183766D01*
X19803170Y-13183766D02*
X19793646Y-13202813D01*
X19793646Y-13202813D02*
X19793646Y-13240908D01*
X19793646Y-13240908D02*
X19803170Y-13259956D01*
X19803170Y-13259956D02*
X19812693Y-13269480D01*
X19812693Y-13269480D02*
X19831741Y-13279004D01*
X19831741Y-13279004D02*
X19869836Y-13279004D01*
X19869836Y-13279004D02*
X19888884Y-13269480D01*
X19888884Y-13269480D02*
X19898408Y-13259956D01*
X19898408Y-13259956D02*
X19907931Y-13240908D01*
X19907931Y-13240908D02*
X19907931Y-13202813D01*
X19907931Y-13202813D02*
X19898408Y-13183766D01*
X19898408Y-13183766D02*
X19888884Y-13174242D01*
X19888884Y-13174242D02*
X19869836Y-13164718D01*
X20146027Y-13279004D02*
X20146027Y-13079004D01*
X20231741Y-13279004D02*
X20231741Y-13174242D01*
X20231741Y-13174242D02*
X20222217Y-13155194D01*
X20222217Y-13155194D02*
X20203170Y-13145670D01*
X20203170Y-13145670D02*
X20174598Y-13145670D01*
X20174598Y-13145670D02*
X20155551Y-13155194D01*
X20155551Y-13155194D02*
X20146027Y-13164718D01*
X20355551Y-13279004D02*
X20336503Y-13269480D01*
X20336503Y-13269480D02*
X20326979Y-13259956D01*
X20326979Y-13259956D02*
X20317455Y-13240908D01*
X20317455Y-13240908D02*
X20317455Y-13183766D01*
X20317455Y-13183766D02*
X20326979Y-13164718D01*
X20326979Y-13164718D02*
X20336503Y-13155194D01*
X20336503Y-13155194D02*
X20355551Y-13145670D01*
X20355551Y-13145670D02*
X20384122Y-13145670D01*
X20384122Y-13145670D02*
X20403170Y-13155194D01*
X20403170Y-13155194D02*
X20412693Y-13164718D01*
X20412693Y-13164718D02*
X20422217Y-13183766D01*
X20422217Y-13183766D02*
X20422217Y-13240908D01*
X20422217Y-13240908D02*
X20412693Y-13259956D01*
X20412693Y-13259956D02*
X20403170Y-13269480D01*
X20403170Y-13269480D02*
X20384122Y-13279004D01*
X20384122Y-13279004D02*
X20355551Y-13279004D01*
X20536503Y-13279004D02*
X20517455Y-13269480D01*
X20517455Y-13269480D02*
X20507932Y-13250432D01*
X20507932Y-13250432D02*
X20507932Y-13079004D01*
X20688884Y-13269480D02*
X20669836Y-13279004D01*
X20669836Y-13279004D02*
X20631741Y-13279004D01*
X20631741Y-13279004D02*
X20612693Y-13269480D01*
X20612693Y-13269480D02*
X20603170Y-13250432D01*
X20603170Y-13250432D02*
X20603170Y-13174242D01*
X20603170Y-13174242D02*
X20612693Y-13155194D01*
X20612693Y-13155194D02*
X20631741Y-13145670D01*
X20631741Y-13145670D02*
X20669836Y-13145670D01*
X20669836Y-13145670D02*
X20688884Y-13155194D01*
X20688884Y-13155194D02*
X20698408Y-13174242D01*
X20698408Y-13174242D02*
X20698408Y-13193289D01*
X20698408Y-13193289D02*
X20603170Y-13212337D01*
X20774598Y-13269480D02*
X20793646Y-13279004D01*
X20793646Y-13279004D02*
X20831741Y-13279004D01*
X20831741Y-13279004D02*
X20850789Y-13269480D01*
X20850789Y-13269480D02*
X20860313Y-13250432D01*
X20860313Y-13250432D02*
X20860313Y-13240908D01*
X20860313Y-13240908D02*
X20850789Y-13221861D01*
X20850789Y-13221861D02*
X20831741Y-13212337D01*
X20831741Y-13212337D02*
X20803170Y-13212337D01*
X20803170Y-13212337D02*
X20784122Y-13202813D01*
X20784122Y-13202813D02*
X20774598Y-13183766D01*
X20774598Y-13183766D02*
X20774598Y-13174242D01*
X20774598Y-13174242D02*
X20784122Y-13155194D01*
X20784122Y-13155194D02*
X20803170Y-13145670D01*
X20803170Y-13145670D02*
X20831741Y-13145670D01*
X20831741Y-13145670D02*
X20850789Y-13155194D01*
X20926979Y-13355194D02*
X20936503Y-13345670D01*
X20936503Y-13345670D02*
X20955551Y-13317099D01*
X20955551Y-13317099D02*
X20965074Y-13298051D01*
X20965074Y-13298051D02*
X20974598Y-13269480D01*
X20974598Y-13269480D02*
X20984122Y-13221861D01*
X20984122Y-13221861D02*
X20984122Y-13183766D01*
X20984122Y-13183766D02*
X20974598Y-13136147D01*
X20974598Y-13136147D02*
X20965074Y-13107575D01*
X20965074Y-13107575D02*
X20955551Y-13088528D01*
X20955551Y-13088528D02*
X20936503Y-13059956D01*
X20936503Y-13059956D02*
X20926979Y-13050432D01*
D10*
X15961440Y-13451520D02*
G75*
G03*
X15961440Y-13451520I-50000J0D01*
G01*
D11*
X16326979Y-13543004D02*
X16212693Y-13543004D01*
X16269836Y-13543004D02*
X16269836Y-13343004D01*
X16269836Y-13343004D02*
X16250788Y-13371575D01*
X16250788Y-13371575D02*
X16231741Y-13390623D01*
X16231741Y-13390623D02*
X16212693Y-13400147D01*
X16412693Y-13523956D02*
X16422217Y-13533480D01*
X16422217Y-13533480D02*
X16412693Y-13543004D01*
X16412693Y-13543004D02*
X16403169Y-13533480D01*
X16403169Y-13533480D02*
X16412693Y-13523956D01*
X16412693Y-13523956D02*
X16412693Y-13543004D01*
X16546026Y-13343004D02*
X16565074Y-13343004D01*
X16565074Y-13343004D02*
X16584122Y-13352528D01*
X16584122Y-13352528D02*
X16593645Y-13362051D01*
X16593645Y-13362051D02*
X16603169Y-13381099D01*
X16603169Y-13381099D02*
X16612693Y-13419194D01*
X16612693Y-13419194D02*
X16612693Y-13466813D01*
X16612693Y-13466813D02*
X16603169Y-13504908D01*
X16603169Y-13504908D02*
X16593645Y-13523956D01*
X16593645Y-13523956D02*
X16584122Y-13533480D01*
X16584122Y-13533480D02*
X16565074Y-13543004D01*
X16565074Y-13543004D02*
X16546026Y-13543004D01*
X16546026Y-13543004D02*
X16526979Y-13533480D01*
X16526979Y-13533480D02*
X16517455Y-13523956D01*
X16517455Y-13523956D02*
X16507931Y-13504908D01*
X16507931Y-13504908D02*
X16498407Y-13466813D01*
X16498407Y-13466813D02*
X16498407Y-13419194D01*
X16498407Y-13419194D02*
X16507931Y-13381099D01*
X16507931Y-13381099D02*
X16517455Y-13362051D01*
X16517455Y-13362051D02*
X16526979Y-13352528D01*
X16526979Y-13352528D02*
X16546026Y-13343004D01*
X16736502Y-13343004D02*
X16755550Y-13343004D01*
X16755550Y-13343004D02*
X16774598Y-13352528D01*
X16774598Y-13352528D02*
X16784122Y-13362051D01*
X16784122Y-13362051D02*
X16793645Y-13381099D01*
X16793645Y-13381099D02*
X16803169Y-13419194D01*
X16803169Y-13419194D02*
X16803169Y-13466813D01*
X16803169Y-13466813D02*
X16793645Y-13504908D01*
X16793645Y-13504908D02*
X16784122Y-13523956D01*
X16784122Y-13523956D02*
X16774598Y-13533480D01*
X16774598Y-13533480D02*
X16755550Y-13543004D01*
X16755550Y-13543004D02*
X16736502Y-13543004D01*
X16736502Y-13543004D02*
X16717455Y-13533480D01*
X16717455Y-13533480D02*
X16707931Y-13523956D01*
X16707931Y-13523956D02*
X16698407Y-13504908D01*
X16698407Y-13504908D02*
X16688883Y-13466813D01*
X16688883Y-13466813D02*
X16688883Y-13419194D01*
X16688883Y-13419194D02*
X16698407Y-13381099D01*
X16698407Y-13381099D02*
X16707931Y-13362051D01*
X16707931Y-13362051D02*
X16717455Y-13352528D01*
X16717455Y-13352528D02*
X16736502Y-13343004D01*
X16926979Y-13343004D02*
X16946026Y-13343004D01*
X16946026Y-13343004D02*
X16965074Y-13352528D01*
X16965074Y-13352528D02*
X16974598Y-13362051D01*
X16974598Y-13362051D02*
X16984122Y-13381099D01*
X16984122Y-13381099D02*
X16993645Y-13419194D01*
X16993645Y-13419194D02*
X16993645Y-13466813D01*
X16993645Y-13466813D02*
X16984122Y-13504908D01*
X16984122Y-13504908D02*
X16974598Y-13523956D01*
X16974598Y-13523956D02*
X16965074Y-13533480D01*
X16965074Y-13533480D02*
X16946026Y-13543004D01*
X16946026Y-13543004D02*
X16926979Y-13543004D01*
X16926979Y-13543004D02*
X16907931Y-13533480D01*
X16907931Y-13533480D02*
X16898407Y-13523956D01*
X16898407Y-13523956D02*
X16888884Y-13504908D01*
X16888884Y-13504908D02*
X16879360Y-13466813D01*
X16879360Y-13466813D02*
X16879360Y-13419194D01*
X16879360Y-13419194D02*
X16888884Y-13381099D01*
X16888884Y-13381099D02*
X16898407Y-13362051D01*
X16898407Y-13362051D02*
X16907931Y-13352528D01*
X16907931Y-13352528D02*
X16926979Y-13343004D01*
X17079360Y-13543004D02*
X17079360Y-13409670D01*
X17079360Y-13428718D02*
X17088884Y-13419194D01*
X17088884Y-13419194D02*
X17107931Y-13409670D01*
X17107931Y-13409670D02*
X17136503Y-13409670D01*
X17136503Y-13409670D02*
X17155550Y-13419194D01*
X17155550Y-13419194D02*
X17165074Y-13438242D01*
X17165074Y-13438242D02*
X17165074Y-13543004D01*
X17165074Y-13438242D02*
X17174598Y-13419194D01*
X17174598Y-13419194D02*
X17193645Y-13409670D01*
X17193645Y-13409670D02*
X17222217Y-13409670D01*
X17222217Y-13409670D02*
X17241265Y-13419194D01*
X17241265Y-13419194D02*
X17250788Y-13438242D01*
X17250788Y-13438242D02*
X17250788Y-13543004D01*
X17346026Y-13543004D02*
X17346026Y-13409670D01*
X17346026Y-13428718D02*
X17355550Y-13419194D01*
X17355550Y-13419194D02*
X17374598Y-13409670D01*
X17374598Y-13409670D02*
X17403169Y-13409670D01*
X17403169Y-13409670D02*
X17422217Y-13419194D01*
X17422217Y-13419194D02*
X17431741Y-13438242D01*
X17431741Y-13438242D02*
X17431741Y-13543004D01*
X17431741Y-13438242D02*
X17441265Y-13419194D01*
X17441265Y-13419194D02*
X17460312Y-13409670D01*
X17460312Y-13409670D02*
X17488884Y-13409670D01*
X17488884Y-13409670D02*
X17507931Y-13419194D01*
X17507931Y-13419194D02*
X17517455Y-13438242D01*
X17517455Y-13438242D02*
X17517455Y-13543004D01*
X17907931Y-13333480D02*
X17736503Y-13590623D01*
X18165074Y-13343004D02*
X18184122Y-13343004D01*
X18184122Y-13343004D02*
X18203169Y-13352528D01*
X18203169Y-13352528D02*
X18212693Y-13362051D01*
X18212693Y-13362051D02*
X18222217Y-13381099D01*
X18222217Y-13381099D02*
X18231741Y-13419194D01*
X18231741Y-13419194D02*
X18231741Y-13466813D01*
X18231741Y-13466813D02*
X18222217Y-13504908D01*
X18222217Y-13504908D02*
X18212693Y-13523956D01*
X18212693Y-13523956D02*
X18203169Y-13533480D01*
X18203169Y-13533480D02*
X18184122Y-13543004D01*
X18184122Y-13543004D02*
X18165074Y-13543004D01*
X18165074Y-13543004D02*
X18146027Y-13533480D01*
X18146027Y-13533480D02*
X18136503Y-13523956D01*
X18136503Y-13523956D02*
X18126979Y-13504908D01*
X18126979Y-13504908D02*
X18117455Y-13466813D01*
X18117455Y-13466813D02*
X18117455Y-13419194D01*
X18117455Y-13419194D02*
X18126979Y-13381099D01*
X18126979Y-13381099D02*
X18136503Y-13362051D01*
X18136503Y-13362051D02*
X18146027Y-13352528D01*
X18146027Y-13352528D02*
X18165074Y-13343004D01*
X18317455Y-13523956D02*
X18326979Y-13533480D01*
X18326979Y-13533480D02*
X18317455Y-13543004D01*
X18317455Y-13543004D02*
X18307931Y-13533480D01*
X18307931Y-13533480D02*
X18317455Y-13523956D01*
X18317455Y-13523956D02*
X18317455Y-13543004D01*
X18450788Y-13343004D02*
X18469836Y-13343004D01*
X18469836Y-13343004D02*
X18488884Y-13352528D01*
X18488884Y-13352528D02*
X18498408Y-13362051D01*
X18498408Y-13362051D02*
X18507931Y-13381099D01*
X18507931Y-13381099D02*
X18517455Y-13419194D01*
X18517455Y-13419194D02*
X18517455Y-13466813D01*
X18517455Y-13466813D02*
X18507931Y-13504908D01*
X18507931Y-13504908D02*
X18498408Y-13523956D01*
X18498408Y-13523956D02*
X18488884Y-13533480D01*
X18488884Y-13533480D02*
X18469836Y-13543004D01*
X18469836Y-13543004D02*
X18450788Y-13543004D01*
X18450788Y-13543004D02*
X18431741Y-13533480D01*
X18431741Y-13533480D02*
X18422217Y-13523956D01*
X18422217Y-13523956D02*
X18412693Y-13504908D01*
X18412693Y-13504908D02*
X18403169Y-13466813D01*
X18403169Y-13466813D02*
X18403169Y-13419194D01*
X18403169Y-13419194D02*
X18412693Y-13381099D01*
X18412693Y-13381099D02*
X18422217Y-13362051D01*
X18422217Y-13362051D02*
X18431741Y-13352528D01*
X18431741Y-13352528D02*
X18450788Y-13343004D01*
X18584122Y-13343004D02*
X18707931Y-13343004D01*
X18707931Y-13343004D02*
X18641265Y-13419194D01*
X18641265Y-13419194D02*
X18669836Y-13419194D01*
X18669836Y-13419194D02*
X18688884Y-13428718D01*
X18688884Y-13428718D02*
X18698408Y-13438242D01*
X18698408Y-13438242D02*
X18707931Y-13457289D01*
X18707931Y-13457289D02*
X18707931Y-13504908D01*
X18707931Y-13504908D02*
X18698408Y-13523956D01*
X18698408Y-13523956D02*
X18688884Y-13533480D01*
X18688884Y-13533480D02*
X18669836Y-13543004D01*
X18669836Y-13543004D02*
X18612693Y-13543004D01*
X18612693Y-13543004D02*
X18593646Y-13533480D01*
X18593646Y-13533480D02*
X18584122Y-13523956D01*
X18803169Y-13543004D02*
X18841265Y-13543004D01*
X18841265Y-13543004D02*
X18860312Y-13533480D01*
X18860312Y-13533480D02*
X18869836Y-13523956D01*
X18869836Y-13523956D02*
X18888884Y-13495385D01*
X18888884Y-13495385D02*
X18898408Y-13457289D01*
X18898408Y-13457289D02*
X18898408Y-13381099D01*
X18898408Y-13381099D02*
X18888884Y-13362051D01*
X18888884Y-13362051D02*
X18879360Y-13352528D01*
X18879360Y-13352528D02*
X18860312Y-13343004D01*
X18860312Y-13343004D02*
X18822217Y-13343004D01*
X18822217Y-13343004D02*
X18803169Y-13352528D01*
X18803169Y-13352528D02*
X18793646Y-13362051D01*
X18793646Y-13362051D02*
X18784122Y-13381099D01*
X18784122Y-13381099D02*
X18784122Y-13428718D01*
X18784122Y-13428718D02*
X18793646Y-13447766D01*
X18793646Y-13447766D02*
X18803169Y-13457289D01*
X18803169Y-13457289D02*
X18822217Y-13466813D01*
X18822217Y-13466813D02*
X18860312Y-13466813D01*
X18860312Y-13466813D02*
X18879360Y-13457289D01*
X18879360Y-13457289D02*
X18888884Y-13447766D01*
X18888884Y-13447766D02*
X18898408Y-13428718D01*
X19069836Y-13409670D02*
X19069836Y-13543004D01*
X19022217Y-13333480D02*
X18974598Y-13476337D01*
X18974598Y-13476337D02*
X19098408Y-13476337D01*
X19165074Y-13343004D02*
X19165074Y-13381099D01*
X19241265Y-13343004D02*
X19241265Y-13381099D01*
X19536503Y-13619194D02*
X19526979Y-13609670D01*
X19526979Y-13609670D02*
X19507931Y-13581099D01*
X19507931Y-13581099D02*
X19498408Y-13562051D01*
X19498408Y-13562051D02*
X19488884Y-13533480D01*
X19488884Y-13533480D02*
X19479360Y-13485861D01*
X19479360Y-13485861D02*
X19479360Y-13447766D01*
X19479360Y-13447766D02*
X19488884Y-13400147D01*
X19488884Y-13400147D02*
X19498408Y-13371575D01*
X19498408Y-13371575D02*
X19507931Y-13352528D01*
X19507931Y-13352528D02*
X19526979Y-13323956D01*
X19526979Y-13323956D02*
X19536503Y-13314432D01*
X19698408Y-13409670D02*
X19698408Y-13543004D01*
X19650789Y-13333480D02*
X19603170Y-13476337D01*
X19603170Y-13476337D02*
X19726979Y-13476337D01*
X19841265Y-13343004D02*
X19860312Y-13343004D01*
X19860312Y-13343004D02*
X19879360Y-13352528D01*
X19879360Y-13352528D02*
X19888884Y-13362051D01*
X19888884Y-13362051D02*
X19898408Y-13381099D01*
X19898408Y-13381099D02*
X19907931Y-13419194D01*
X19907931Y-13419194D02*
X19907931Y-13466813D01*
X19907931Y-13466813D02*
X19898408Y-13504908D01*
X19898408Y-13504908D02*
X19888884Y-13523956D01*
X19888884Y-13523956D02*
X19879360Y-13533480D01*
X19879360Y-13533480D02*
X19860312Y-13543004D01*
X19860312Y-13543004D02*
X19841265Y-13543004D01*
X19841265Y-13543004D02*
X19822217Y-13533480D01*
X19822217Y-13533480D02*
X19812693Y-13523956D01*
X19812693Y-13523956D02*
X19803170Y-13504908D01*
X19803170Y-13504908D02*
X19793646Y-13466813D01*
X19793646Y-13466813D02*
X19793646Y-13419194D01*
X19793646Y-13419194D02*
X19803170Y-13381099D01*
X19803170Y-13381099D02*
X19812693Y-13362051D01*
X19812693Y-13362051D02*
X19822217Y-13352528D01*
X19822217Y-13352528D02*
X19841265Y-13343004D01*
X20146027Y-13543004D02*
X20146027Y-13343004D01*
X20231741Y-13543004D02*
X20231741Y-13438242D01*
X20231741Y-13438242D02*
X20222217Y-13419194D01*
X20222217Y-13419194D02*
X20203170Y-13409670D01*
X20203170Y-13409670D02*
X20174598Y-13409670D01*
X20174598Y-13409670D02*
X20155551Y-13419194D01*
X20155551Y-13419194D02*
X20146027Y-13428718D01*
X20355551Y-13543004D02*
X20336503Y-13533480D01*
X20336503Y-13533480D02*
X20326979Y-13523956D01*
X20326979Y-13523956D02*
X20317455Y-13504908D01*
X20317455Y-13504908D02*
X20317455Y-13447766D01*
X20317455Y-13447766D02*
X20326979Y-13428718D01*
X20326979Y-13428718D02*
X20336503Y-13419194D01*
X20336503Y-13419194D02*
X20355551Y-13409670D01*
X20355551Y-13409670D02*
X20384122Y-13409670D01*
X20384122Y-13409670D02*
X20403170Y-13419194D01*
X20403170Y-13419194D02*
X20412693Y-13428718D01*
X20412693Y-13428718D02*
X20422217Y-13447766D01*
X20422217Y-13447766D02*
X20422217Y-13504908D01*
X20422217Y-13504908D02*
X20412693Y-13523956D01*
X20412693Y-13523956D02*
X20403170Y-13533480D01*
X20403170Y-13533480D02*
X20384122Y-13543004D01*
X20384122Y-13543004D02*
X20355551Y-13543004D01*
X20536503Y-13543004D02*
X20517455Y-13533480D01*
X20517455Y-13533480D02*
X20507932Y-13514432D01*
X20507932Y-13514432D02*
X20507932Y-13343004D01*
X20688884Y-13533480D02*
X20669836Y-13543004D01*
X20669836Y-13543004D02*
X20631741Y-13543004D01*
X20631741Y-13543004D02*
X20612693Y-13533480D01*
X20612693Y-13533480D02*
X20603170Y-13514432D01*
X20603170Y-13514432D02*
X20603170Y-13438242D01*
X20603170Y-13438242D02*
X20612693Y-13419194D01*
X20612693Y-13419194D02*
X20631741Y-13409670D01*
X20631741Y-13409670D02*
X20669836Y-13409670D01*
X20669836Y-13409670D02*
X20688884Y-13419194D01*
X20688884Y-13419194D02*
X20698408Y-13438242D01*
X20698408Y-13438242D02*
X20698408Y-13457289D01*
X20698408Y-13457289D02*
X20603170Y-13476337D01*
X20774598Y-13533480D02*
X20793646Y-13543004D01*
X20793646Y-13543004D02*
X20831741Y-13543004D01*
X20831741Y-13543004D02*
X20850789Y-13533480D01*
X20850789Y-13533480D02*
X20860313Y-13514432D01*
X20860313Y-13514432D02*
X20860313Y-13504908D01*
X20860313Y-13504908D02*
X20850789Y-13485861D01*
X20850789Y-13485861D02*
X20831741Y-13476337D01*
X20831741Y-13476337D02*
X20803170Y-13476337D01*
X20803170Y-13476337D02*
X20784122Y-13466813D01*
X20784122Y-13466813D02*
X20774598Y-13447766D01*
X20774598Y-13447766D02*
X20774598Y-13438242D01*
X20774598Y-13438242D02*
X20784122Y-13419194D01*
X20784122Y-13419194D02*
X20803170Y-13409670D01*
X20803170Y-13409670D02*
X20831741Y-13409670D01*
X20831741Y-13409670D02*
X20850789Y-13419194D01*
X20926979Y-13619194D02*
X20936503Y-13609670D01*
X20936503Y-13609670D02*
X20955551Y-13581099D01*
X20955551Y-13581099D02*
X20965074Y-13562051D01*
X20965074Y-13562051D02*
X20974598Y-13533480D01*
X20974598Y-13533480D02*
X20984122Y-13485861D01*
X20984122Y-13485861D02*
X20984122Y-13447766D01*
X20984122Y-13447766D02*
X20974598Y-13400147D01*
X20974598Y-13400147D02*
X20965074Y-13371575D01*
X20965074Y-13371575D02*
X20955551Y-13352528D01*
X20955551Y-13352528D02*
X20936503Y-13323956D01*
X20936503Y-13323956D02*
X20926979Y-13314432D01*
D13*
X15906440Y-13660520D02*
X15906440Y-13770520D01*
X15851440Y-13715520D02*
X15961440Y-13715520D01*
D11*
X16326979Y-13807004D02*
X16212693Y-13807004D01*
X16269836Y-13807004D02*
X16269836Y-13607004D01*
X16269836Y-13607004D02*
X16250788Y-13635575D01*
X16250788Y-13635575D02*
X16231741Y-13654623D01*
X16231741Y-13654623D02*
X16212693Y-13664147D01*
X16412693Y-13787956D02*
X16422217Y-13797480D01*
X16422217Y-13797480D02*
X16412693Y-13807004D01*
X16412693Y-13807004D02*
X16403169Y-13797480D01*
X16403169Y-13797480D02*
X16412693Y-13787956D01*
X16412693Y-13787956D02*
X16412693Y-13807004D01*
X16612693Y-13807004D02*
X16498407Y-13807004D01*
X16555550Y-13807004D02*
X16555550Y-13607004D01*
X16555550Y-13607004D02*
X16536502Y-13635575D01*
X16536502Y-13635575D02*
X16517455Y-13654623D01*
X16517455Y-13654623D02*
X16498407Y-13664147D01*
X16736502Y-13607004D02*
X16755550Y-13607004D01*
X16755550Y-13607004D02*
X16774598Y-13616528D01*
X16774598Y-13616528D02*
X16784122Y-13626051D01*
X16784122Y-13626051D02*
X16793645Y-13645099D01*
X16793645Y-13645099D02*
X16803169Y-13683194D01*
X16803169Y-13683194D02*
X16803169Y-13730813D01*
X16803169Y-13730813D02*
X16793645Y-13768908D01*
X16793645Y-13768908D02*
X16784122Y-13787956D01*
X16784122Y-13787956D02*
X16774598Y-13797480D01*
X16774598Y-13797480D02*
X16755550Y-13807004D01*
X16755550Y-13807004D02*
X16736502Y-13807004D01*
X16736502Y-13807004D02*
X16717455Y-13797480D01*
X16717455Y-13797480D02*
X16707931Y-13787956D01*
X16707931Y-13787956D02*
X16698407Y-13768908D01*
X16698407Y-13768908D02*
X16688883Y-13730813D01*
X16688883Y-13730813D02*
X16688883Y-13683194D01*
X16688883Y-13683194D02*
X16698407Y-13645099D01*
X16698407Y-13645099D02*
X16707931Y-13626051D01*
X16707931Y-13626051D02*
X16717455Y-13616528D01*
X16717455Y-13616528D02*
X16736502Y-13607004D01*
X16926979Y-13607004D02*
X16946026Y-13607004D01*
X16946026Y-13607004D02*
X16965074Y-13616528D01*
X16965074Y-13616528D02*
X16974598Y-13626051D01*
X16974598Y-13626051D02*
X16984122Y-13645099D01*
X16984122Y-13645099D02*
X16993645Y-13683194D01*
X16993645Y-13683194D02*
X16993645Y-13730813D01*
X16993645Y-13730813D02*
X16984122Y-13768908D01*
X16984122Y-13768908D02*
X16974598Y-13787956D01*
X16974598Y-13787956D02*
X16965074Y-13797480D01*
X16965074Y-13797480D02*
X16946026Y-13807004D01*
X16946026Y-13807004D02*
X16926979Y-13807004D01*
X16926979Y-13807004D02*
X16907931Y-13797480D01*
X16907931Y-13797480D02*
X16898407Y-13787956D01*
X16898407Y-13787956D02*
X16888884Y-13768908D01*
X16888884Y-13768908D02*
X16879360Y-13730813D01*
X16879360Y-13730813D02*
X16879360Y-13683194D01*
X16879360Y-13683194D02*
X16888884Y-13645099D01*
X16888884Y-13645099D02*
X16898407Y-13626051D01*
X16898407Y-13626051D02*
X16907931Y-13616528D01*
X16907931Y-13616528D02*
X16926979Y-13607004D01*
X17079360Y-13807004D02*
X17079360Y-13673670D01*
X17079360Y-13692718D02*
X17088884Y-13683194D01*
X17088884Y-13683194D02*
X17107931Y-13673670D01*
X17107931Y-13673670D02*
X17136503Y-13673670D01*
X17136503Y-13673670D02*
X17155550Y-13683194D01*
X17155550Y-13683194D02*
X17165074Y-13702242D01*
X17165074Y-13702242D02*
X17165074Y-13807004D01*
X17165074Y-13702242D02*
X17174598Y-13683194D01*
X17174598Y-13683194D02*
X17193645Y-13673670D01*
X17193645Y-13673670D02*
X17222217Y-13673670D01*
X17222217Y-13673670D02*
X17241265Y-13683194D01*
X17241265Y-13683194D02*
X17250788Y-13702242D01*
X17250788Y-13702242D02*
X17250788Y-13807004D01*
X17346026Y-13807004D02*
X17346026Y-13673670D01*
X17346026Y-13692718D02*
X17355550Y-13683194D01*
X17355550Y-13683194D02*
X17374598Y-13673670D01*
X17374598Y-13673670D02*
X17403169Y-13673670D01*
X17403169Y-13673670D02*
X17422217Y-13683194D01*
X17422217Y-13683194D02*
X17431741Y-13702242D01*
X17431741Y-13702242D02*
X17431741Y-13807004D01*
X17431741Y-13702242D02*
X17441265Y-13683194D01*
X17441265Y-13683194D02*
X17460312Y-13673670D01*
X17460312Y-13673670D02*
X17488884Y-13673670D01*
X17488884Y-13673670D02*
X17507931Y-13683194D01*
X17507931Y-13683194D02*
X17517455Y-13702242D01*
X17517455Y-13702242D02*
X17517455Y-13807004D01*
X17907931Y-13597480D02*
X17736503Y-13854623D01*
X18165074Y-13607004D02*
X18184122Y-13607004D01*
X18184122Y-13607004D02*
X18203169Y-13616528D01*
X18203169Y-13616528D02*
X18212693Y-13626051D01*
X18212693Y-13626051D02*
X18222217Y-13645099D01*
X18222217Y-13645099D02*
X18231741Y-13683194D01*
X18231741Y-13683194D02*
X18231741Y-13730813D01*
X18231741Y-13730813D02*
X18222217Y-13768908D01*
X18222217Y-13768908D02*
X18212693Y-13787956D01*
X18212693Y-13787956D02*
X18203169Y-13797480D01*
X18203169Y-13797480D02*
X18184122Y-13807004D01*
X18184122Y-13807004D02*
X18165074Y-13807004D01*
X18165074Y-13807004D02*
X18146027Y-13797480D01*
X18146027Y-13797480D02*
X18136503Y-13787956D01*
X18136503Y-13787956D02*
X18126979Y-13768908D01*
X18126979Y-13768908D02*
X18117455Y-13730813D01*
X18117455Y-13730813D02*
X18117455Y-13683194D01*
X18117455Y-13683194D02*
X18126979Y-13645099D01*
X18126979Y-13645099D02*
X18136503Y-13626051D01*
X18136503Y-13626051D02*
X18146027Y-13616528D01*
X18146027Y-13616528D02*
X18165074Y-13607004D01*
X18317455Y-13787956D02*
X18326979Y-13797480D01*
X18326979Y-13797480D02*
X18317455Y-13807004D01*
X18317455Y-13807004D02*
X18307931Y-13797480D01*
X18307931Y-13797480D02*
X18317455Y-13787956D01*
X18317455Y-13787956D02*
X18317455Y-13807004D01*
X18450788Y-13607004D02*
X18469836Y-13607004D01*
X18469836Y-13607004D02*
X18488884Y-13616528D01*
X18488884Y-13616528D02*
X18498408Y-13626051D01*
X18498408Y-13626051D02*
X18507931Y-13645099D01*
X18507931Y-13645099D02*
X18517455Y-13683194D01*
X18517455Y-13683194D02*
X18517455Y-13730813D01*
X18517455Y-13730813D02*
X18507931Y-13768908D01*
X18507931Y-13768908D02*
X18498408Y-13787956D01*
X18498408Y-13787956D02*
X18488884Y-13797480D01*
X18488884Y-13797480D02*
X18469836Y-13807004D01*
X18469836Y-13807004D02*
X18450788Y-13807004D01*
X18450788Y-13807004D02*
X18431741Y-13797480D01*
X18431741Y-13797480D02*
X18422217Y-13787956D01*
X18422217Y-13787956D02*
X18412693Y-13768908D01*
X18412693Y-13768908D02*
X18403169Y-13730813D01*
X18403169Y-13730813D02*
X18403169Y-13683194D01*
X18403169Y-13683194D02*
X18412693Y-13645099D01*
X18412693Y-13645099D02*
X18422217Y-13626051D01*
X18422217Y-13626051D02*
X18431741Y-13616528D01*
X18431741Y-13616528D02*
X18450788Y-13607004D01*
X18688884Y-13673670D02*
X18688884Y-13807004D01*
X18641265Y-13597480D02*
X18593646Y-13740337D01*
X18593646Y-13740337D02*
X18717455Y-13740337D01*
X18774598Y-13607004D02*
X18898408Y-13607004D01*
X18898408Y-13607004D02*
X18831741Y-13683194D01*
X18831741Y-13683194D02*
X18860312Y-13683194D01*
X18860312Y-13683194D02*
X18879360Y-13692718D01*
X18879360Y-13692718D02*
X18888884Y-13702242D01*
X18888884Y-13702242D02*
X18898408Y-13721289D01*
X18898408Y-13721289D02*
X18898408Y-13768908D01*
X18898408Y-13768908D02*
X18888884Y-13787956D01*
X18888884Y-13787956D02*
X18879360Y-13797480D01*
X18879360Y-13797480D02*
X18860312Y-13807004D01*
X18860312Y-13807004D02*
X18803169Y-13807004D01*
X18803169Y-13807004D02*
X18784122Y-13797480D01*
X18784122Y-13797480D02*
X18774598Y-13787956D01*
X18965074Y-13607004D02*
X19088884Y-13607004D01*
X19088884Y-13607004D02*
X19022217Y-13683194D01*
X19022217Y-13683194D02*
X19050789Y-13683194D01*
X19050789Y-13683194D02*
X19069836Y-13692718D01*
X19069836Y-13692718D02*
X19079360Y-13702242D01*
X19079360Y-13702242D02*
X19088884Y-13721289D01*
X19088884Y-13721289D02*
X19088884Y-13768908D01*
X19088884Y-13768908D02*
X19079360Y-13787956D01*
X19079360Y-13787956D02*
X19069836Y-13797480D01*
X19069836Y-13797480D02*
X19050789Y-13807004D01*
X19050789Y-13807004D02*
X18993646Y-13807004D01*
X18993646Y-13807004D02*
X18974598Y-13797480D01*
X18974598Y-13797480D02*
X18965074Y-13787956D01*
X19165074Y-13607004D02*
X19165074Y-13645099D01*
X19241265Y-13607004D02*
X19241265Y-13645099D01*
X19536503Y-13883194D02*
X19526979Y-13873670D01*
X19526979Y-13873670D02*
X19507931Y-13845099D01*
X19507931Y-13845099D02*
X19498408Y-13826051D01*
X19498408Y-13826051D02*
X19488884Y-13797480D01*
X19488884Y-13797480D02*
X19479360Y-13749861D01*
X19479360Y-13749861D02*
X19479360Y-13711766D01*
X19479360Y-13711766D02*
X19488884Y-13664147D01*
X19488884Y-13664147D02*
X19498408Y-13635575D01*
X19498408Y-13635575D02*
X19507931Y-13616528D01*
X19507931Y-13616528D02*
X19526979Y-13587956D01*
X19526979Y-13587956D02*
X19536503Y-13578432D01*
X19717455Y-13807004D02*
X19603170Y-13807004D01*
X19660312Y-13807004D02*
X19660312Y-13607004D01*
X19660312Y-13607004D02*
X19641265Y-13635575D01*
X19641265Y-13635575D02*
X19622217Y-13654623D01*
X19622217Y-13654623D02*
X19603170Y-13664147D01*
X19898408Y-13607004D02*
X19803170Y-13607004D01*
X19803170Y-13607004D02*
X19793646Y-13702242D01*
X19793646Y-13702242D02*
X19803170Y-13692718D01*
X19803170Y-13692718D02*
X19822217Y-13683194D01*
X19822217Y-13683194D02*
X19869836Y-13683194D01*
X19869836Y-13683194D02*
X19888884Y-13692718D01*
X19888884Y-13692718D02*
X19898408Y-13702242D01*
X19898408Y-13702242D02*
X19907931Y-13721289D01*
X19907931Y-13721289D02*
X19907931Y-13768908D01*
X19907931Y-13768908D02*
X19898408Y-13787956D01*
X19898408Y-13787956D02*
X19888884Y-13797480D01*
X19888884Y-13797480D02*
X19869836Y-13807004D01*
X19869836Y-13807004D02*
X19822217Y-13807004D01*
X19822217Y-13807004D02*
X19803170Y-13797480D01*
X19803170Y-13797480D02*
X19793646Y-13787956D01*
X20146027Y-13807004D02*
X20146027Y-13607004D01*
X20231741Y-13807004D02*
X20231741Y-13702242D01*
X20231741Y-13702242D02*
X20222217Y-13683194D01*
X20222217Y-13683194D02*
X20203170Y-13673670D01*
X20203170Y-13673670D02*
X20174598Y-13673670D01*
X20174598Y-13673670D02*
X20155551Y-13683194D01*
X20155551Y-13683194D02*
X20146027Y-13692718D01*
X20355551Y-13807004D02*
X20336503Y-13797480D01*
X20336503Y-13797480D02*
X20326979Y-13787956D01*
X20326979Y-13787956D02*
X20317455Y-13768908D01*
X20317455Y-13768908D02*
X20317455Y-13711766D01*
X20317455Y-13711766D02*
X20326979Y-13692718D01*
X20326979Y-13692718D02*
X20336503Y-13683194D01*
X20336503Y-13683194D02*
X20355551Y-13673670D01*
X20355551Y-13673670D02*
X20384122Y-13673670D01*
X20384122Y-13673670D02*
X20403170Y-13683194D01*
X20403170Y-13683194D02*
X20412693Y-13692718D01*
X20412693Y-13692718D02*
X20422217Y-13711766D01*
X20422217Y-13711766D02*
X20422217Y-13768908D01*
X20422217Y-13768908D02*
X20412693Y-13787956D01*
X20412693Y-13787956D02*
X20403170Y-13797480D01*
X20403170Y-13797480D02*
X20384122Y-13807004D01*
X20384122Y-13807004D02*
X20355551Y-13807004D01*
X20536503Y-13807004D02*
X20517455Y-13797480D01*
X20517455Y-13797480D02*
X20507932Y-13778432D01*
X20507932Y-13778432D02*
X20507932Y-13607004D01*
X20688884Y-13797480D02*
X20669836Y-13807004D01*
X20669836Y-13807004D02*
X20631741Y-13807004D01*
X20631741Y-13807004D02*
X20612693Y-13797480D01*
X20612693Y-13797480D02*
X20603170Y-13778432D01*
X20603170Y-13778432D02*
X20603170Y-13702242D01*
X20603170Y-13702242D02*
X20612693Y-13683194D01*
X20612693Y-13683194D02*
X20631741Y-13673670D01*
X20631741Y-13673670D02*
X20669836Y-13673670D01*
X20669836Y-13673670D02*
X20688884Y-13683194D01*
X20688884Y-13683194D02*
X20698408Y-13702242D01*
X20698408Y-13702242D02*
X20698408Y-13721289D01*
X20698408Y-13721289D02*
X20603170Y-13740337D01*
X20774598Y-13797480D02*
X20793646Y-13807004D01*
X20793646Y-13807004D02*
X20831741Y-13807004D01*
X20831741Y-13807004D02*
X20850789Y-13797480D01*
X20850789Y-13797480D02*
X20860313Y-13778432D01*
X20860313Y-13778432D02*
X20860313Y-13768908D01*
X20860313Y-13768908D02*
X20850789Y-13749861D01*
X20850789Y-13749861D02*
X20831741Y-13740337D01*
X20831741Y-13740337D02*
X20803170Y-13740337D01*
X20803170Y-13740337D02*
X20784122Y-13730813D01*
X20784122Y-13730813D02*
X20774598Y-13711766D01*
X20774598Y-13711766D02*
X20774598Y-13702242D01*
X20774598Y-13702242D02*
X20784122Y-13683194D01*
X20784122Y-13683194D02*
X20803170Y-13673670D01*
X20803170Y-13673670D02*
X20831741Y-13673670D01*
X20831741Y-13673670D02*
X20850789Y-13683194D01*
X20926979Y-13883194D02*
X20936503Y-13873670D01*
X20936503Y-13873670D02*
X20955551Y-13845099D01*
X20955551Y-13845099D02*
X20965074Y-13826051D01*
X20965074Y-13826051D02*
X20974598Y-13797480D01*
X20974598Y-13797480D02*
X20984122Y-13749861D01*
X20984122Y-13749861D02*
X20984122Y-13711766D01*
X20984122Y-13711766D02*
X20974598Y-13664147D01*
X20974598Y-13664147D02*
X20965074Y-13635575D01*
X20965074Y-13635575D02*
X20955551Y-13616528D01*
X20955551Y-13616528D02*
X20936503Y-13587956D01*
X20936503Y-13587956D02*
X20926979Y-13578432D01*
X15932151Y-14050231D02*
X15932151Y-13908809D01*
X15790729Y-13908809D01*
X15790729Y-14050231D01*
X15932151Y-14050231D01*
X16203169Y-13871004D02*
X16326979Y-13871004D01*
X16326979Y-13871004D02*
X16260312Y-13947194D01*
X16260312Y-13947194D02*
X16288883Y-13947194D01*
X16288883Y-13947194D02*
X16307931Y-13956718D01*
X16307931Y-13956718D02*
X16317455Y-13966242D01*
X16317455Y-13966242D02*
X16326979Y-13985289D01*
X16326979Y-13985289D02*
X16326979Y-14032908D01*
X16326979Y-14032908D02*
X16317455Y-14051956D01*
X16317455Y-14051956D02*
X16307931Y-14061480D01*
X16307931Y-14061480D02*
X16288883Y-14071004D01*
X16288883Y-14071004D02*
X16231741Y-14071004D01*
X16231741Y-14071004D02*
X16212693Y-14061480D01*
X16212693Y-14061480D02*
X16203169Y-14051956D01*
X16412693Y-14051956D02*
X16422217Y-14061480D01*
X16422217Y-14061480D02*
X16412693Y-14071004D01*
X16412693Y-14071004D02*
X16403169Y-14061480D01*
X16403169Y-14061480D02*
X16412693Y-14051956D01*
X16412693Y-14051956D02*
X16412693Y-14071004D01*
X16498407Y-13890051D02*
X16507931Y-13880528D01*
X16507931Y-13880528D02*
X16526979Y-13871004D01*
X16526979Y-13871004D02*
X16574598Y-13871004D01*
X16574598Y-13871004D02*
X16593645Y-13880528D01*
X16593645Y-13880528D02*
X16603169Y-13890051D01*
X16603169Y-13890051D02*
X16612693Y-13909099D01*
X16612693Y-13909099D02*
X16612693Y-13928147D01*
X16612693Y-13928147D02*
X16603169Y-13956718D01*
X16603169Y-13956718D02*
X16488883Y-14071004D01*
X16488883Y-14071004D02*
X16612693Y-14071004D01*
X16736502Y-13871004D02*
X16755550Y-13871004D01*
X16755550Y-13871004D02*
X16774598Y-13880528D01*
X16774598Y-13880528D02*
X16784122Y-13890051D01*
X16784122Y-13890051D02*
X16793645Y-13909099D01*
X16793645Y-13909099D02*
X16803169Y-13947194D01*
X16803169Y-13947194D02*
X16803169Y-13994813D01*
X16803169Y-13994813D02*
X16793645Y-14032908D01*
X16793645Y-14032908D02*
X16784122Y-14051956D01*
X16784122Y-14051956D02*
X16774598Y-14061480D01*
X16774598Y-14061480D02*
X16755550Y-14071004D01*
X16755550Y-14071004D02*
X16736502Y-14071004D01*
X16736502Y-14071004D02*
X16717455Y-14061480D01*
X16717455Y-14061480D02*
X16707931Y-14051956D01*
X16707931Y-14051956D02*
X16698407Y-14032908D01*
X16698407Y-14032908D02*
X16688883Y-13994813D01*
X16688883Y-13994813D02*
X16688883Y-13947194D01*
X16688883Y-13947194D02*
X16698407Y-13909099D01*
X16698407Y-13909099D02*
X16707931Y-13890051D01*
X16707931Y-13890051D02*
X16717455Y-13880528D01*
X16717455Y-13880528D02*
X16736502Y-13871004D01*
X16926979Y-13871004D02*
X16946026Y-13871004D01*
X16946026Y-13871004D02*
X16965074Y-13880528D01*
X16965074Y-13880528D02*
X16974598Y-13890051D01*
X16974598Y-13890051D02*
X16984122Y-13909099D01*
X16984122Y-13909099D02*
X16993645Y-13947194D01*
X16993645Y-13947194D02*
X16993645Y-13994813D01*
X16993645Y-13994813D02*
X16984122Y-14032908D01*
X16984122Y-14032908D02*
X16974598Y-14051956D01*
X16974598Y-14051956D02*
X16965074Y-14061480D01*
X16965074Y-14061480D02*
X16946026Y-14071004D01*
X16946026Y-14071004D02*
X16926979Y-14071004D01*
X16926979Y-14071004D02*
X16907931Y-14061480D01*
X16907931Y-14061480D02*
X16898407Y-14051956D01*
X16898407Y-14051956D02*
X16888884Y-14032908D01*
X16888884Y-14032908D02*
X16879360Y-13994813D01*
X16879360Y-13994813D02*
X16879360Y-13947194D01*
X16879360Y-13947194D02*
X16888884Y-13909099D01*
X16888884Y-13909099D02*
X16898407Y-13890051D01*
X16898407Y-13890051D02*
X16907931Y-13880528D01*
X16907931Y-13880528D02*
X16926979Y-13871004D01*
X17079360Y-14071004D02*
X17079360Y-13937670D01*
X17079360Y-13956718D02*
X17088884Y-13947194D01*
X17088884Y-13947194D02*
X17107931Y-13937670D01*
X17107931Y-13937670D02*
X17136503Y-13937670D01*
X17136503Y-13937670D02*
X17155550Y-13947194D01*
X17155550Y-13947194D02*
X17165074Y-13966242D01*
X17165074Y-13966242D02*
X17165074Y-14071004D01*
X17165074Y-13966242D02*
X17174598Y-13947194D01*
X17174598Y-13947194D02*
X17193645Y-13937670D01*
X17193645Y-13937670D02*
X17222217Y-13937670D01*
X17222217Y-13937670D02*
X17241265Y-13947194D01*
X17241265Y-13947194D02*
X17250788Y-13966242D01*
X17250788Y-13966242D02*
X17250788Y-14071004D01*
X17346026Y-14071004D02*
X17346026Y-13937670D01*
X17346026Y-13956718D02*
X17355550Y-13947194D01*
X17355550Y-13947194D02*
X17374598Y-13937670D01*
X17374598Y-13937670D02*
X17403169Y-13937670D01*
X17403169Y-13937670D02*
X17422217Y-13947194D01*
X17422217Y-13947194D02*
X17431741Y-13966242D01*
X17431741Y-13966242D02*
X17431741Y-14071004D01*
X17431741Y-13966242D02*
X17441265Y-13947194D01*
X17441265Y-13947194D02*
X17460312Y-13937670D01*
X17460312Y-13937670D02*
X17488884Y-13937670D01*
X17488884Y-13937670D02*
X17507931Y-13947194D01*
X17507931Y-13947194D02*
X17517455Y-13966242D01*
X17517455Y-13966242D02*
X17517455Y-14071004D01*
X17907931Y-13861480D02*
X17736503Y-14118623D01*
X18165074Y-13871004D02*
X18184122Y-13871004D01*
X18184122Y-13871004D02*
X18203169Y-13880528D01*
X18203169Y-13880528D02*
X18212693Y-13890051D01*
X18212693Y-13890051D02*
X18222217Y-13909099D01*
X18222217Y-13909099D02*
X18231741Y-13947194D01*
X18231741Y-13947194D02*
X18231741Y-13994813D01*
X18231741Y-13994813D02*
X18222217Y-14032908D01*
X18222217Y-14032908D02*
X18212693Y-14051956D01*
X18212693Y-14051956D02*
X18203169Y-14061480D01*
X18203169Y-14061480D02*
X18184122Y-14071004D01*
X18184122Y-14071004D02*
X18165074Y-14071004D01*
X18165074Y-14071004D02*
X18146027Y-14061480D01*
X18146027Y-14061480D02*
X18136503Y-14051956D01*
X18136503Y-14051956D02*
X18126979Y-14032908D01*
X18126979Y-14032908D02*
X18117455Y-13994813D01*
X18117455Y-13994813D02*
X18117455Y-13947194D01*
X18117455Y-13947194D02*
X18126979Y-13909099D01*
X18126979Y-13909099D02*
X18136503Y-13890051D01*
X18136503Y-13890051D02*
X18146027Y-13880528D01*
X18146027Y-13880528D02*
X18165074Y-13871004D01*
X18317455Y-14051956D02*
X18326979Y-14061480D01*
X18326979Y-14061480D02*
X18317455Y-14071004D01*
X18317455Y-14071004D02*
X18307931Y-14061480D01*
X18307931Y-14061480D02*
X18317455Y-14051956D01*
X18317455Y-14051956D02*
X18317455Y-14071004D01*
X18517455Y-14071004D02*
X18403169Y-14071004D01*
X18460312Y-14071004D02*
X18460312Y-13871004D01*
X18460312Y-13871004D02*
X18441265Y-13899575D01*
X18441265Y-13899575D02*
X18422217Y-13918623D01*
X18422217Y-13918623D02*
X18403169Y-13928147D01*
X18593646Y-13890051D02*
X18603169Y-13880528D01*
X18603169Y-13880528D02*
X18622217Y-13871004D01*
X18622217Y-13871004D02*
X18669836Y-13871004D01*
X18669836Y-13871004D02*
X18688884Y-13880528D01*
X18688884Y-13880528D02*
X18698408Y-13890051D01*
X18698408Y-13890051D02*
X18707931Y-13909099D01*
X18707931Y-13909099D02*
X18707931Y-13928147D01*
X18707931Y-13928147D02*
X18698408Y-13956718D01*
X18698408Y-13956718D02*
X18584122Y-14071004D01*
X18584122Y-14071004D02*
X18707931Y-14071004D01*
X18879360Y-13871004D02*
X18841265Y-13871004D01*
X18841265Y-13871004D02*
X18822217Y-13880528D01*
X18822217Y-13880528D02*
X18812693Y-13890051D01*
X18812693Y-13890051D02*
X18793646Y-13918623D01*
X18793646Y-13918623D02*
X18784122Y-13956718D01*
X18784122Y-13956718D02*
X18784122Y-14032908D01*
X18784122Y-14032908D02*
X18793646Y-14051956D01*
X18793646Y-14051956D02*
X18803169Y-14061480D01*
X18803169Y-14061480D02*
X18822217Y-14071004D01*
X18822217Y-14071004D02*
X18860312Y-14071004D01*
X18860312Y-14071004D02*
X18879360Y-14061480D01*
X18879360Y-14061480D02*
X18888884Y-14051956D01*
X18888884Y-14051956D02*
X18898408Y-14032908D01*
X18898408Y-14032908D02*
X18898408Y-13985289D01*
X18898408Y-13985289D02*
X18888884Y-13966242D01*
X18888884Y-13966242D02*
X18879360Y-13956718D01*
X18879360Y-13956718D02*
X18860312Y-13947194D01*
X18860312Y-13947194D02*
X18822217Y-13947194D01*
X18822217Y-13947194D02*
X18803169Y-13956718D01*
X18803169Y-13956718D02*
X18793646Y-13966242D01*
X18793646Y-13966242D02*
X18784122Y-13985289D01*
X19022217Y-13871004D02*
X19041265Y-13871004D01*
X19041265Y-13871004D02*
X19060312Y-13880528D01*
X19060312Y-13880528D02*
X19069836Y-13890051D01*
X19069836Y-13890051D02*
X19079360Y-13909099D01*
X19079360Y-13909099D02*
X19088884Y-13947194D01*
X19088884Y-13947194D02*
X19088884Y-13994813D01*
X19088884Y-13994813D02*
X19079360Y-14032908D01*
X19079360Y-14032908D02*
X19069836Y-14051956D01*
X19069836Y-14051956D02*
X19060312Y-14061480D01*
X19060312Y-14061480D02*
X19041265Y-14071004D01*
X19041265Y-14071004D02*
X19022217Y-14071004D01*
X19022217Y-14071004D02*
X19003169Y-14061480D01*
X19003169Y-14061480D02*
X18993646Y-14051956D01*
X18993646Y-14051956D02*
X18984122Y-14032908D01*
X18984122Y-14032908D02*
X18974598Y-13994813D01*
X18974598Y-13994813D02*
X18974598Y-13947194D01*
X18974598Y-13947194D02*
X18984122Y-13909099D01*
X18984122Y-13909099D02*
X18993646Y-13890051D01*
X18993646Y-13890051D02*
X19003169Y-13880528D01*
X19003169Y-13880528D02*
X19022217Y-13871004D01*
X19165074Y-13871004D02*
X19165074Y-13909099D01*
X19241265Y-13871004D02*
X19241265Y-13909099D01*
X19536503Y-14147194D02*
X19526979Y-14137670D01*
X19526979Y-14137670D02*
X19507931Y-14109099D01*
X19507931Y-14109099D02*
X19498408Y-14090051D01*
X19498408Y-14090051D02*
X19488884Y-14061480D01*
X19488884Y-14061480D02*
X19479360Y-14013861D01*
X19479360Y-14013861D02*
X19479360Y-13975766D01*
X19479360Y-13975766D02*
X19488884Y-13928147D01*
X19488884Y-13928147D02*
X19498408Y-13899575D01*
X19498408Y-13899575D02*
X19507931Y-13880528D01*
X19507931Y-13880528D02*
X19526979Y-13851956D01*
X19526979Y-13851956D02*
X19536503Y-13842432D01*
X19603170Y-13890051D02*
X19612693Y-13880528D01*
X19612693Y-13880528D02*
X19631741Y-13871004D01*
X19631741Y-13871004D02*
X19679360Y-13871004D01*
X19679360Y-13871004D02*
X19698408Y-13880528D01*
X19698408Y-13880528D02*
X19707931Y-13890051D01*
X19707931Y-13890051D02*
X19717455Y-13909099D01*
X19717455Y-13909099D02*
X19717455Y-13928147D01*
X19717455Y-13928147D02*
X19707931Y-13956718D01*
X19707931Y-13956718D02*
X19593646Y-14071004D01*
X19593646Y-14071004D02*
X19717455Y-14071004D01*
X19955551Y-14071004D02*
X19955551Y-13871004D01*
X20041265Y-14071004D02*
X20041265Y-13966242D01*
X20041265Y-13966242D02*
X20031741Y-13947194D01*
X20031741Y-13947194D02*
X20012693Y-13937670D01*
X20012693Y-13937670D02*
X19984122Y-13937670D01*
X19984122Y-13937670D02*
X19965074Y-13947194D01*
X19965074Y-13947194D02*
X19955551Y-13956718D01*
X20165074Y-14071004D02*
X20146027Y-14061480D01*
X20146027Y-14061480D02*
X20136503Y-14051956D01*
X20136503Y-14051956D02*
X20126979Y-14032908D01*
X20126979Y-14032908D02*
X20126979Y-13975766D01*
X20126979Y-13975766D02*
X20136503Y-13956718D01*
X20136503Y-13956718D02*
X20146027Y-13947194D01*
X20146027Y-13947194D02*
X20165074Y-13937670D01*
X20165074Y-13937670D02*
X20193646Y-13937670D01*
X20193646Y-13937670D02*
X20212693Y-13947194D01*
X20212693Y-13947194D02*
X20222217Y-13956718D01*
X20222217Y-13956718D02*
X20231741Y-13975766D01*
X20231741Y-13975766D02*
X20231741Y-14032908D01*
X20231741Y-14032908D02*
X20222217Y-14051956D01*
X20222217Y-14051956D02*
X20212693Y-14061480D01*
X20212693Y-14061480D02*
X20193646Y-14071004D01*
X20193646Y-14071004D02*
X20165074Y-14071004D01*
X20346027Y-14071004D02*
X20326979Y-14061480D01*
X20326979Y-14061480D02*
X20317455Y-14042432D01*
X20317455Y-14042432D02*
X20317455Y-13871004D01*
X20498408Y-14061480D02*
X20479360Y-14071004D01*
X20479360Y-14071004D02*
X20441265Y-14071004D01*
X20441265Y-14071004D02*
X20422217Y-14061480D01*
X20422217Y-14061480D02*
X20412693Y-14042432D01*
X20412693Y-14042432D02*
X20412693Y-13966242D01*
X20412693Y-13966242D02*
X20422217Y-13947194D01*
X20422217Y-13947194D02*
X20441265Y-13937670D01*
X20441265Y-13937670D02*
X20479360Y-13937670D01*
X20479360Y-13937670D02*
X20498408Y-13947194D01*
X20498408Y-13947194D02*
X20507932Y-13966242D01*
X20507932Y-13966242D02*
X20507932Y-13985289D01*
X20507932Y-13985289D02*
X20412693Y-14004337D01*
X20584122Y-14061480D02*
X20603170Y-14071004D01*
X20603170Y-14071004D02*
X20641265Y-14071004D01*
X20641265Y-14071004D02*
X20660313Y-14061480D01*
X20660313Y-14061480D02*
X20669836Y-14042432D01*
X20669836Y-14042432D02*
X20669836Y-14032908D01*
X20669836Y-14032908D02*
X20660313Y-14013861D01*
X20660313Y-14013861D02*
X20641265Y-14004337D01*
X20641265Y-14004337D02*
X20612693Y-14004337D01*
X20612693Y-14004337D02*
X20593646Y-13994813D01*
X20593646Y-13994813D02*
X20584122Y-13975766D01*
X20584122Y-13975766D02*
X20584122Y-13966242D01*
X20584122Y-13966242D02*
X20593646Y-13947194D01*
X20593646Y-13947194D02*
X20612693Y-13937670D01*
X20612693Y-13937670D02*
X20641265Y-13937670D01*
X20641265Y-13937670D02*
X20660313Y-13947194D01*
X20736503Y-14147194D02*
X20746027Y-14137670D01*
X20746027Y-14137670D02*
X20765074Y-14109099D01*
X20765074Y-14109099D02*
X20774598Y-14090051D01*
X20774598Y-14090051D02*
X20784122Y-14061480D01*
X20784122Y-14061480D02*
X20793646Y-14013861D01*
X20793646Y-14013861D02*
X20793646Y-13975766D01*
X20793646Y-13975766D02*
X20784122Y-13928147D01*
X20784122Y-13928147D02*
X20774598Y-13899575D01*
X20774598Y-13899575D02*
X20765074Y-13880528D01*
X20765074Y-13880528D02*
X20746027Y-13851956D01*
X20746027Y-13851956D02*
X20736503Y-13842432D01*
M02*
