%TF.GenerationSoftware,KiCad,Pcbnew,7.0.7*%
%TF.CreationDate,2023-11-25T23:50:18-06:00*%
%TF.ProjectId,DAC2DE0,44414332-4445-4302-9e6b-696361645f70,rev?*%
%TF.SameCoordinates,Original*%
%TF.FileFunction,Copper,L4,Bot*%
%TF.FilePolarity,Positive*%
%FSLAX46Y46*%
G04 Gerber Fmt 4.6, Leading zero omitted, Abs format (unit mm)*
G04 Created by KiCad (PCBNEW 7.0.7) date 2023-11-25 23:50:18*
%MOMM*%
%LPD*%
G01*
G04 APERTURE LIST*
%TA.AperFunction,ComponentPad*%
%ADD10R,1.700000X1.700000*%
%TD*%
%TA.AperFunction,ComponentPad*%
%ADD11O,1.700000X1.700000*%
%TD*%
%TA.AperFunction,ComponentPad*%
%ADD12C,4.800000*%
%TD*%
%TA.AperFunction,ComponentPad*%
%ADD13C,1.650000*%
%TD*%
%TA.AperFunction,ViaPad*%
%ADD14C,0.800000*%
%TD*%
%TA.AperFunction,Conductor*%
%ADD15C,0.250000*%
%TD*%
G04 APERTURE END LIST*
D10*
%TO.P,J3,1,Pin_1*%
%TO.N,/R0*%
X163474400Y-74117200D03*
D11*
%TO.P,J3,2,Pin_2*%
%TO.N,/R1*%
X166014400Y-74117200D03*
%TO.P,J3,3,Pin_3*%
%TO.N,/R2*%
X163474400Y-76657200D03*
%TO.P,J3,4,Pin_4*%
%TO.N,/R3*%
X166014400Y-76657200D03*
%TO.P,J3,5,Pin_5*%
%TO.N,/R4*%
X163474400Y-79197200D03*
%TO.P,J3,6,Pin_6*%
%TO.N,/R5*%
X166014400Y-79197200D03*
%TO.P,J3,7,Pin_7*%
%TO.N,/R6*%
X163474400Y-81737200D03*
%TO.P,J3,8,Pin_8*%
%TO.N,/R7*%
X166014400Y-81737200D03*
%TO.P,J3,9,Pin_9*%
%TO.N,/R8*%
X163474400Y-84277200D03*
%TO.P,J3,10,Pin_10*%
%TO.N,/R9*%
X166014400Y-84277200D03*
%TO.P,J3,11,Pin_11*%
%TO.N,unconnected-(J3-Pin_11-Pad11)*%
X163474400Y-86817200D03*
%TO.P,J3,12,Pin_12*%
%TO.N,GND*%
X166014400Y-86817200D03*
%TO.P,J3,13,Pin_13*%
%TO.N,/G0*%
X163474400Y-89357200D03*
%TO.P,J3,14,Pin_14*%
%TO.N,/G1*%
X166014400Y-89357200D03*
%TO.P,J3,15,Pin_15*%
%TO.N,/G2*%
X163474400Y-91897200D03*
%TO.P,J3,16,Pin_16*%
%TO.N,/G3*%
X166014400Y-91897200D03*
%TO.P,J3,17,Pin_17*%
%TO.N,/G4*%
X163474400Y-94437200D03*
%TO.P,J3,18,Pin_18*%
%TO.N,/G5*%
X166014400Y-94437200D03*
%TO.P,J3,19,Pin_19*%
%TO.N,/PCLK*%
X163474400Y-96977200D03*
%TO.P,J3,20,Pin_20*%
%TO.N,/G6*%
X166014400Y-96977200D03*
%TO.P,J3,21,Pin_21*%
%TO.N,/G7*%
X163474400Y-99517200D03*
%TO.P,J3,22,Pin_22*%
%TO.N,/G8*%
X166014400Y-99517200D03*
%TO.P,J3,23,Pin_23*%
%TO.N,/G9*%
X163474400Y-102057200D03*
%TO.P,J3,24,Pin_24*%
%TO.N,/B0*%
X166014400Y-102057200D03*
%TO.P,J3,25,Pin_25*%
%TO.N,/B1*%
X163474400Y-104597200D03*
%TO.P,J3,26,Pin_26*%
%TO.N,/B2*%
X166014400Y-104597200D03*
%TO.P,J3,27,Pin_27*%
%TO.N,/B3*%
X163474400Y-107137200D03*
%TO.P,J3,28,Pin_28*%
%TO.N,/B4*%
X166014400Y-107137200D03*
%TO.P,J3,29,Pin_29*%
%TO.N,+3.3V*%
X163474400Y-109677200D03*
%TO.P,J3,30,Pin_30*%
%TO.N,GND*%
X166014400Y-109677200D03*
%TO.P,J3,31,Pin_31*%
%TO.N,/B5*%
X163474400Y-112217200D03*
%TO.P,J3,32,Pin_32*%
%TO.N,/B6*%
X166014400Y-112217200D03*
%TO.P,J3,33,Pin_33*%
%TO.N,/B7*%
X163474400Y-114757200D03*
%TO.P,J3,34,Pin_34*%
%TO.N,/B8*%
X166014400Y-114757200D03*
%TO.P,J3,35,Pin_35*%
%TO.N,/B9*%
X163474400Y-117297200D03*
%TO.P,J3,36,Pin_36*%
%TO.N,/BLK*%
X166014400Y-117297200D03*
%TO.P,J3,37,Pin_37*%
%TO.N,unconnected-(J3-Pin_37-Pad37)*%
X163474400Y-119837200D03*
%TO.P,J3,38,Pin_38*%
%TO.N,unconnected-(J3-Pin_38-Pad38)*%
X166014400Y-119837200D03*
%TO.P,J3,39,Pin_39*%
%TO.N,/VSYNC*%
X163474400Y-122377200D03*
%TO.P,J3,40,Pin_40*%
%TO.N,/HSYNC*%
X166014400Y-122377200D03*
%TD*%
D12*
%TO.P,J1,MH2,MH2*%
%TO.N,GND*%
X208280000Y-110214800D03*
%TO.P,J1,MH1,MH1*%
X208280000Y-85224800D03*
D13*
%TO.P,J1,15,15*%
%TO.N,unconnected-(J1-Pad15)*%
X210820000Y-102549800D03*
%TO.P,J1,14,14*%
%TO.N,Net-(J1-Pad14)*%
X210820000Y-100259800D03*
%TO.P,J1,13,13*%
%TO.N,Net-(J1-Pad13)*%
X210820000Y-97969800D03*
%TO.P,J1,12,12*%
%TO.N,unconnected-(J1-Pad12)*%
X210820000Y-95679800D03*
%TO.P,J1,11,11*%
%TO.N,unconnected-(J1-Pad11)*%
X210820000Y-93389800D03*
%TO.P,J1,10,10*%
%TO.N,GND*%
X208280000Y-101404800D03*
%TO.P,J1,9,9*%
%TO.N,unconnected-(J1-Pad9)*%
X208280000Y-99114800D03*
%TO.P,J1,8,8*%
%TO.N,GND*%
X208280000Y-96824800D03*
%TO.P,J1,7,7*%
X208280000Y-94534800D03*
%TO.P,J1,6,6*%
X208280000Y-92244800D03*
%TO.P,J1,5,5*%
X205740000Y-102549800D03*
%TO.P,J1,4,4*%
%TO.N,unconnected-(J1-Pad4)*%
X205740000Y-100259800D03*
%TO.P,J1,3,3*%
%TO.N,/BLUE*%
X205740000Y-97969800D03*
%TO.P,J1,2,2*%
%TO.N,/GREEN*%
X205740000Y-95679800D03*
%TO.P,J1,1,1*%
%TO.N,/RED*%
X205740000Y-93389800D03*
%TD*%
D14*
%TO.N,GND*%
X195072000Y-93421200D03*
X201828400Y-95910400D03*
X214223600Y-103022400D03*
X213766400Y-105968800D03*
X215392000Y-106730800D03*
X213512400Y-110439200D03*
X216865200Y-110642400D03*
X213614000Y-114300000D03*
X217220800Y-115976400D03*
X213918800Y-118364000D03*
X214528400Y-120497600D03*
X211683600Y-120243600D03*
X209042000Y-121412000D03*
X206146400Y-119735600D03*
X204774800Y-121107200D03*
X202336400Y-119532400D03*
X199999600Y-121208800D03*
X196850000Y-119583200D03*
X194970400Y-121462800D03*
X192938400Y-119380000D03*
X191566800Y-121208800D03*
X189280800Y-119481600D03*
X187655200Y-121412000D03*
X185318400Y-119684800D03*
X183692800Y-121310400D03*
X181660800Y-119888000D03*
X179374800Y-121310400D03*
X177342800Y-119837200D03*
X175310800Y-121513600D03*
X173177200Y-120091200D03*
X172466000Y-92405200D03*
X170078400Y-92303600D03*
X175056800Y-92303600D03*
X178257200Y-92252800D03*
X178765200Y-95554800D03*
X175717200Y-95504000D03*
X171704000Y-95402400D03*
X169062400Y-95351600D03*
X182575200Y-102108000D03*
X179374800Y-102158800D03*
X176479200Y-102209600D03*
%TO.N,/BLK*%
X187706000Y-99771200D03*
%TO.N,GND*%
X186182000Y-101205100D03*
%TO.N,+3.3V*%
X174904400Y-102006400D03*
%TO.N,/B9*%
X192872900Y-100076000D03*
%TO.N,/B8*%
X191719200Y-99060000D03*
%TO.N,/B7*%
X190957200Y-99872800D03*
%TO.N,/B6*%
X192836800Y-105206800D03*
%TO.N,/B5*%
X191770000Y-105508100D03*
%TO.N,/B4*%
X190784382Y-104861409D03*
%TO.N,/B3*%
X189890400Y-105308400D03*
%TO.N,/B2*%
X188823600Y-105460800D03*
%TO.N,/B1*%
X188214000Y-104394000D03*
%TO.N,/B0*%
X187706000Y-103378000D03*
%TO.N,/G9*%
X181254400Y-99872800D03*
X168402000Y-100685600D03*
%TO.N,/G8*%
X180441600Y-98958400D03*
%TO.N,/G7*%
X182524400Y-98196400D03*
%TO.N,GND*%
X192887600Y-97485200D03*
%TO.N,+3.3V*%
X196748400Y-98501200D03*
X198374000Y-92862400D03*
X196951600Y-91998800D03*
X193548000Y-89052400D03*
%TO.N,GND*%
X195529200Y-89204800D03*
X200710800Y-92862400D03*
X194919600Y-101396800D03*
X199186800Y-102362000D03*
X202031600Y-98653600D03*
%TD*%
D15*
%TO.N,/B9*%
X192872900Y-101483700D02*
X192872900Y-100076000D01*
X194716400Y-103327200D02*
X192872900Y-101483700D01*
X196189600Y-104800400D02*
X194716400Y-103327200D01*
X196189600Y-108508800D02*
X196189600Y-104800400D01*
X188576200Y-116122200D02*
X196189600Y-108508800D01*
X164649400Y-116122200D02*
X188576200Y-116122200D01*
X163474400Y-117297200D02*
X164649400Y-116122200D01*
%TO.N,/B8*%
X191719200Y-101396800D02*
X191719200Y-99060000D01*
X192074800Y-101752400D02*
X191719200Y-101396800D01*
X195224400Y-107137200D02*
X195224400Y-104902000D01*
X187604400Y-114757200D02*
X195224400Y-107137200D01*
X166014400Y-114757200D02*
X187604400Y-114757200D01*
X195224400Y-104902000D02*
X192074800Y-101752400D01*
%TO.N,/B7*%
X192176400Y-102666800D02*
X190957200Y-101447600D01*
X194005200Y-104495600D02*
X192176400Y-102666800D01*
X187357000Y-113582200D02*
X194005200Y-106934000D01*
X194005200Y-106934000D02*
X194005200Y-104495600D01*
X190957200Y-101447600D02*
X190957200Y-99872800D01*
X164649400Y-113582200D02*
X187357000Y-113582200D01*
X163474400Y-114757200D02*
X164649400Y-113582200D01*
%TO.N,/B6*%
X192836800Y-105466605D02*
X192836800Y-105206800D01*
X186086205Y-112217200D02*
X192836800Y-105466605D01*
X166014400Y-112217200D02*
X186086205Y-112217200D01*
%TO.N,/B5*%
X186425900Y-110852200D02*
X191770000Y-105508100D01*
X164839400Y-110852200D02*
X186425900Y-110852200D01*
X163474400Y-112217200D02*
X164839400Y-110852200D01*
%TO.N,/B4*%
X190784382Y-105439723D02*
X190784382Y-104861409D01*
X189086905Y-107137200D02*
X190784382Y-105439723D01*
X166014400Y-107137200D02*
X189086905Y-107137200D01*
%TO.N,/B3*%
X189123905Y-106185800D02*
X189890400Y-105419305D01*
X188523295Y-106185800D02*
X189123905Y-106185800D01*
X188299695Y-105962200D02*
X188523295Y-106185800D01*
X164649400Y-105962200D02*
X188299695Y-105962200D01*
X189890400Y-105419305D02*
X189890400Y-105308400D01*
X163474400Y-107137200D02*
X164649400Y-105962200D01*
%TO.N,/B2*%
X166878000Y-105460800D02*
X188823600Y-105460800D01*
X166014400Y-104597200D02*
X166878000Y-105460800D01*
%TO.N,/B1*%
X167714804Y-104394000D02*
X188214000Y-104394000D01*
X166743004Y-103422200D02*
X167714804Y-104394000D01*
X164649400Y-103422200D02*
X166743004Y-103422200D01*
X163474400Y-104597200D02*
X164649400Y-103422200D01*
%TO.N,/B0*%
X187655200Y-103327200D02*
X187706000Y-103378000D01*
X171551600Y-103327200D02*
X187655200Y-103327200D01*
X167284400Y-103327200D02*
X171551600Y-103327200D01*
X166014400Y-102057200D02*
X167284400Y-103327200D01*
%TO.N,/G9*%
X168402000Y-100685600D02*
X180441600Y-100685600D01*
X180441600Y-100685600D02*
X181254400Y-99872800D01*
%TO.N,/G8*%
X179882800Y-99517200D02*
X180441600Y-98958400D01*
X166014400Y-99517200D02*
X179882800Y-99517200D01*
%TO.N,/G7*%
X164795200Y-98196400D02*
X182524400Y-98196400D01*
X163474400Y-99517200D02*
X164795200Y-98196400D01*
%TD*%
M02*
